<svg width="226" height="228" viewBox="0 0 226 228" fill="none" xmlns="http://www.w3.org/2000/svg" xmlns:xlink="http://www.w3.org/1999/xlink">
<path d="M212.353,33.36C193.833,22.3 163.293,48.94 155.533,56.2C157.099,51.596 159.81,47.466 163.413,44.2C163.498,44.134 163.565,44.049 163.61,43.951C163.656,43.854 163.677,43.747 163.673,43.64C163.673,43.537 163.648,43.435 163.599,43.344C163.55,43.254 163.479,43.177 163.393,43.12C161.678,41.96 159.664,41.321 157.593,41.28C158.659,39.967 160.027,38.934 161.581,38.268C163.135,37.603 164.828,37.325 166.513,37.46C166.638,37.478 166.765,37.46 166.878,37.406C166.992,37.353 167.088,37.267 167.153,37.16C167.216,37.051 167.25,36.926 167.25,36.8C167.25,36.674 167.216,36.549 167.153,36.44C166.336,35.203 165.206,34.204 163.879,33.544C162.551,32.884 161.073,32.586 159.593,32.68C162.213,30.68 168.153,29.96 170.553,29.88C170.681,29.879 170.806,29.84 170.913,29.769C171.019,29.698 171.103,29.598 171.153,29.48C171.202,29.365 171.219,29.239 171.201,29.116C171.184,28.993 171.132,28.876 171.053,28.78C168.737,26.086 165.454,24.412 161.913,24.12C165.233,20.12 175.073,18.92 175.173,18.9C175.314,18.889 175.447,18.832 175.551,18.738C175.656,18.644 175.727,18.518 175.753,18.38C175.786,18.303 175.803,18.219 175.804,18.135C175.805,18.051 175.789,17.968 175.758,17.889C175.726,17.811 175.679,17.74 175.62,17.68C175.561,17.62 175.491,17.573 175.413,17.54C172.292,15.552 168.753,14.313 165.073,13.92C169.073,8.96 181.793,5.92 181.933,5.92C182.069,5.888 182.191,5.816 182.285,5.712C182.378,5.608 182.436,5.478 182.453,5.34C182.469,5.204 182.443,5.066 182.379,4.944C182.314,4.823 182.215,4.724 182.093,4.66C173.573,0.22 163.173,4.54 162.693,4.66C150.693,10.66 150.153,30.56 151.413,44.34C146.693,27.6 136.433,1.38 118.293,0C117.693,0 103.553,0 95.793,9.14C95.715,9.251 95.673,9.384 95.673,9.52C95.673,9.656 95.715,9.789 95.793,9.9C95.863,10.02 95.967,10.116 96.092,10.176C96.216,10.237 96.356,10.259 96.493,10.24C96.673,10.24 113.573,7.5 120.493,11.7C116.272,13.889 112.642,17.066 109.913,20.96C109.832,21.077 109.788,21.217 109.788,21.36C109.788,21.503 109.832,21.643 109.913,21.76C109.995,21.874 110.109,21.961 110.242,22.007C110.374,22.054 110.518,22.058 110.653,22.02C110.793,22.02 123.333,18.52 129.093,21.92C127.065,22.903 125.254,24.282 123.767,25.975C122.28,27.668 121.146,29.642 120.433,31.78C120.392,31.902 120.387,32.032 120.419,32.157C120.451,32.281 120.518,32.393 120.613,32.48C120.703,32.57 120.817,32.632 120.942,32.657C121.067,32.682 121.196,32.669 121.313,32.62C124.293,31.52 132.053,29.34 136.053,30.82C134.212,31.356 132.551,32.384 131.251,33.794C129.95,35.203 129.059,36.941 128.673,38.82C128.654,38.945 128.67,39.073 128.719,39.19C128.769,39.306 128.85,39.407 128.953,39.48C129.063,39.543 129.187,39.576 129.313,39.576C129.44,39.576 129.564,39.543 129.673,39.48C131.651,38.461 133.855,37.96 136.08,38.023C138.304,38.086 140.476,38.711 142.393,39.84C139.896,40.851 137.758,42.585 136.253,44.82C136.204,44.912 136.179,45.015 136.179,45.12C136.179,45.225 136.204,45.328 136.253,45.42C136.29,45.519 136.349,45.608 136.425,45.68C136.501,45.753 136.593,45.808 136.693,45.84C142.58,47.952 147.818,51.556 151.893,56.3C142.013,52.48 108.493,40.98 96.733,56.3C96.453,56.72 89.833,66.7 92.733,76.48C92.773,76.611 92.852,76.727 92.959,76.813C93.066,76.899 93.197,76.95 93.333,76.96L93.433,76.96C93.553,76.947 93.668,76.904 93.766,76.834C93.864,76.763 93.942,76.669 93.993,76.56C93.993,76.42 99.833,63.54 105.873,60.56C105.513,64.505 106.089,68.479 107.553,72.16C107.6,72.292 107.687,72.405 107.802,72.484C107.917,72.563 108.054,72.604 108.193,72.6C108.337,72.598 108.476,72.55 108.591,72.464C108.706,72.378 108.791,72.257 108.833,72.12C108.833,72.02 112.133,61.86 117.053,59.24C116.834,61.111 116.986,63.007 117.501,64.819C118.016,66.631 118.883,68.324 120.053,69.8C120.133,69.898 120.24,69.971 120.361,70.01C120.481,70.049 120.611,70.052 120.733,70.02C120.856,69.995 120.97,69.934 121.059,69.845C121.147,69.756 121.208,69.643 121.233,69.52C121.813,67 123.753,60.8 126.493,58.52C126.075,60.055 126.073,61.674 126.488,63.21C126.903,64.746 127.719,66.144 128.853,67.26C128.947,67.344 129.061,67.401 129.184,67.426C129.307,67.451 129.435,67.442 129.553,67.4C129.673,67.353 129.777,67.274 129.855,67.172C129.932,67.069 129.98,66.948 129.993,66.82C130.204,65.012 130.851,63.283 131.879,61.781C132.907,60.28 134.284,59.051 135.893,58.2C135.495,60.384 135.745,62.637 136.613,64.68C136.653,64.776 136.716,64.861 136.796,64.927C136.876,64.993 136.971,65.039 137.073,65.06C137.174,65.082 137.279,65.081 137.379,65.057C137.48,65.033 137.574,64.986 137.653,64.92C139.233,63.681 140.96,62.639 142.793,61.82C141.992,62.559 141.371,63.471 140.976,64.486C140.58,65.502 140.422,66.594 140.513,67.68C140.676,69.586 141.589,71.35 143.052,72.584C144.514,73.818 146.407,74.421 148.313,74.26C149.881,74.122 151.358,73.468 152.513,72.4C154.213,76.84 160.713,98.12 149.713,140.4C134.873,144.86 132.513,149.54 130.453,153.68C129.785,155.184 128.895,156.58 127.813,157.82C126.768,159.298 126.149,161.035 126.026,162.842C125.902,164.648 126.279,166.453 127.113,168.06C129.853,173.78 138.873,180.06 166.193,177.76C184.993,176.16 196.573,171.76 200.613,164.68C201.433,163.324 201.925,161.795 202.05,160.215C202.175,158.635 201.93,157.048 201.333,155.58C197.333,146.02 187.093,138.28 177.333,137.34C175.773,121.92 170.993,85.78 159.673,71.34C160.152,71.39 160.635,71.39 161.113,71.34C163.021,71.172 164.785,70.255 166.019,68.789C167.252,67.323 167.854,65.429 167.693,63.52C167.569,62.085 167.016,60.721 166.107,59.605C165.197,58.489 163.973,57.672 162.593,57.26C166.446,56.925 170.327,57.284 174.053,58.32C174.144,58.364 174.243,58.387 174.343,58.387C174.444,58.387 174.543,58.364 174.633,58.32C174.722,58.264 174.796,58.188 174.848,58.097C174.9,58.007 174.93,57.905 174.933,57.8C174.984,55.313 174.287,52.867 172.933,50.78C174.966,50.972 176.918,51.666 178.615,52.801C180.312,53.936 181.7,55.475 182.653,57.28C182.708,57.392 182.794,57.487 182.9,57.555C183.006,57.622 183.128,57.658 183.253,57.66C183.379,57.658 183.501,57.622 183.607,57.555C183.713,57.487 183.798,57.392 183.853,57.28C184.579,55.661 184.851,53.875 184.639,52.114C184.428,50.352 183.741,48.681 182.653,47.28C186.413,48.38 191.053,54.08 192.653,56.48C192.722,56.579 192.815,56.659 192.924,56.711C193.032,56.764 193.153,56.788 193.273,56.78L193.273,56.78C193.4,56.761 193.519,56.706 193.615,56.62C193.711,56.535 193.78,56.424 193.813,56.3C194.406,54.317 194.601,52.236 194.389,50.176C194.176,48.117 193.559,46.12 192.573,44.3C198.713,44.9 206.273,54.12 206.353,54.3C206.443,54.409 206.564,54.488 206.699,54.528C206.835,54.567 206.979,54.564 207.113,54.52C207.25,54.475 207.368,54.386 207.448,54.266C207.528,54.147 207.565,54.003 207.553,53.86C207.57,49.475 206.542,45.149 204.553,41.24C211.973,41.8 223.233,52.8 223.353,52.92C223.451,53.017 223.578,53.081 223.714,53.102C223.85,53.124 223.99,53.102 224.113,53.04C224.237,52.983 224.34,52.889 224.408,52.77C224.476,52.652 224.506,52.516 224.493,52.38C223.633,41.24 212.853,33.7 212.353,33.36ZM176.573,144.58C176.311,146.681 175.45,148.663 174.091,150.287C172.733,151.912 170.935,153.111 168.913,153.74C163.233,155.74 155.213,154.42 151.413,150.86C150.639,150.231 150.061,149.395 149.745,148.449C149.43,147.503 149.391,146.487 149.633,145.52L150.113,143.76C155.032,145.588 160.272,146.398 165.513,146.14C169.596,145.975 173.458,144.242 176.293,141.3C176.473,143.12 176.553,144.28 176.573,144.58L176.573,144.58ZM176.113,139.38C169.253,148.6 153.593,143.58 150.453,142.44C151.373,139.04 152.18,135.773 152.873,132.64C156.408,134.822 160.558,135.791 164.693,135.4C168.441,135.002 172.058,133.794 175.293,131.86C175.633,134.78 175.913,137.34 176.113,139.38ZM175.113,130.4C163.113,137.6 154.873,132.4 153.113,131.22C153.793,128.08 154.353,125.08 154.853,122.22C158.078,123.261 161.475,123.662 164.853,123.4C167.943,123.155 170.94,122.233 173.633,120.7C174.293,124.16 174.733,127.54 175.113,130.4ZM155.113,120.86C155.613,117.86 156.013,114.98 156.313,112.28C158.96,113.248 161.786,113.623 164.593,113.38C167.216,113.158 169.76,112.373 172.053,111.08C172.593,113.86 173.053,116.6 173.473,119.26C170.699,120.786 167.637,121.717 164.482,121.993C161.327,122.268 158.15,121.882 155.153,120.86L155.113,120.86ZM156.453,110.86C156.713,108.3 156.913,105.86 157.033,103.56C159.293,104.31 161.681,104.596 164.053,104.4C166.25,104.204 168.374,103.521 170.273,102.4C170.813,104.78 171.333,107.2 171.793,109.58C169.5,110.919 166.936,111.731 164.29,111.956C161.643,112.181 158.98,111.813 156.493,110.88L156.453,110.86ZM157.113,102.14C157.113,100 157.233,97.98 157.213,96.14C158.691,96.409 160.197,96.483 161.693,96.36C164.002,96.204 166.221,95.4 168.093,94.04C168.753,96.36 169.373,98.74 169.933,101.14C168.005,102.227 165.862,102.881 163.656,103.057C161.449,103.233 159.23,102.927 157.153,102.16L157.113,102.14ZM157.213,94.68C157.213,92.3 157.053,90.12 156.873,88.12C157.948,88.363 159.055,88.438 160.153,88.34C162.135,88.161 164.037,87.472 165.673,86.34C166.373,88.34 167.053,90.34 167.673,92.52C166.185,93.591 164.489,94.339 162.694,94.714C160.9,95.09 159.046,95.085 157.253,94.7L157.213,94.68ZM156.753,86.68C156.58,85 156.38,83.46 156.153,82.06C156.785,82.122 157.421,82.122 158.053,82.06C159.9,81.931 161.661,81.232 163.093,80.06C163.833,81.64 164.513,83.32 165.193,85.06C164.012,85.958 162.64,86.572 161.184,86.857C159.728,87.141 158.226,87.087 156.793,86.7L156.753,86.68ZM155.933,80.68C155.633,79.08 155.333,77.7 155.033,76.52C155.446,76.56 155.861,76.56 156.273,76.52C157.783,76.417 159.204,75.77 160.273,74.7C161.108,75.989 161.869,77.325 162.553,78.7C161.674,79.502 160.627,80.097 159.489,80.443C158.351,80.789 157.15,80.877 155.973,80.7L155.933,80.68ZM154.633,75.08C154.253,73.76 153.913,72.78 153.653,72.1L154.513,72.1C155.574,72.003 156.599,71.668 157.513,71.12C158.226,71.887 158.894,72.695 159.513,73.54C158.916,74.204 158.154,74.698 157.303,74.972C156.453,75.246 155.546,75.29 154.673,75.1L154.633,75.08ZM157.253,69.7C156.597,70.15 155.857,70.465 155.078,70.626C154.298,70.788 153.494,70.792 152.713,70.64C151.475,70.386 150.353,69.738 149.513,68.794C148.673,67.85 148.161,66.659 148.053,65.4C147.984,64.644 148.066,63.882 148.292,63.158C148.519,62.434 148.886,61.762 149.373,61.18L149.373,61.18C149.861,60.574 150.468,60.073 151.155,59.709C151.843,59.345 152.598,59.124 153.373,59.06L154.233,59.06C154.975,59.097 155.702,59.281 156.373,59.6C157.302,60.038 158.099,60.711 158.685,61.554C159.271,62.396 159.626,63.377 159.713,64.4C159.815,65.421 159.644,66.451 159.219,67.386C158.794,68.32 158.13,69.125 157.293,69.72L157.253,69.7ZM163.253,6.04C165.819,5.046 168.512,4.42 171.253,4.18C174.118,3.882 177.012,4.217 179.733,5.16C175.553,6.32 165.733,9.48 163.253,14.32C163.189,14.422 163.155,14.54 163.155,14.66C163.155,14.78 163.189,14.898 163.253,15C163.316,15.101 163.405,15.182 163.511,15.235C163.617,15.288 163.735,15.31 163.853,15.3C167.052,15.376 170.183,16.235 172.973,17.8C169.413,18.46 162.113,20.26 159.993,24.38C159.935,24.48 159.905,24.594 159.905,24.71C159.905,24.826 159.935,24.94 159.993,25.04C160.055,25.143 160.143,25.227 160.249,25.283C160.355,25.34 160.474,25.366 160.593,25.36C163.67,25.374 166.636,26.512 168.933,28.56C165.893,28.82 159.033,29.8 157.273,33.14C157.206,33.248 157.17,33.373 157.17,33.5C157.17,33.627 157.206,33.752 157.273,33.86C157.345,33.969 157.449,34.054 157.571,34.1C157.693,34.147 157.827,34.154 157.953,34.12C159.201,33.869 160.491,33.92 161.715,34.268C162.94,34.616 164.064,35.251 164.993,36.12C163.068,36.154 161.185,36.683 159.524,37.657C157.864,38.631 156.482,40.017 155.513,41.68C155.45,41.786 155.416,41.907 155.416,42.03C155.416,42.153 155.45,42.274 155.513,42.38C155.582,42.484 155.678,42.567 155.791,42.62C155.904,42.673 156.029,42.693 156.153,42.68C158.043,42.549 159.934,42.922 161.633,43.76C158.236,47.045 155.654,51.079 154.093,55.54C152.673,45.94 148.233,13.64 163.413,6.06L163.253,6.04ZM137.713,45.04C139.331,43.12 141.449,41.687 143.833,40.9C143.953,40.866 144.062,40.799 144.146,40.707C144.231,40.616 144.289,40.502 144.313,40.38C144.333,40.257 144.319,40.131 144.273,40.015C144.227,39.899 144.151,39.797 144.053,39.72C142.074,38.236 139.743,37.292 137.288,36.98C134.834,36.668 132.341,36.999 130.053,37.94C131.673,32.94 137.373,31.94 137.633,31.82C137.761,31.804 137.881,31.749 137.977,31.663C138.074,31.578 138.142,31.465 138.173,31.34C138.203,31.214 138.198,31.083 138.159,30.96C138.12,30.837 138.049,30.726 137.953,30.64C134.233,27.52 125.373,29.94 121.953,31.04C123.628,27.33 126.653,24.398 130.413,22.84C130.527,22.801 130.628,22.733 130.706,22.641C130.783,22.549 130.834,22.438 130.853,22.32C130.874,22.203 130.864,22.084 130.826,21.972C130.787,21.86 130.721,21.759 130.633,21.68C126.073,17.78 116.153,19.44 111.953,20.38C114.538,17.005 117.938,14.342 121.833,12.64C121.946,12.6 122.046,12.53 122.123,12.439C122.2,12.348 122.252,12.238 122.273,12.12C122.298,12.003 122.29,11.882 122.251,11.77C122.213,11.657 122.144,11.557 122.053,11.48C116.633,6.92 103.053,8.14 98.053,8.76C105.613,1.44 118.053,1.48 118.173,1.48C140.013,3.16 150.353,44.66 152.713,55.72C148.685,51.002 143.562,47.342 137.793,45.06L137.713,45.04ZM137.413,63.54C136.882,61.575 136.882,59.505 137.413,57.54C137.45,57.421 137.453,57.294 137.421,57.174C137.389,57.054 137.324,56.945 137.233,56.86C137.146,56.772 137.036,56.711 136.916,56.683C136.796,56.654 136.67,56.66 136.553,56.7C134.615,57.391 132.886,58.569 131.534,60.12C130.182,61.672 129.252,63.545 128.833,65.56C128.093,64.395 127.646,63.067 127.531,61.691C127.416,60.315 127.636,58.932 128.173,57.66C128.241,57.556 128.277,57.434 128.277,57.31C128.277,57.186 128.241,57.064 128.173,56.96C128.088,56.864 127.976,56.794 127.852,56.758C127.728,56.723 127.597,56.724 127.473,56.76C123.593,57.9 121.193,65 120.333,68.06C118.601,65.224 117.988,61.844 118.613,58.58C118.638,58.465 118.633,58.346 118.598,58.234C118.563,58.121 118.499,58.02 118.413,57.94C118.331,57.852 118.224,57.79 118.107,57.762C117.99,57.733 117.867,57.74 117.753,57.78C112.993,59.16 109.613,66.58 108.253,70.12C107.153,66.838 106.871,63.336 107.433,59.92C107.466,59.804 107.467,59.681 107.435,59.565C107.404,59.448 107.341,59.343 107.253,59.26C107.168,59.176 107.062,59.117 106.945,59.089C106.829,59.06 106.707,59.064 106.593,59.1C100.973,60.78 95.653,70.5 93.633,74.56C92.173,65.98 97.813,57.46 97.853,57.4C101.253,53 106.713,51.02 112.953,50.48C127.053,49.28 144.953,55.52 151.573,58.02C146.48,58.703 141.625,60.596 137.413,63.54ZM149.013,59.84L148.673,60.16L148.073,60.16L149.013,59.84ZM141.753,67.84C141.687,67.071 141.774,66.298 142.008,65.563C142.242,64.828 142.619,64.146 143.117,63.557C143.615,62.968 144.224,62.483 144.91,62.13C145.596,61.777 146.345,61.563 147.113,61.5L147.713,61.5L147.713,61.6C147.713,61.7 147.613,61.82 147.553,61.92C147.416,62.192 147.296,62.473 147.193,62.76L147.073,63.18C146.992,63.462 146.932,63.749 146.893,64.04L146.893,64.42C146.853,64.852 146.853,65.288 146.893,65.72C146.924,66.084 146.984,66.445 147.073,66.8C147.073,66.92 147.073,67.04 147.173,67.16L147.413,67.84L147.593,68.22C147.688,68.42 147.795,68.613 147.913,68.8L148.153,69.18C148.269,69.355 148.396,69.522 148.533,69.68L148.833,70.02C148.976,70.183 149.13,70.337 149.293,70.48L149.633,70.76C149.805,70.904 149.985,71.038 150.173,71.16L150.513,71.38C150.801,71.544 151.102,71.684 151.413,71.8L151.413,71.8C150.489,72.585 149.342,73.061 148.133,73.16C147.349,73.234 146.559,73.15 145.808,72.912C145.058,72.675 144.363,72.289 143.764,71.778C143.165,71.267 142.675,70.641 142.323,69.937C141.971,69.233 141.763,68.466 141.713,67.68L141.753,67.84ZM200.053,156.42C200.564,157.717 200.766,159.114 200.645,160.502C200.523,161.891 200.081,163.232 199.353,164.42C196.733,168.98 188.813,174.84 166.013,176.8C138.013,179.18 130.353,172.22 128.253,167.84C127.549,166.475 127.223,164.948 127.307,163.415C127.392,161.882 127.884,160.399 128.733,159.12C129.908,157.784 130.879,156.281 131.613,154.66C133.613,150.66 135.713,146.54 149.233,142.32C148.973,143.34 148.693,144.32 148.413,145.4C148.083,146.603 148.112,147.876 148.496,149.063C148.879,150.249 149.601,151.298 150.573,152.08C152.572,153.674 154.866,154.858 157.323,155.565C159.78,156.272 162.353,156.488 164.893,156.2C166.447,156.068 167.978,155.745 169.453,155.24C171.719,154.527 173.731,153.177 175.249,151.35C176.767,149.523 177.727,147.298 178.013,144.94L178.013,144.8C178.013,144.38 177.833,142.3 177.513,139.08C182.388,139.87 186.992,141.852 190.917,144.849C194.842,147.846 197.967,151.766 200.013,156.26L200.053,156.42ZM166.333,64.02C166.399,64.787 166.313,65.559 166.08,66.293C165.848,67.027 165.473,67.708 164.977,68.296C164.481,68.885 163.874,69.37 163.19,69.724C162.507,70.079 161.76,70.295 160.993,70.36C160.322,70.425 159.645,70.371 158.993,70.2C159.113,70.1 159.193,69.98 159.313,69.86L159.473,69.68C159.653,69.46 159.833,69.22 159.993,68.98C160.133,68.76 160.253,68.52 160.373,68.3L160.493,68.04C160.493,67.86 160.633,67.68 160.693,67.48C160.753,67.28 160.693,67.28 160.793,67.18C160.852,66.996 160.898,66.809 160.933,66.62L160.933,66.32L160.933,65.72C160.942,65.627 160.942,65.533 160.933,65.44C160.953,65.14 160.953,64.84 160.933,64.54C160.933,64.24 160.933,63.96 160.793,63.66C160.653,63.36 160.793,63.48 160.793,63.38C160.793,63.28 160.693,63 160.633,62.82L160.513,62.5C160.448,62.33 160.375,62.163 160.293,62C160.248,61.896 160.194,61.796 160.133,61.7C160.133,61.54 159.953,61.38 159.853,61.22L159.673,60.96C159.551,60.773 159.41,60.599 159.253,60.44L159.133,60.28C158.943,60.077 158.743,59.883 158.533,59.7L158.293,59.52L157.953,59.24C158.55,58.979 159.185,58.817 159.833,58.76C161.364,58.59 162.9,59.031 164.109,59.985C165.318,60.939 166.103,62.331 166.293,63.86L166.333,64.02ZM203.413,40.02C203.295,40.031 203.182,40.071 203.084,40.138C202.986,40.204 202.907,40.294 202.853,40.4C202.795,40.504 202.765,40.621 202.765,40.74C202.765,40.859 202.795,40.976 202.853,41.08C204.854,44.415 205.995,48.195 206.173,52.08C203.433,49.08 196.913,42.68 191.433,43.16C191.317,43.168 191.206,43.208 191.11,43.275C191.015,43.342 190.94,43.434 190.893,43.54C190.835,43.644 190.805,43.761 190.805,43.88C190.805,43.999 190.835,44.116 190.893,44.22C192.857,47.381 193.57,51.161 192.893,54.82C190.893,52.1 185.453,45.64 180.993,46.04C180.863,46.046 180.738,46.091 180.635,46.169C180.531,46.248 180.454,46.356 180.413,46.48C180.364,46.599 180.353,46.73 180.382,46.855C180.41,46.981 180.477,47.094 180.573,47.18C181.658,48.289 182.452,49.649 182.884,51.139C183.317,52.629 183.375,54.202 183.053,55.72C181.811,53.823 180.104,52.276 178.094,51.225C176.085,50.175 173.84,49.657 171.573,49.72C171.447,49.728 171.325,49.769 171.22,49.839C171.114,49.91 171.029,50.006 170.973,50.12C170.924,50.235 170.907,50.361 170.925,50.484C170.943,50.607 170.994,50.724 171.073,50.82C172.443,52.664 173.274,54.852 173.473,57.14C169.749,56.212 165.896,55.914 162.073,56.26C160.221,56.431 158.383,56.732 156.573,57.16C164.573,49.86 194.273,24.3 211.553,34.64C211.653,34.64 221.033,41.26 222.893,50.78C219.413,47.38 209.873,39.36 203.413,39.92L203.413,40.02Z" fill="#E5E5E5"/>
<path d="M120.353,81.36C101.833,70.3 71.293,96.94 63.533,104.2C65.099,99.596 67.81,95.466 71.413,92.2C71.498,92.134 71.565,92.049 71.61,91.951C71.656,91.854 71.677,91.747 71.673,91.64C71.673,91.537 71.648,91.435 71.599,91.344C71.55,91.254 71.479,91.177 71.393,91.12C69.678,89.96 67.664,89.321 65.593,89.28C66.659,87.967 68.027,86.934 69.581,86.268C71.135,85.603 72.828,85.325 74.513,85.46C74.638,85.478 74.765,85.46 74.878,85.406C74.992,85.353 75.088,85.267 75.153,85.16C75.216,85.051 75.25,84.926 75.25,84.8C75.25,84.674 75.216,84.549 75.153,84.44C74.336,83.203 73.206,82.204 71.879,81.544C70.551,80.884 69.073,80.586 67.593,80.68C70.213,78.68 76.153,77.96 78.553,77.88C78.681,77.879 78.806,77.84 78.913,77.769C79.019,77.698 79.103,77.598 79.153,77.48C79.202,77.365 79.219,77.239 79.201,77.116C79.184,76.993 79.132,76.876 79.053,76.78C76.737,74.086 73.454,72.412 69.913,72.12C73.233,68.12 83.073,66.92 83.173,66.9C83.314,66.889 83.447,66.832 83.551,66.738C83.656,66.644 83.727,66.518 83.753,66.38C83.786,66.303 83.803,66.219 83.804,66.135C83.805,66.051 83.789,65.968 83.758,65.889C83.726,65.811 83.679,65.74 83.62,65.68C83.561,65.62 83.491,65.573 83.413,65.54C80.292,63.552 76.753,62.313 73.073,61.92C77.073,56.96 89.793,53.92 89.933,53.92C90.069,53.888 90.191,53.816 90.285,53.712C90.378,53.608 90.436,53.478 90.453,53.34C90.469,53.204 90.443,53.066 90.379,52.944C90.314,52.823 90.215,52.724 90.093,52.66C81.573,48.22 71.173,52.54 70.693,52.66C58.693,58.66 58.153,78.56 59.413,92.34C54.693,75.6 44.433,49.38 26.293,48C25.693,48 11.553,48 3.793,57.14C3.715,57.251 3.673,57.384 3.673,57.52C3.673,57.656 3.715,57.789 3.793,57.9C3.863,58.02 3.967,58.116 4.092,58.176C4.216,58.237 4.356,58.259 4.493,58.24C4.673,58.24 21.573,55.5 28.493,59.7C24.272,61.889 20.642,65.066 17.913,68.96C17.832,69.077 17.788,69.217 17.788,69.36C17.788,69.503 17.832,69.643 17.913,69.76C17.995,69.874 18.109,69.961 18.242,70.007C18.374,70.054 18.518,70.058 18.653,70.02C18.793,70.02 31.333,66.52 37.093,69.92C35.065,70.903 33.254,72.282 31.767,73.975C30.28,75.668 29.146,77.642 28.433,79.78C28.392,79.902 28.387,80.032 28.419,80.157C28.451,80.281 28.518,80.393 28.613,80.48C28.703,80.57 28.817,80.632 28.942,80.657C29.067,80.682 29.196,80.669 29.313,80.62C32.293,79.52 40.053,77.34 44.053,78.82C42.212,79.356 40.551,80.384 39.251,81.794C37.95,83.203 37.059,84.941 36.673,86.82C36.654,86.945 36.67,87.073 36.719,87.19C36.769,87.306 36.85,87.407 36.953,87.48C37.063,87.543 37.187,87.576 37.313,87.576C37.44,87.576 37.564,87.543 37.673,87.48C39.651,86.461 41.855,85.96 44.08,86.023C46.304,86.086 48.476,86.711 50.393,87.84C47.896,88.851 45.758,90.585 44.253,92.82C44.204,92.912 44.179,93.015 44.179,93.12C44.179,93.225 44.204,93.328 44.253,93.42C44.29,93.519 44.349,93.608 44.425,93.68C44.501,93.753 44.593,93.808 44.693,93.84C50.58,95.952 55.818,99.556 59.893,104.3C50.013,100.48 16.493,88.98 4.733,104.3C4.453,104.72 -2.167,114.7 0.733,124.48C0.773,124.611 0.852,124.727 0.959,124.813C1.066,124.899 1.197,124.95 1.333,124.96L1.433,124.96C1.553,124.947 1.668,124.904 1.766,124.834C1.864,124.763 1.942,124.669 1.993,124.56C1.993,124.42 7.833,111.54 13.873,108.56C13.513,112.505 14.089,116.479 15.553,120.16C15.6,120.292 15.687,120.405 15.802,120.484C15.917,120.563 16.054,120.604 16.193,120.6C16.337,120.598 16.476,120.55 16.591,120.464C16.706,120.378 16.791,120.257 16.833,120.12C16.833,120.02 20.133,109.86 25.053,107.24C24.834,109.111 24.986,111.007 25.501,112.819C26.016,114.631 26.883,116.324 28.053,117.8C28.133,117.898 28.24,117.971 28.361,118.01C28.481,118.049 28.611,118.052 28.733,118.02C28.856,117.995 28.97,117.934 29.059,117.845C29.147,117.756 29.208,117.643 29.233,117.52C29.813,115 31.753,108.8 34.493,106.52C34.075,108.055 34.073,109.674 34.488,111.21C34.903,112.746 35.719,114.144 36.853,115.26C36.947,115.344 37.061,115.401 37.184,115.426C37.307,115.451 37.435,115.442 37.553,115.4C37.673,115.353 37.777,115.274 37.855,115.172C37.932,115.069 37.98,114.948 37.993,114.82C38.204,113.012 38.851,111.283 39.879,109.781C40.907,108.28 42.284,107.051 43.893,106.2C43.495,108.384 43.745,110.637 44.613,112.68C44.653,112.776 44.716,112.861 44.796,112.927C44.876,112.993 44.971,113.039 45.073,113.06C45.174,113.082 45.279,113.081 45.379,113.057C45.48,113.033 45.574,112.986 45.653,112.92C47.233,111.681 48.96,110.639 50.793,109.82C49.992,110.559 49.371,111.471 48.976,112.486C48.58,113.502 48.422,114.594 48.513,115.68C48.676,117.586 49.589,119.35 51.052,120.584C52.514,121.818 54.407,122.421 56.313,122.26C57.881,122.122 59.358,121.468 60.513,120.4C62.213,124.84 68.713,146.12 57.713,188.4C42.873,192.86 40.513,197.54 38.453,201.68C37.785,203.184 36.895,204.58 35.813,205.82C34.768,207.298 34.149,209.035 34.026,210.842C33.902,212.648 34.279,214.453 35.113,216.06C37.853,221.78 46.873,228.06 74.193,225.76C92.993,224.16 104.573,219.76 108.613,212.68C109.433,211.324 109.925,209.795 110.05,208.215C110.175,206.635 109.93,205.048 109.333,203.58C105.333,194.02 95.093,186.28 85.333,185.34C83.773,169.92 78.993,133.78 67.673,119.34C68.152,119.39 68.635,119.39 69.113,119.34C71.021,119.172 72.785,118.255 74.019,116.789C75.252,115.323 75.854,113.429 75.693,111.52C75.569,110.085 75.016,108.721 74.107,107.605C73.197,106.489 71.973,105.672 70.593,105.26C74.446,104.925 78.327,105.284 82.053,106.32C82.144,106.364 82.243,106.387 82.343,106.387C82.444,106.387 82.543,106.364 82.633,106.32C82.722,106.264 82.796,106.188 82.848,106.097C82.9,106.007 82.93,105.905 82.933,105.8C82.984,103.313 82.287,100.867 80.933,98.78C82.966,98.972 84.918,99.666 86.615,100.801C88.312,101.936 89.7,103.475 90.653,105.28C90.708,105.392 90.794,105.487 90.9,105.555C91.006,105.622 91.128,105.658 91.253,105.66C91.379,105.658 91.501,105.622 91.607,105.555C91.713,105.487 91.798,105.392 91.853,105.28C92.579,103.661 92.851,101.875 92.639,100.114C92.428,98.352 91.741,96.681 90.653,95.28C94.413,96.38 99.053,102.08 100.653,104.48C100.722,104.579 100.815,104.659 100.924,104.711C101.032,104.764 101.153,104.788 101.273,104.78L101.273,104.78C101.4,104.761 101.519,104.706 101.615,104.62C101.711,104.535 101.78,104.424 101.813,104.3C102.406,102.317 102.601,100.236 102.389,98.176C102.176,96.117 101.559,94.12 100.573,92.3C106.713,92.9 114.273,102.12 114.353,102.3C114.443,102.409 114.564,102.488 114.699,102.528C114.835,102.567 114.979,102.564 115.113,102.52C115.25,102.475 115.368,102.386 115.448,102.266C115.528,102.147 115.565,102.003 115.553,101.86C115.57,97.475 114.542,93.149 112.553,89.24C119.973,89.8 131.233,100.8 131.353,100.92C131.451,101.017 131.578,101.081 131.714,101.102C131.85,101.124 131.99,101.102 132.113,101.04C132.237,100.983 132.34,100.889 132.408,100.77C132.476,100.652 132.506,100.516 132.493,100.38C131.633,89.24 120.853,81.7 120.353,81.36ZM84.573,192.58C84.311,194.681 83.45,196.663 82.091,198.287C80.733,199.912 78.935,201.111 76.913,201.74C71.233,203.74 63.213,202.42 59.413,198.86C58.639,198.231 58.061,197.395 57.745,196.449C57.43,195.503 57.391,194.487 57.633,193.52L58.113,191.76C63.032,193.588 68.272,194.398 73.513,194.14C77.596,193.975 81.458,192.242 84.293,189.3C84.473,191.12 84.553,192.28 84.573,192.58L84.573,192.58ZM84.113,187.38C77.253,196.6 61.593,191.58 58.453,190.44C59.373,187.04 60.18,183.773 60.873,180.64C64.408,182.822 68.558,183.791 72.693,183.4C76.441,183.002 80.058,181.794 83.293,179.86C83.633,182.78 83.913,185.34 84.113,187.38ZM83.113,178.4C71.113,185.6 62.873,180.4 61.113,179.22C61.793,176.08 62.353,173.08 62.853,170.22C66.078,171.261 69.475,171.662 72.853,171.4C75.943,171.155 78.94,170.233 81.633,168.7C82.293,172.16 82.733,175.54 83.113,178.4ZM63.113,168.86C63.613,165.86 64.013,162.98 64.313,160.28C66.96,161.248 69.786,161.623 72.593,161.38C75.216,161.158 77.76,160.373 80.053,159.08C80.593,161.86 81.053,164.6 81.473,167.26C78.699,168.786 75.637,169.717 72.482,169.993C69.327,170.268 66.15,169.882 63.153,168.86L63.113,168.86ZM64.453,158.86C64.713,156.3 64.913,153.86 65.033,151.56C67.293,152.31 69.681,152.596 72.053,152.4C74.25,152.204 76.374,151.521 78.273,150.4C78.813,152.78 79.333,155.2 79.793,157.58C77.5,158.919 74.936,159.731 72.29,159.956C69.643,160.181 66.98,159.813 64.493,158.88L64.453,158.86ZM65.113,150.14C65.113,148 65.233,145.98 65.213,144.14C66.691,144.409 68.197,144.483 69.693,144.36C72.002,144.204 74.221,143.4 76.093,142.04C76.753,144.36 77.373,146.74 77.933,149.14C76.005,150.227 73.862,150.881 71.656,151.057C69.449,151.233 67.23,150.927 65.153,150.16L65.113,150.14ZM65.213,142.68C65.213,140.3 65.053,138.12 64.873,136.12C65.948,136.363 67.055,136.438 68.153,136.34C70.135,136.161 72.037,135.472 73.673,134.34C74.373,136.34 75.053,138.34 75.673,140.52C74.185,141.591 72.489,142.339 70.694,142.714C68.9,143.09 67.046,143.085 65.253,142.7L65.213,142.68ZM64.753,134.68C64.58,133 64.38,131.46 64.153,130.06C64.785,130.122 65.421,130.122 66.053,130.06C67.9,129.931 69.661,129.232 71.093,128.06C71.833,129.64 72.513,131.32 73.193,133.06C72.012,133.958 70.64,134.572 69.184,134.857C67.728,135.141 66.226,135.087 64.793,134.7L64.753,134.68ZM63.933,128.68C63.633,127.08 63.333,125.7 63.033,124.52C63.446,124.56 63.861,124.56 64.273,124.52C65.783,124.417 67.204,123.77 68.273,122.7C69.108,123.989 69.869,125.325 70.553,126.7C69.674,127.502 68.627,128.097 67.489,128.443C66.351,128.789 65.15,128.877 63.973,128.7L63.933,128.68ZM62.633,123.08C62.253,121.76 61.913,120.78 61.653,120.1L62.513,120.1C63.574,120.003 64.599,119.668 65.513,119.12C66.226,119.887 66.894,120.695 67.513,121.54C66.916,122.204 66.154,122.698 65.303,122.972C64.453,123.246 63.546,123.29 62.673,123.1L62.633,123.08ZM65.253,117.7C64.597,118.15 63.857,118.465 63.078,118.626C62.298,118.788 61.494,118.792 60.713,118.64C59.475,118.386 58.353,117.738 57.513,116.794C56.673,115.85 56.161,114.659 56.053,113.4C55.984,112.644 56.066,111.882 56.292,111.158C56.519,110.434 56.886,109.762 57.373,109.18L57.373,109.18C57.861,108.574 58.468,108.073 59.155,107.709C59.843,107.345 60.598,107.124 61.373,107.06L62.233,107.06C62.975,107.097 63.702,107.281 64.373,107.6C65.302,108.038 66.099,108.711 66.685,109.554C67.271,110.396 67.626,111.377 67.713,112.4C67.815,113.421 67.644,114.451 67.219,115.386C66.794,116.32 66.13,117.125 65.293,117.72L65.253,117.7ZM71.253,54.04C73.819,53.046 76.512,52.42 79.253,52.18C82.118,51.882 85.012,52.217 87.733,53.16C83.553,54.32 73.733,57.48 71.253,62.32C71.189,62.422 71.155,62.54 71.155,62.66C71.155,62.78 71.189,62.898 71.253,63C71.316,63.101 71.405,63.182 71.511,63.235C71.617,63.288 71.735,63.31 71.853,63.3C75.052,63.376 78.183,64.235 80.973,65.8C77.413,66.46 70.113,68.26 67.993,72.38C67.935,72.48 67.905,72.594 67.905,72.71C67.905,72.826 67.935,72.94 67.993,73.04C68.055,73.143 68.143,73.227 68.249,73.283C68.355,73.34 68.474,73.366 68.593,73.36C71.67,73.374 74.636,74.512 76.933,76.56C73.893,76.82 67.033,77.8 65.273,81.14C65.206,81.248 65.17,81.373 65.17,81.5C65.17,81.627 65.206,81.752 65.273,81.86C65.345,81.969 65.449,82.054 65.571,82.1C65.693,82.147 65.827,82.154 65.953,82.12C67.201,81.869 68.491,81.92 69.715,82.268C70.94,82.616 72.064,83.251 72.993,84.12C71.068,84.154 69.185,84.683 67.524,85.657C65.864,86.631 64.482,88.017 63.513,89.68C63.45,89.786 63.416,89.907 63.416,90.03C63.416,90.153 63.45,90.274 63.513,90.38C63.582,90.484 63.678,90.567 63.791,90.62C63.904,90.673 64.029,90.693 64.153,90.68C66.043,90.549 67.934,90.922 69.633,91.76C66.236,95.045 63.654,99.079 62.093,103.54C60.673,93.94 56.233,61.64 71.413,54.06L71.253,54.04ZM45.713,93.04C47.331,91.12 49.449,89.687 51.833,88.9C51.953,88.866 52.062,88.799 52.146,88.707C52.231,88.616 52.289,88.502 52.313,88.38C52.333,88.257 52.319,88.131 52.273,88.015C52.227,87.899 52.151,87.797 52.053,87.72C50.074,86.236 47.743,85.292 45.288,84.98C42.834,84.668 40.341,84.999 38.053,85.94C39.673,80.94 45.373,79.94 45.633,79.82C45.761,79.804 45.881,79.749 45.977,79.663C46.074,79.578 46.142,79.465 46.173,79.34C46.203,79.214 46.198,79.083 46.159,78.96C46.12,78.837 46.049,78.726 45.953,78.64C42.233,75.52 33.373,77.94 29.953,79.04C31.628,75.33 34.653,72.398 38.413,70.84C38.527,70.801 38.628,70.733 38.706,70.641C38.783,70.549 38.834,70.438 38.853,70.32C38.874,70.203 38.864,70.084 38.826,69.972C38.787,69.86 38.721,69.759 38.633,69.68C34.073,65.78 24.153,67.44 19.953,68.38C22.538,65.005 25.938,62.342 29.833,60.64C29.946,60.6 30.046,60.53 30.123,60.439C30.2,60.348 30.252,60.238 30.273,60.12C30.298,60.003 30.29,59.882 30.251,59.77C30.213,59.657 30.144,59.557 30.053,59.48C24.633,54.92 11.053,56.14 6.053,56.76C13.613,49.44 26.053,49.48 26.173,49.48C48.013,51.16 58.353,92.66 60.713,103.72C56.685,99.002 51.562,95.342 45.793,93.06L45.713,93.04ZM45.413,111.54C44.882,109.575 44.882,107.505 45.413,105.54C45.45,105.421 45.453,105.294 45.421,105.174C45.389,105.054 45.324,104.945 45.233,104.86C45.146,104.772 45.036,104.711 44.916,104.683C44.796,104.654 44.67,104.66 44.553,104.7C42.615,105.391 40.886,106.569 39.534,108.12C38.182,109.672 37.252,111.545 36.833,113.56C36.093,112.395 35.646,111.067 35.531,109.691C35.416,108.315 35.636,106.932 36.173,105.66C36.241,105.556 36.277,105.434 36.277,105.31C36.277,105.186 36.241,105.064 36.173,104.96C36.088,104.864 35.976,104.794 35.852,104.758C35.728,104.723 35.597,104.724 35.473,104.76C31.593,105.9 29.193,113 28.333,116.06C26.601,113.224 25.988,109.844 26.613,106.58C26.638,106.465 26.633,106.346 26.598,106.234C26.563,106.121 26.499,106.02 26.413,105.94C26.331,105.852 26.224,105.79 26.107,105.762C25.99,105.733 25.867,105.74 25.753,105.78C20.993,107.16 17.613,114.58 16.253,118.12C15.153,114.838 14.871,111.336 15.433,107.92C15.466,107.804 15.467,107.681 15.435,107.565C15.404,107.448 15.341,107.343 15.253,107.26C15.168,107.176 15.062,107.117 14.945,107.089C14.829,107.06 14.707,107.064 14.593,107.1C8.973,108.78 3.653,118.5 1.633,122.56C0.173,113.98 5.813,105.46 5.853,105.4C9.253,101 14.713,99.02 20.953,98.48C35.053,97.28 52.953,103.52 59.573,106.02C54.48,106.703 49.625,108.596 45.413,111.54ZM57.013,107.84L56.673,108.16L56.073,108.16L57.013,107.84ZM49.753,115.84C49.687,115.071 49.774,114.298 50.008,113.563C50.242,112.828 50.619,112.146 51.117,111.557C51.615,110.968 52.224,110.483 52.91,110.13C53.596,109.777 54.345,109.563 55.113,109.5L55.713,109.5L55.713,109.6C55.713,109.7 55.613,109.82 55.553,109.92C55.416,110.192 55.296,110.473 55.193,110.76L55.073,111.18C54.992,111.462 54.932,111.749 54.893,112.04L54.893,112.42C54.853,112.852 54.853,113.288 54.893,113.72C54.924,114.084 54.984,114.445 55.073,114.8C55.073,114.92 55.073,115.04 55.173,115.16L55.413,115.84L55.593,116.22C55.688,116.42 55.795,116.613 55.913,116.8L56.153,117.18C56.269,117.355 56.396,117.522 56.533,117.68L56.833,118.02C56.976,118.183 57.13,118.337 57.293,118.48L57.633,118.76C57.805,118.904 57.985,119.038 58.173,119.16L58.513,119.38C58.801,119.544 59.102,119.684 59.413,119.8L59.413,119.8C58.489,120.585 57.342,121.061 56.133,121.16C55.349,121.234 54.559,121.15 53.808,120.912C53.058,120.675 52.363,120.289 51.764,119.778C51.165,119.267 50.675,118.641 50.323,117.937C49.971,117.233 49.763,116.466 49.713,115.68L49.753,115.84ZM108.053,204.42C108.564,205.717 108.766,207.114 108.645,208.502C108.523,209.891 108.081,211.232 107.353,212.42C104.733,216.98 96.813,222.84 74.013,224.8C46.013,227.18 38.353,220.22 36.253,215.84C35.549,214.475 35.223,212.948 35.307,211.415C35.392,209.882 35.884,208.399 36.733,207.12C37.908,205.784 38.879,204.281 39.613,202.66C41.613,198.66 43.713,194.54 57.233,190.32C56.973,191.34 56.693,192.32 56.413,193.4C56.083,194.603 56.112,195.876 56.496,197.063C56.879,198.249 57.601,199.298 58.573,200.08C60.572,201.674 62.866,202.858 65.323,203.565C67.78,204.272 70.353,204.488 72.893,204.2C74.447,204.068 75.978,203.745 77.453,203.24C79.719,202.527 81.731,201.177 83.249,199.35C84.767,197.523 85.727,195.298 86.013,192.94L86.013,192.8C86.013,192.38 85.833,190.3 85.513,187.08C90.388,187.87 94.992,189.852 98.917,192.849C102.842,195.846 105.967,199.766 108.013,204.26L108.053,204.42ZM74.333,112.02C74.399,112.787 74.313,113.559 74.08,114.293C73.848,115.027 73.473,115.708 72.977,116.296C72.481,116.885 71.874,117.37 71.19,117.724C70.507,118.079 69.76,118.295 68.993,118.36C68.322,118.425 67.645,118.371 66.993,118.2C67.113,118.1 67.193,117.98 67.313,117.86L67.473,117.68C67.653,117.46 67.833,117.22 67.993,116.98C68.133,116.76 68.253,116.52 68.373,116.3L68.493,116.04C68.493,115.86 68.633,115.68 68.693,115.48C68.753,115.28 68.693,115.28 68.793,115.18C68.852,114.996 68.898,114.809 68.933,114.62L68.933,114.32L68.933,113.72C68.942,113.627 68.942,113.533 68.933,113.44C68.953,113.14 68.953,112.84 68.933,112.54C68.933,112.24 68.933,111.96 68.793,111.66C68.653,111.36 68.793,111.48 68.793,111.38C68.793,111.28 68.693,111 68.633,110.82L68.513,110.5C68.448,110.33 68.375,110.163 68.293,110C68.248,109.896 68.194,109.796 68.133,109.7C68.133,109.54 67.953,109.38 67.853,109.22L67.673,108.96C67.551,108.773 67.41,108.599 67.253,108.44L67.133,108.28C66.943,108.077 66.743,107.883 66.533,107.7L66.293,107.52L65.953,107.24C66.55,106.979 67.185,106.817 67.833,106.76C69.364,106.59 70.9,107.031 72.109,107.985C73.318,108.939 74.103,110.331 74.293,111.86L74.333,112.02ZM111.413,88.02C111.295,88.031 111.182,88.071 111.084,88.138C110.986,88.204 110.907,88.294 110.853,88.4C110.795,88.504 110.765,88.621 110.765,88.74C110.765,88.859 110.795,88.976 110.853,89.08C112.854,92.415 113.995,96.195 114.173,100.08C111.433,97.08 104.913,90.68 99.433,91.16C99.317,91.168 99.206,91.208 99.11,91.275C99.015,91.342 98.94,91.434 98.893,91.54C98.835,91.644 98.805,91.761 98.805,91.88C98.805,91.999 98.835,92.116 98.893,92.22C100.857,95.381 101.57,99.161 100.893,102.82C98.893,100.1 93.453,93.64 88.993,94.04C88.863,94.046 88.738,94.091 88.635,94.169C88.531,94.248 88.454,94.356 88.413,94.48C88.364,94.599 88.353,94.73 88.382,94.855C88.41,94.981 88.477,95.094 88.573,95.18C89.658,96.289 90.452,97.649 90.884,99.139C91.317,100.629 91.375,102.202 91.053,103.72C89.811,101.823 88.104,100.276 86.094,99.225C84.085,98.175 81.84,97.657 79.573,97.72C79.447,97.728 79.325,97.769 79.22,97.839C79.114,97.91 79.029,98.006 78.973,98.12C78.924,98.235 78.907,98.361 78.925,98.484C78.943,98.607 78.994,98.724 79.073,98.82C80.443,100.664 81.274,102.852 81.473,105.14C77.749,104.212 73.896,103.914 70.073,104.26C68.221,104.431 66.383,104.732 64.573,105.16C72.573,97.86 102.273,72.3 119.553,82.64C119.653,82.64 129.033,89.26 130.893,98.78C127.413,95.38 117.873,87.36 111.413,87.92L111.413,88.02Z" fill="#E5E5E5"/>
</svg>
