<svg width="212" height="162" viewBox="0 0 212 162" fill="none" xmlns="http://www.w3.org/2000/svg" xmlns:xlink="http://www.w3.org/1999/xlink">
<path d="M102.62,28.325C86.829,18.934 60.789,41.553 54.172,47.717C55.507,43.808 57.819,40.301 60.891,37.528C60.963,37.472 61.021,37.4 61.059,37.317C61.098,37.234 61.116,37.144 61.113,37.053C61.113,36.965 61.091,36.879 61.049,36.802C61.008,36.725 60.947,36.659 60.874,36.611C59.411,35.627 57.694,35.084 55.929,35.049C56.837,33.935 58.004,33.057 59.329,32.492C60.654,31.927 62.097,31.691 63.534,31.806C63.64,31.821 63.749,31.805 63.846,31.76C63.943,31.715 64.024,31.642 64.08,31.551C64.134,31.458 64.162,31.353 64.162,31.245C64.162,31.138 64.134,31.033 64.08,30.94C63.383,29.89 62.42,29.041 61.288,28.481C60.156,27.92 58.895,27.667 57.634,27.747C59.868,26.049 64.933,25.438 66.979,25.37C67.088,25.369 67.195,25.336 67.285,25.276C67.376,25.215 67.448,25.13 67.491,25.03C67.532,24.933 67.547,24.826 67.532,24.721C67.517,24.616 67.473,24.518 67.405,24.436C65.43,22.149 62.631,20.727 59.612,20.479C62.443,17.083 70.833,16.064 70.918,16.047C71.038,16.038 71.151,15.99 71.241,15.91C71.33,15.83 71.391,15.723 71.413,15.606C71.441,15.54 71.456,15.469 71.456,15.398C71.457,15.326 71.443,15.255 71.416,15.189C71.39,15.123 71.35,15.063 71.299,15.012C71.249,14.961 71.189,14.92 71.123,14.892C68.461,13.205 65.444,12.153 62.306,11.819C65.717,7.608 76.563,5.026 76.682,5.026C76.798,4.999 76.902,4.938 76.982,4.85C77.061,4.762 77.111,4.651 77.126,4.534C77.139,4.418 77.117,4.301 77.062,4.198C77.007,4.095 76.922,4.011 76.819,3.957C69.554,0.187 60.686,3.855 60.277,3.957C50.045,9.051 49.585,25.947 50.659,37.647C46.635,23.434 37.886,1.172 22.419,0C21.908,0 9.851,0 3.234,7.76C3.168,7.855 3.132,7.967 3.132,8.083C3.132,8.198 3.168,8.311 3.234,8.406C3.294,8.507 3.382,8.589 3.489,8.64C3.595,8.692 3.714,8.71 3.831,8.694C3.985,8.694 18.395,6.368 24.295,9.934C20.696,11.792 17.601,14.49 15.274,17.796C15.204,17.896 15.167,18.014 15.167,18.136C15.167,18.257 15.204,18.376 15.274,18.475C15.343,18.573 15.441,18.646 15.554,18.686C15.667,18.725 15.79,18.729 15.905,18.696C16.024,18.696 26.716,15.725 31.628,18.611C29.899,19.446 28.355,20.617 27.086,22.054C25.818,23.492 24.852,25.168 24.244,26.983C24.209,27.086 24.204,27.197 24.232,27.303C24.259,27.409 24.316,27.504 24.397,27.577C24.474,27.654 24.571,27.706 24.678,27.727C24.784,27.749 24.894,27.738 24.994,27.696C27.535,26.762 34.152,24.911 37.562,26.168C35.992,26.623 34.576,27.496 33.467,28.693C32.359,29.89 31.599,31.365 31.27,32.96C31.253,33.067 31.267,33.175 31.309,33.274C31.351,33.373 31.42,33.459 31.508,33.521C31.602,33.574 31.708,33.603 31.815,33.603C31.923,33.603 32.029,33.574 32.122,33.521C33.809,32.656 35.688,32.23 37.585,32.284C39.481,32.337 41.333,32.868 42.968,33.826C40.839,34.685 39.016,36.157 37.733,38.055C37.691,38.133 37.669,38.221 37.669,38.309C37.669,38.398 37.691,38.486 37.733,38.564C37.764,38.648 37.815,38.723 37.879,38.785C37.944,38.847 38.023,38.893 38.108,38.921C43.127,40.714 47.593,43.774 51.068,47.802C42.644,44.559 14.063,34.794 4.036,47.802C3.797,48.159 -1.848,56.632 0.625,64.936C0.659,65.047 0.726,65.146 0.818,65.219C0.909,65.291 1.02,65.335 1.137,65.343L1.222,65.343C1.324,65.333 1.422,65.296 1.506,65.236C1.589,65.177 1.656,65.097 1.7,65.004C1.7,64.885 6.679,53.949 11.829,51.419C11.522,54.768 12.013,58.143 13.262,61.268C13.301,61.38 13.375,61.476 13.473,61.543C13.571,61.61 13.688,61.645 13.807,61.642C13.93,61.64 14.049,61.599 14.147,61.526C14.245,61.453 14.317,61.351 14.353,61.234C14.353,61.149 17.167,52.523 21.362,50.298C21.175,51.887 21.305,53.496 21.744,55.035C22.183,56.573 22.922,58.011 23.92,59.264C23.988,59.348 24.079,59.409 24.182,59.443C24.285,59.476 24.395,59.479 24.5,59.451C24.605,59.43 24.701,59.378 24.777,59.303C24.853,59.227 24.905,59.131 24.926,59.026C25.42,56.887 27.075,51.623 29.411,49.687C29.054,50.99 29.053,52.365 29.407,53.669C29.76,54.973 30.456,56.16 31.423,57.108C31.503,57.179 31.6,57.228 31.705,57.248C31.81,57.269 31.919,57.262 32.02,57.226C32.122,57.187 32.211,57.119 32.277,57.033C32.343,56.946 32.384,56.842 32.395,56.734C32.575,55.199 33.127,53.731 34.003,52.456C34.879,51.181 36.054,50.137 37.426,49.415C37.086,51.269 37.3,53.182 38.04,54.917C38.074,54.999 38.127,55.07 38.196,55.127C38.264,55.183 38.345,55.222 38.432,55.24C38.518,55.259 38.607,55.258 38.693,55.237C38.779,55.217 38.859,55.177 38.927,55.121C40.274,54.068 41.746,53.185 43.309,52.489C42.626,53.116 42.096,53.89 41.759,54.753C41.422,55.615 41.288,56.542 41.365,57.464C41.504,59.083 42.282,60.581 43.529,61.628C44.777,62.676 46.39,63.187 48.016,63.051C49.352,62.934 50.612,62.379 51.597,61.472C53.047,65.242 58.589,83.31 49.21,119.208C36.556,122.994 34.544,126.968 32.787,130.483C32.218,131.76 31.459,132.945 30.536,133.998C29.645,135.253 29.118,136.728 29.012,138.262C28.907,139.796 29.228,141.329 29.94,142.693C32.276,147.549 39.967,152.881 63.261,150.928C79.291,149.57 89.165,145.834 92.61,139.823C93.309,138.671 93.729,137.373 93.835,136.032C93.942,134.691 93.732,133.343 93.224,132.096C89.813,123.979 81.082,117.408 72.76,116.61C71.43,103.517 67.354,72.832 57.702,60.572C58.11,60.614 58.522,60.614 58.93,60.572C60.557,60.429 62.061,59.65 63.112,58.406C64.164,57.162 64.678,55.553 64.54,53.932C64.434,52.714 63.963,51.556 63.187,50.608C62.412,49.66 61.368,48.967 60.192,48.617C63.477,48.333 66.786,48.638 69.963,49.517C70.04,49.555 70.125,49.574 70.211,49.574C70.296,49.574 70.381,49.555 70.458,49.517C70.533,49.47 70.596,49.405 70.641,49.328C70.685,49.251 70.71,49.164 70.714,49.076C70.756,46.964 70.162,44.887 69.008,43.115C70.741,43.278 72.406,43.868 73.853,44.831C75.3,45.795 76.483,47.102 77.296,48.634C77.343,48.73 77.416,48.81 77.506,48.867C77.597,48.924 77.701,48.955 77.808,48.957C77.915,48.955 78.019,48.924 78.109,48.867C78.199,48.81 78.272,48.73 78.319,48.634C78.938,47.259 79.17,45.743 78.99,44.247C78.809,42.752 78.224,41.333 77.296,40.143C80.502,41.077 84.458,45.917 85.823,47.955C85.881,48.039 85.961,48.107 86.053,48.151C86.146,48.196 86.249,48.216 86.351,48.209L86.351,48.209C86.46,48.193 86.561,48.146 86.643,48.074C86.724,48.002 86.783,47.907 86.812,47.802C87.317,46.118 87.484,44.351 87.302,42.603C87.121,40.854 86.595,39.159 85.754,37.613C90.99,38.123 97.436,45.951 97.504,46.104C97.581,46.196 97.683,46.264 97.799,46.297C97.915,46.33 98.038,46.328 98.152,46.291C98.269,46.253 98.369,46.177 98.437,46.075C98.505,45.974 98.537,45.852 98.527,45.73C98.542,42.007 97.665,38.334 95.969,35.015C102.296,35.491 111.897,44.83 111.999,44.932C112.083,45.014 112.191,45.069 112.307,45.087C112.423,45.105 112.542,45.087 112.647,45.034C112.753,44.985 112.841,44.905 112.899,44.805C112.957,44.705 112.982,44.589 112.971,44.474C112.238,35.015 103.046,28.613 102.62,28.325ZM72.112,122.757C71.889,124.541 71.154,126.223 69.996,127.603C68.837,128.982 67.305,130 65.581,130.534C60.737,132.232 53.899,131.111 50.659,128.089C49.999,127.555 49.506,126.845 49.237,126.042C48.968,125.239 48.935,124.376 49.141,123.555L49.551,122.06C53.745,123.613 58.212,124.3 62.682,124.081C66.163,123.942 69.455,122.47 71.873,119.972C72.027,121.517 72.095,122.502 72.112,122.757L72.112,122.757ZM71.72,118.342C65.871,126.17 52.518,121.908 49.841,120.94C50.625,118.053 51.313,115.279 51.904,112.619C54.918,114.472 58.456,115.295 61.982,114.962C65.178,114.625 68.262,113.599 71.021,111.957C71.31,114.436 71.549,116.61 71.72,118.342ZM70.867,110.717C60.635,116.83 53.609,112.415 52.109,111.413C52.688,108.747 53.166,106.2 53.592,103.772C56.342,104.656 59.238,104.996 62.119,104.774C64.753,104.566 67.309,103.783 69.605,102.481C70.168,105.419 70.543,108.289 70.867,110.717ZM53.814,102.617C54.24,100.07 54.581,97.625 54.837,95.332C57.094,96.154 59.503,96.473 61.897,96.266C64.134,96.077 66.303,95.411 68.258,94.313C68.718,96.674 69.111,99 69.469,101.259C67.103,102.555 64.492,103.345 61.802,103.579C59.113,103.813 56.403,103.485 53.848,102.617L53.814,102.617ZM54.956,94.127C55.178,91.953 55.349,89.881 55.451,87.928C57.378,88.565 59.414,88.808 61.437,88.642C63.309,88.475 65.121,87.895 66.74,86.943C67.201,88.964 67.644,91.019 68.036,93.04C66.081,94.177 63.895,94.866 61.638,95.057C59.382,95.248 57.111,94.936 54.991,94.144L54.956,94.127ZM55.519,86.723C55.519,84.906 55.622,83.191 55.604,81.628C56.864,81.857 58.148,81.919 59.424,81.815C61.393,81.683 63.285,81 64.881,79.845C65.444,81.815 65.973,83.836 66.45,85.874C64.806,86.796 62.979,87.352 61.098,87.502C59.216,87.651 57.324,87.391 55.553,86.74L55.519,86.723ZM55.604,80.389C55.604,78.368 55.468,76.517 55.315,74.819C56.231,75.026 57.175,75.089 58.111,75.006C59.801,74.854 61.423,74.269 62.818,73.308C63.415,75.006 63.995,76.704 64.523,78.555C63.254,79.464 61.808,80.099 60.278,80.418C58.748,80.737 57.167,80.733 55.639,80.406L55.604,80.389ZM55.212,73.596C55.065,72.17 54.894,70.862 54.701,69.674C55.239,69.726 55.782,69.726 56.321,69.674C57.895,69.564 59.397,68.971 60.618,67.976C61.249,69.317 61.829,70.743 62.409,72.221C61.401,72.983 60.232,73.505 58.99,73.746C57.748,73.988 56.468,73.942 55.246,73.613L55.212,73.596ZM54.513,68.502C54.257,67.143 54.002,65.972 53.746,64.97C54.097,65.004 54.451,65.004 54.803,64.97C56.09,64.882 57.302,64.333 58.214,63.425C58.925,64.519 59.574,65.653 60.158,66.821C59.408,67.501 58.516,68.007 57.545,68.301C56.574,68.595 55.55,68.669 54.547,68.519L54.513,68.502ZM53.405,63.747C53.081,62.626 52.791,61.794 52.569,61.217L53.302,61.217C54.207,61.134 55.081,60.85 55.86,60.385C56.468,61.036 57.038,61.722 57.566,62.44C57.056,63.004 56.406,63.423 55.681,63.656C54.957,63.888 54.183,63.926 53.439,63.764L53.405,63.747ZM55.639,59.179C55.079,59.561 54.448,59.829 53.784,59.966C53.119,60.103 52.434,60.107 51.768,59.977C50.712,59.762 49.755,59.212 49.039,58.41C48.323,57.608 47.886,56.597 47.794,55.528C47.736,54.887 47.805,54.24 47.998,53.625C48.191,53.01 48.504,52.439 48.92,51.945L48.92,51.945C49.336,51.431 49.853,51.006 50.439,50.696C51.026,50.387 51.669,50.199 52.33,50.145L53.064,50.145C53.696,50.177 54.316,50.333 54.888,50.604C55.68,50.975 56.359,51.547 56.859,52.263C57.359,52.978 57.661,53.811 57.736,54.679C57.823,55.547 57.678,56.421 57.315,57.214C56.953,58.008 56.386,58.691 55.673,59.196L55.639,59.179ZM60.755,5.128C62.942,4.284 65.239,3.753 67.576,3.549C70.018,3.296 72.486,3.58 74.806,4.381C71.242,5.366 62.869,8.049 60.755,12.159C60.7,12.245 60.671,12.345 60.671,12.447C60.671,12.549 60.7,12.649 60.755,12.736C60.808,12.821 60.884,12.89 60.974,12.935C61.064,12.98 61.166,12.999 61.266,12.991C63.993,13.056 66.663,13.784 69.042,15.113C66.007,15.674 59.783,17.202 57.975,20.7C57.926,20.785 57.899,20.882 57.899,20.98C57.899,21.079 57.926,21.175 57.975,21.26C58.027,21.348 58.103,21.419 58.193,21.467C58.283,21.515 58.384,21.537 58.486,21.532C61.11,21.544 63.639,22.51 65.598,24.249C63.006,24.47 57.156,25.302 55.656,28.138C55.598,28.229 55.568,28.335 55.568,28.443C55.568,28.552 55.598,28.657 55.656,28.749C55.717,28.842 55.805,28.913 55.91,28.953C56.014,28.993 56.128,28.999 56.235,28.97C57.3,28.757 58.399,28.8 59.443,29.095C60.487,29.391 61.445,29.93 62.238,30.668C60.597,30.697 58.991,31.146 57.575,31.973C56.159,32.8 54.981,33.976 54.155,35.389C54.101,35.478 54.072,35.581 54.072,35.686C54.072,35.791 54.101,35.893 54.155,35.983C54.214,36.071 54.296,36.142 54.392,36.187C54.488,36.231 54.595,36.249 54.701,36.238C56.312,36.127 57.924,36.443 59.373,37.155C56.477,39.944 54.275,43.369 52.944,47.157C51.733,39.006 47.948,11.581 60.891,5.145L60.755,5.128ZM38.978,38.242C40.357,36.611 42.163,35.395 44.196,34.726C44.298,34.697 44.391,34.641 44.463,34.563C44.535,34.485 44.584,34.389 44.605,34.285C44.622,34.18 44.61,34.073 44.571,33.975C44.532,33.876 44.467,33.79 44.384,33.725C42.696,32.465 40.708,31.663 38.616,31.398C36.523,31.133 34.397,31.414 32.446,32.213C33.828,27.968 38.688,27.119 38.909,27.017C39.019,27.003 39.121,26.957 39.203,26.884C39.285,26.811 39.343,26.716 39.37,26.609C39.395,26.503 39.391,26.391 39.358,26.287C39.325,26.182 39.264,26.088 39.182,26.015C36.01,23.366 28.456,25.421 25.54,26.355C26.967,23.205 29.547,20.715 32.753,19.392C32.85,19.36 32.936,19.301 33.003,19.224C33.069,19.146 33.112,19.052 33.128,18.951C33.146,18.852 33.138,18.75 33.105,18.655C33.072,18.56 33.016,18.475 32.941,18.408C29.053,15.096 20.594,16.506 17.013,17.304C19.217,14.438 22.116,12.177 25.437,10.732C25.533,10.698 25.619,10.639 25.685,10.561C25.75,10.484 25.795,10.391 25.813,10.291C25.834,10.192 25.827,10.089 25.794,9.993C25.761,9.897 25.703,9.812 25.625,9.747C21.004,5.875 9.425,6.911 5.161,7.438C11.607,1.223 22.214,1.257 22.317,1.257C40.939,2.683 49.755,37.919 51.768,47.309C48.333,43.304 43.965,40.196 39.046,38.259L38.978,38.242ZM38.722,53.949C38.269,52.281 38.269,50.523 38.722,48.855C38.754,48.754 38.756,48.646 38.729,48.544C38.702,48.442 38.646,48.349 38.568,48.277C38.494,48.203 38.401,48.151 38.298,48.127C38.196,48.103 38.088,48.108 37.989,48.142C36.336,48.728 34.862,49.728 33.709,51.046C32.557,52.363 31.763,53.953 31.406,55.664C30.775,54.675 30.394,53.548 30.296,52.379C30.198,51.211 30.386,50.037 30.843,48.957C30.901,48.868 30.932,48.765 30.932,48.659C30.932,48.554 30.901,48.451 30.843,48.362C30.77,48.281 30.675,48.221 30.57,48.191C30.464,48.161 30.352,48.162 30.246,48.192C26.938,49.16 24.892,55.189 24.159,57.787C22.681,55.379 22.158,52.509 22.692,49.738C22.713,49.64 22.709,49.539 22.679,49.444C22.649,49.348 22.595,49.263 22.521,49.194C22.451,49.12 22.36,49.067 22.26,49.043C22.16,49.019 22.056,49.024 21.959,49.059C17.9,50.23 15.018,56.53 13.858,59.536C12.92,56.749 12.68,53.776 13.159,50.876C13.188,50.777 13.188,50.673 13.161,50.574C13.134,50.475 13.08,50.386 13.006,50.315C12.933,50.244 12.842,50.194 12.743,50.17C12.644,50.146 12.54,50.149 12.443,50.179C7.651,51.606 3.115,59.859 1.393,63.306C0.148,56.021 4.957,48.787 4.991,48.736C7.89,45 12.545,43.319 17.866,42.86C29.888,41.842 45.151,47.14 50.796,49.262C46.453,49.842 42.313,51.449 38.722,53.949ZM48.613,50.808L48.323,51.079L47.811,51.079L48.613,50.808ZM42.422,57.6C42.366,56.948 42.44,56.29 42.64,55.666C42.839,55.042 43.161,54.464 43.585,53.964C44.01,53.464 44.529,53.052 45.114,52.752C45.699,52.452 46.337,52.271 46.993,52.217L47.504,52.217L47.504,52.302C47.504,52.387 47.419,52.489 47.368,52.574C47.251,52.805 47.149,53.043 47.061,53.287L46.959,53.643C46.89,53.883 46.838,54.127 46.805,54.374L46.805,54.696C46.771,55.063 46.771,55.433 46.805,55.8C46.831,56.109 46.883,56.416 46.959,56.717C46.959,56.819 46.959,56.921 47.044,57.023L47.248,57.6L47.402,57.923C47.483,58.092 47.574,58.257 47.675,58.415L47.879,58.738C47.978,58.886 48.086,59.028 48.203,59.162L48.459,59.451C48.581,59.59 48.712,59.72 48.851,59.842L49.141,60.079C49.288,60.202 49.441,60.315 49.602,60.419L49.892,60.606C50.137,60.745 50.394,60.864 50.659,60.962L50.659,60.962C49.871,61.629 48.893,62.033 47.862,62.117C47.194,62.18 46.52,62.108 45.88,61.907C45.24,61.705 44.647,61.378 44.137,60.944C43.626,60.51 43.208,59.978 42.908,59.381C42.608,58.783 42.431,58.131 42.388,57.464L42.422,57.6ZM92.132,132.81C92.568,133.911 92.74,135.097 92.637,136.276C92.533,137.454 92.156,138.593 91.535,139.602C89.302,143.474 82.548,148.449 63.108,150.113C39.233,152.134 32.702,146.225 30.912,142.506C30.311,141.347 30.033,140.05 30.105,138.748C30.177,137.447 30.597,136.188 31.321,135.102C32.323,133.968 33.15,132.691 33.777,131.315C35.482,127.919 37.272,124.421 48.8,120.838C48.579,121.704 48.34,122.536 48.101,123.453C47.82,124.474 47.844,125.555 48.171,126.563C48.499,127.57 49.114,128.461 49.943,129.125C51.647,130.478 53.603,131.483 55.698,132.084C57.793,132.684 59.987,132.867 62.153,132.623C63.478,132.51 64.783,132.237 66.041,131.808C67.973,131.202 69.689,130.056 70.983,128.505C72.277,126.954 73.096,125.064 73.34,123.062L73.34,122.944C73.34,122.587 73.186,120.821 72.913,118.087C77.07,118.758 80.996,120.441 84.342,122.985C87.689,125.53 90.353,128.858 92.098,132.674L92.132,132.81ZM63.381,54.357C63.437,55.008 63.364,55.664 63.165,56.287C62.967,56.91 62.647,57.488 62.224,57.987C61.801,58.487 61.284,58.899 60.701,59.2C60.118,59.501 59.482,59.684 58.828,59.74C58.256,59.795 57.678,59.749 57.122,59.604C57.225,59.519 57.293,59.417 57.395,59.315L57.532,59.162C57.685,58.976 57.838,58.772 57.975,58.568C58.094,58.381 58.197,58.177 58.299,57.991L58.401,57.77C58.401,57.617 58.521,57.464 58.572,57.294C58.623,57.125 58.572,57.125 58.657,57.04C58.707,56.884 58.747,56.725 58.776,56.564L58.776,56.31L58.776,55.8C58.784,55.721 58.784,55.641 58.776,55.562C58.793,55.308 58.793,55.053 58.776,54.798C58.776,54.543 58.776,54.306 58.657,54.051C58.538,53.796 58.657,53.898 58.657,53.813C58.657,53.728 58.572,53.491 58.521,53.338L58.418,53.066C58.363,52.922 58.3,52.78 58.231,52.642C58.192,52.553 58.146,52.468 58.094,52.387C58.094,52.251 57.941,52.115 57.856,51.979L57.702,51.759C57.597,51.6 57.478,51.452 57.344,51.317L57.242,51.181C57.08,51.009 56.909,50.844 56.73,50.689L56.525,50.536L56.235,50.298C56.744,50.077 57.285,49.939 57.838,49.891C59.144,49.747 60.454,50.12 61.484,50.931C62.515,51.741 63.184,52.923 63.347,54.221L63.381,54.357ZM94.997,33.979C94.897,33.988 94.8,34.023 94.717,34.079C94.633,34.136 94.565,34.212 94.52,34.302C94.47,34.39 94.445,34.49 94.445,34.591C94.445,34.692 94.47,34.791 94.52,34.879C96.226,37.711 97.198,40.92 97.351,44.219C95.014,41.672 89.455,36.238 84.782,36.645C84.683,36.652 84.588,36.686 84.507,36.743C84.426,36.8 84.362,36.878 84.322,36.968C84.273,37.056 84.247,37.156 84.247,37.257C84.247,37.358 84.273,37.457 84.322,37.545C85.996,40.229 86.604,43.439 86.027,46.545C84.322,44.236 79.684,38.751 75.881,39.091C75.77,39.095 75.663,39.134 75.575,39.201C75.486,39.267 75.421,39.359 75.386,39.464C75.344,39.565 75.335,39.677 75.359,39.783C75.384,39.889 75.441,39.986 75.523,40.059C76.447,41 77.124,42.155 77.493,43.42C77.862,44.685 77.912,46.021 77.637,47.309C76.578,45.699 75.122,44.385 73.409,43.493C71.696,42.602 69.781,42.162 67.849,42.215C67.741,42.222 67.637,42.257 67.547,42.317C67.457,42.376 67.385,42.458 67.337,42.555C67.295,42.652 67.281,42.759 67.296,42.864C67.311,42.969 67.355,43.067 67.422,43.149C68.59,44.715 69.299,46.572 69.469,48.515C66.293,47.727 63.008,47.474 59.748,47.768C58.169,47.913 56.602,48.168 55.059,48.532C61.88,42.334 87.204,20.632 101.938,29.411C102.023,29.411 110.021,35.032 111.607,43.115C108.64,40.228 100.505,33.419 94.997,33.894L94.997,33.979Z" fill="#999999"/>
<path d="M200.673,38.982C184.882,29.591 158.841,52.21 152.225,58.374C153.56,54.465 155.872,50.959 158.944,48.186C159.016,48.129 159.073,48.057 159.112,47.974C159.15,47.892 159.169,47.801 159.165,47.71C159.166,47.622 159.144,47.536 159.102,47.459C159.061,47.382 159,47.317 158.927,47.269C157.464,46.284 155.747,45.741 153.981,45.706C154.89,44.592 156.057,43.714 157.382,43.149C158.707,42.584 160.15,42.349 161.587,42.463C161.693,42.478 161.801,42.463 161.898,42.417C161.995,42.372 162.077,42.299 162.133,42.208C162.187,42.115 162.215,42.01 162.215,41.903C162.215,41.795 162.187,41.69 162.133,41.597C161.436,40.547 160.472,39.698 159.341,39.138C158.209,38.577 156.948,38.324 155.687,38.404C157.921,36.706 162.985,36.095 165.032,36.027C165.141,36.026 165.247,35.993 165.338,35.933C165.429,35.873 165.5,35.787 165.543,35.687C165.585,35.59 165.599,35.483 165.584,35.378C165.569,35.274 165.526,35.175 165.458,35.093C163.483,32.806 160.684,31.385 157.665,31.136C160.496,27.74 168.886,26.721 168.971,26.704C169.091,26.695 169.204,26.647 169.294,26.567C169.383,26.487 169.443,26.38 169.466,26.263C169.494,26.197 169.508,26.126 169.509,26.055C169.51,25.984 169.496,25.913 169.469,25.846C169.442,25.78 169.403,25.72 169.352,25.669C169.302,25.618 169.242,25.577 169.176,25.55C166.514,23.862 163.497,22.81 160.359,22.476C163.77,18.265 174.616,15.684 174.735,15.684C174.851,15.657 174.955,15.595 175.035,15.507C175.114,15.419 175.164,15.309 175.178,15.191C175.192,15.075 175.17,14.958 175.115,14.855C175.06,14.752 174.975,14.668 174.871,14.614C167.607,10.844 158.739,14.512 158.33,14.614C148.098,19.708 147.638,36.604 148.712,48.304C144.687,34.091 135.939,11.829 120.472,10.657C119.96,10.657 107.904,10.657 101.287,18.418C101.22,18.512 101.184,18.625 101.184,18.74C101.184,18.856 101.22,18.968 101.287,19.063C101.347,19.164 101.435,19.246 101.541,19.297C101.648,19.349 101.767,19.368 101.884,19.352C102.037,19.352 116.447,17.025 122.348,20.591C118.748,22.45 115.653,25.147 113.327,28.453C113.257,28.553 113.22,28.672 113.22,28.793C113.22,28.915 113.257,29.033 113.327,29.133C113.396,29.23 113.494,29.303 113.607,29.343C113.72,29.382 113.842,29.386 113.958,29.353C114.077,29.353 124.769,26.382 129.681,29.269C127.951,30.103 126.407,31.274 125.139,32.712C123.871,34.149 122.905,35.825 122.297,37.64C122.261,37.743 122.257,37.855 122.284,37.96C122.312,38.066 122.369,38.161 122.45,38.235C122.526,38.311 122.624,38.363 122.73,38.385C122.837,38.406 122.947,38.395 123.047,38.353C125.588,37.419 132.204,35.569 135.615,36.825C134.045,37.28 132.629,38.153 131.52,39.35C130.411,40.547 129.651,42.022 129.322,43.618C129.306,43.724 129.319,43.833 129.362,43.932C129.404,44.031 129.473,44.116 129.561,44.178C129.655,44.232 129.76,44.26 129.868,44.26C129.976,44.26 130.082,44.232 130.175,44.178C131.862,43.313 133.741,42.888 135.638,42.941C137.534,42.995 139.386,43.525 141.021,44.484C138.892,45.342 137.069,46.815 135.786,48.712C135.744,48.79 135.722,48.878 135.722,48.967C135.722,49.055 135.744,49.143 135.786,49.221C135.817,49.305 135.867,49.381 135.932,49.442C135.997,49.504 136.075,49.55 136.161,49.578C141.18,51.371 145.646,54.431 149.121,58.459C140.697,55.216 112.116,45.452 102.089,58.459C101.85,58.816 96.205,67.289 98.678,75.593C98.712,75.704 98.779,75.803 98.87,75.876C98.962,75.948 99.073,75.992 99.19,76.001L99.275,76.001C99.377,75.99 99.475,75.953 99.558,75.893C99.642,75.834 99.709,75.754 99.752,75.661C99.752,75.542 104.732,64.606 109.882,62.076C109.575,65.426 110.065,68.8 111.314,71.925C111.354,72.037 111.428,72.133 111.526,72.2C111.624,72.267 111.741,72.302 111.86,72.299C111.983,72.297 112.101,72.257 112.199,72.183C112.297,72.11 112.37,72.008 112.406,71.891C112.406,71.806 115.219,63.18 119.415,60.955C119.228,62.544 119.358,64.154 119.797,65.692C120.235,67.231 120.975,68.668 121.973,69.921C122.041,70.005 122.132,70.067 122.235,70.1C122.338,70.133 122.448,70.136 122.552,70.108C122.657,70.087 122.754,70.035 122.83,69.96C122.906,69.884 122.957,69.788 122.979,69.684C123.473,67.544 125.127,62.28 127.464,60.344C127.107,61.647 127.106,63.022 127.459,64.326C127.813,65.63 128.509,66.817 129.476,67.765C129.556,67.836 129.653,67.885 129.758,67.906C129.863,67.927 129.972,67.919 130.073,67.884C130.175,67.844 130.264,67.777 130.33,67.69C130.396,67.603 130.437,67.5 130.448,67.391C130.628,65.857 131.179,64.388 132.056,63.113C132.932,61.838 134.107,60.795 135.479,60.072C135.139,61.927 135.352,63.839 136.093,65.574C136.127,65.656 136.18,65.728 136.249,65.784C136.317,65.84 136.398,65.879 136.485,65.897C136.571,65.916 136.66,65.915 136.746,65.894C136.832,65.874 136.911,65.834 136.979,65.778C138.327,64.726 139.799,63.842 141.362,63.146C140.679,63.773 140.149,64.548 139.812,65.41C139.475,66.272 139.34,67.199 139.418,68.121C139.557,69.74 140.335,71.238 141.582,72.285C142.829,73.333 144.443,73.845 146.069,73.708C147.405,73.591 148.665,73.036 149.65,72.129C151.099,75.899 156.642,93.967 147.262,129.865C134.609,133.652 132.597,137.625 130.84,141.14C130.271,142.418 129.512,143.602 128.589,144.655C127.698,145.91 127.17,147.386 127.065,148.919C126.96,150.453 127.281,151.986 127.992,153.35C130.329,158.206 138.02,163.538 161.314,161.586C177.344,160.227 187.218,156.491 190.663,150.48C191.362,149.329 191.781,148.031 191.888,146.689C191.995,145.348 191.785,144 191.277,142.754C187.866,134.637 179.135,128.065 170.813,127.267C169.483,114.174 165.407,83.489 155.755,71.229C156.163,71.271 156.575,71.271 156.983,71.229C158.61,71.086 160.114,70.308 161.165,69.063C162.217,67.819 162.73,66.21 162.593,64.589C162.487,63.371 162.016,62.213 161.24,61.265C160.465,60.318 159.421,59.624 158.245,59.274C161.53,58.99 164.839,59.295 168.016,60.174C168.093,60.212 168.178,60.231 168.263,60.231C168.349,60.231 168.434,60.212 168.511,60.174C168.586,60.127 168.649,60.062 168.694,59.985C168.738,59.908 168.763,59.822 168.766,59.733C168.809,57.621 168.215,55.545 167.061,53.772C168.794,53.935 170.459,54.525 171.906,55.488C173.353,56.452 174.536,57.759 175.349,59.291C175.396,59.387 175.469,59.467 175.559,59.524C175.649,59.581 175.754,59.612 175.861,59.614C175.967,59.612 176.072,59.581 176.162,59.524C176.252,59.467 176.325,59.387 176.372,59.291C176.991,57.917 177.223,56.4 177.042,54.905C176.862,53.409 176.277,51.99 175.349,50.801C178.555,51.735 182.511,56.574 183.875,58.612C183.934,58.696 184.014,58.764 184.106,58.809C184.199,58.853 184.301,58.873 184.404,58.867L184.404,58.867C184.512,58.851 184.614,58.804 184.695,58.731C184.777,58.659 184.836,58.564 184.865,58.459C185.37,56.775 185.536,55.008 185.355,53.26C185.174,51.512 184.648,49.816 183.807,48.27C189.043,48.78 195.489,56.608 195.557,56.761C195.633,56.854 195.736,56.921 195.852,56.954C195.967,56.988 196.091,56.985 196.205,56.948C196.322,56.91 196.422,56.834 196.49,56.732C196.558,56.631 196.59,56.509 196.58,56.387C196.594,52.664 195.718,48.991 194.022,45.672C200.349,46.148 209.95,55.487 210.052,55.589C210.136,55.672 210.243,55.726 210.36,55.744C210.476,55.762 210.595,55.744 210.7,55.691C210.806,55.643 210.893,55.563 210.951,55.462C211.009,55.362 211.035,55.246 211.024,55.131C210.291,45.672 201.099,39.27 200.673,38.982ZM170.165,133.414C169.942,135.198 169.207,136.881 168.049,138.26C166.89,139.639 165.357,140.657 163.633,141.191C158.79,142.889 151.952,141.769 148.712,138.746C148.052,138.212 147.559,137.502 147.29,136.699C147.021,135.896 146.988,135.033 147.194,134.212L147.603,132.718C151.798,134.27 156.265,134.957 160.734,134.738C164.215,134.599 167.508,133.127 169.926,130.629C170.079,132.174 170.148,133.159 170.165,133.414L170.165,133.414ZM169.773,128.999C163.923,136.827 150.571,132.565 147.893,131.597C148.678,128.71 149.366,125.937 149.957,123.276C152.971,125.129 156.509,125.952 160.035,125.62C163.231,125.282 166.315,124.256 169.073,122.614C169.363,125.093 169.602,127.267 169.773,128.999ZM168.92,121.374C158.688,127.488 151.662,123.072 150.161,122.071C150.741,119.404 151.219,116.857 151.645,114.429C154.395,115.313 157.291,115.653 160.172,115.431C162.806,115.223 165.362,114.44 167.658,113.138C168.221,116.076 168.596,118.946 168.92,121.374ZM151.867,113.274C152.293,110.727 152.634,108.282 152.89,105.989C155.146,106.811 157.556,107.13 159.95,106.923C162.186,106.735 164.356,106.068 166.311,104.97C166.771,107.331 167.163,109.657 167.522,111.916C165.156,113.212 162.545,114.002 159.855,114.236C157.165,114.47 154.456,114.142 151.901,113.274L151.867,113.274ZM153.009,104.784C153.231,102.61 153.402,100.538 153.504,98.586C155.43,99.223 157.466,99.465 159.489,99.299C161.362,99.133 163.174,98.553 164.793,97.601C165.253,99.621 165.697,101.676 166.089,103.697C164.133,104.834 161.948,105.523 159.691,105.714C157.435,105.905 155.164,105.593 153.043,104.801L153.009,104.784ZM153.572,97.38C153.572,95.563 153.674,93.848 153.657,92.286C154.917,92.514 156.201,92.577 157.477,92.472C159.446,92.34 161.338,91.657 162.934,90.503C163.497,92.472 164.026,94.493 164.503,96.531C162.859,97.454 161.032,98.009 159.15,98.159C157.269,98.308 155.377,98.048 153.606,97.397L153.572,97.38ZM153.657,91.046C153.657,89.025 153.521,87.174 153.367,85.476C154.284,85.683 155.228,85.746 156.164,85.663C157.854,85.511 159.476,84.926 160.871,83.965C161.468,85.663 162.047,87.361 162.576,89.212C161.307,90.122 159.861,90.756 158.331,91.075C156.8,91.394 155.22,91.39 153.691,91.063L153.657,91.046ZM153.265,84.254C153.117,82.827 152.947,81.52 152.753,80.331C153.292,80.383 153.835,80.383 154.374,80.331C155.948,80.221 157.45,79.628 158.671,78.633C159.302,79.974 159.882,81.401 160.462,82.878C159.454,83.64 158.285,84.162 157.043,84.403C155.801,84.645 154.52,84.599 153.299,84.27L153.265,84.254ZM152.566,79.159C152.31,77.801 152.054,76.629 151.799,75.627C152.15,75.661 152.504,75.661 152.856,75.627C154.143,75.539 155.354,74.99 156.266,74.082C156.978,75.176 157.627,76.31 158.211,77.478C157.461,78.159 156.568,78.664 155.598,78.958C154.627,79.252 153.603,79.326 152.6,79.176L152.566,79.159ZM151.457,74.404C151.133,73.284 150.844,72.452 150.622,71.874L151.355,71.874C152.26,71.791 153.134,71.507 153.913,71.042C154.521,71.693 155.091,72.379 155.618,73.097C155.109,73.661 154.459,74.08 153.734,74.313C153.009,74.546 152.236,74.583 151.492,74.421L151.457,74.404ZM153.691,69.836C153.132,70.219 152.501,70.486 151.836,70.623C151.172,70.76 150.486,70.764 149.82,70.635C148.765,70.419 147.808,69.869 147.092,69.067C146.376,68.265 145.939,67.255 145.847,66.186C145.788,65.544 145.858,64.897 146.051,64.282C146.244,63.667 146.557,63.097 146.972,62.603L146.972,62.603C147.389,62.088 147.906,61.663 148.492,61.354C149.078,61.044 149.722,60.857 150.383,60.803L151.116,60.803C151.749,60.834 152.369,60.99 152.941,61.261C153.733,61.633 154.412,62.205 154.912,62.92C155.412,63.635 155.714,64.468 155.789,65.336C155.876,66.204 155.73,67.078 155.368,67.872C155.006,68.665 154.439,69.349 153.726,69.853L153.691,69.836ZM158.807,15.786C160.995,14.941 163.291,14.41 165.629,14.206C168.071,13.954 170.539,14.238 172.859,15.038C169.295,16.023 160.922,18.706 158.807,22.816C158.753,22.902 158.724,23.002 158.724,23.104C158.724,23.207 158.753,23.307 158.807,23.393C158.861,23.479 158.937,23.548 159.027,23.593C159.117,23.637 159.218,23.657 159.319,23.648C162.046,23.713 164.716,24.442 167.095,25.77C164.06,26.331 157.835,27.859 156.028,31.357C155.978,31.442 155.952,31.539 155.952,31.637C155.952,31.736 155.978,31.832 156.028,31.918C156.08,32.005 156.156,32.076 156.246,32.124C156.336,32.172 156.437,32.195 156.539,32.189C159.163,32.201 161.692,33.168 163.65,34.906C161.058,35.127 155.209,35.959 153.708,38.795C153.651,38.887 153.621,38.993 153.621,39.101C153.621,39.209 153.651,39.315 153.708,39.406C153.769,39.499 153.858,39.571 153.962,39.61C154.067,39.65 154.181,39.656 154.288,39.627C155.352,39.414 156.452,39.457 157.496,39.753C158.54,40.048 159.498,40.587 160.291,41.325C158.65,41.354 157.044,41.803 155.628,42.63C154.212,43.457 153.034,44.634 152.208,46.046C152.154,46.136 152.125,46.238 152.125,46.343C152.125,46.448 152.154,46.551 152.208,46.64C152.267,46.728 152.349,46.799 152.445,46.844C152.541,46.889 152.648,46.906 152.753,46.895C154.365,46.784 155.977,47.1 157.426,47.812C154.53,50.601 152.328,54.027 150.997,57.814C149.786,49.663 146,22.238 158.944,15.803L158.807,15.786ZM137.03,48.899C138.41,47.269 140.216,46.052 142.249,45.384C142.351,45.355 142.443,45.298 142.516,45.22C142.588,45.142 142.637,45.046 142.658,44.942C142.675,44.838 142.663,44.73 142.624,44.632C142.585,44.533 142.52,44.447 142.436,44.382C140.749,43.122 138.761,42.32 136.668,42.055C134.576,41.79 132.45,42.071 130.499,42.87C131.88,38.625 136.741,37.776 136.962,37.674C137.071,37.66 137.174,37.614 137.256,37.541C137.338,37.469 137.396,37.373 137.423,37.267C137.448,37.16 137.444,37.048 137.411,36.944C137.378,36.839 137.317,36.746 137.235,36.672C134.063,34.023 126.509,36.078 123.593,37.012C125.02,33.862 127.6,31.372 130.806,30.05C130.903,30.017 130.989,29.959 131.055,29.881C131.121,29.803 131.165,29.709 131.181,29.608C131.199,29.509 131.191,29.407 131.158,29.312C131.125,29.217 131.069,29.132 130.994,29.065C127.106,25.753 118.647,27.163 115.066,27.961C117.27,25.095 120.169,22.834 123.49,21.389C123.586,21.355 123.672,21.296 123.737,21.219C123.803,21.141 123.847,21.048 123.865,20.948C123.886,20.849 123.88,20.746 123.847,20.65C123.814,20.555 123.756,20.47 123.678,20.404C119.057,16.533 107.477,17.569 103.214,18.095C109.66,11.88 120.267,11.914 120.37,11.914C138.992,13.34 147.808,48.576 149.82,57.967C146.385,53.961 142.018,50.853 137.099,48.916L137.03,48.899ZM136.775,64.606C136.322,62.938 136.322,61.18 136.775,59.512C136.806,59.411 136.809,59.303 136.782,59.201C136.754,59.099 136.699,59.007 136.621,58.935C136.547,58.86 136.453,58.808 136.351,58.784C136.248,58.76 136.141,58.765 136.041,58.799C134.389,59.385 132.915,60.385 131.762,61.703C130.609,63.02 129.816,64.611 129.459,66.321C128.828,65.332 128.447,64.205 128.349,63.037C128.251,61.868 128.438,60.694 128.896,59.614C128.954,59.525 128.985,59.422 128.985,59.317C128.985,59.211 128.954,59.108 128.896,59.019C128.823,58.938 128.728,58.878 128.622,58.848C128.517,58.818 128.405,58.819 128.299,58.85C124.991,59.818 122.945,65.846 122.211,68.444C120.734,66.036 120.211,63.166 120.745,60.395C120.766,60.297 120.761,60.196 120.731,60.101C120.702,60.006 120.647,59.92 120.574,59.852C120.504,59.777 120.413,59.724 120.313,59.7C120.213,59.676 120.108,59.681 120.011,59.716C115.953,60.887 113.071,67.187 111.911,70.193C110.973,67.406 110.733,64.433 111.212,61.533C111.24,61.434 111.241,61.33 111.214,61.231C111.187,61.132 111.133,61.043 111.059,60.972C110.986,60.901 110.895,60.851 110.796,60.827C110.697,60.803 110.593,60.806 110.496,60.836C105.704,62.263 101.168,70.516 99.445,73.963C98.2,66.678 103.009,59.444 103.043,59.393C105.943,55.657 110.598,53.976 115.919,53.518C127.941,52.499 143.204,57.797 148.848,59.919C144.506,60.499 140.366,62.107 136.775,64.606ZM146.666,61.465L146.376,61.736L145.864,61.736L146.666,61.465ZM140.475,68.257C140.419,67.605 140.493,66.948 140.693,66.324C140.892,65.7 141.213,65.121 141.638,64.621C142.063,64.121 142.582,63.709 143.167,63.409C143.752,63.11 144.39,62.928 145.045,62.874L145.557,62.874L145.557,62.959C145.557,63.044 145.472,63.146 145.421,63.231C145.304,63.462 145.202,63.7 145.114,63.944L145.011,64.301C144.942,64.54 144.891,64.784 144.858,65.031L144.858,65.353C144.824,65.721 144.824,66.09 144.858,66.457C144.884,66.767 144.935,67.073 145.011,67.374C145.011,67.476 145.011,67.578 145.097,67.68L145.301,68.257L145.455,68.58C145.535,68.749 145.627,68.914 145.728,69.072L145.932,69.395C146.031,69.544 146.139,69.685 146.256,69.82L146.512,70.108C146.634,70.247 146.765,70.377 146.904,70.499L147.194,70.736C147.34,70.859 147.494,70.973 147.655,71.076L147.944,71.263C148.19,71.402 148.447,71.521 148.712,71.62L148.712,71.62C147.924,72.286 146.946,72.69 145.915,72.774C145.247,72.837 144.573,72.765 143.933,72.564C143.293,72.362 142.7,72.035 142.19,71.601C141.679,71.167 141.261,70.636 140.961,70.038C140.661,69.44 140.484,68.788 140.441,68.121L140.475,68.257ZM190.185,143.467C190.621,144.568 190.793,145.754 190.69,146.933C190.586,148.112 190.209,149.25 189.588,150.259C187.354,154.131 180.601,159.106 161.161,160.771C137.286,162.791 130.755,156.882 128.964,153.163C128.364,152.004 128.086,150.707 128.158,149.406C128.23,148.104 128.649,146.845 129.374,145.759C130.376,144.625 131.203,143.349 131.829,141.972C133.535,138.576 135.325,135.078 146.853,131.495C146.631,132.361 146.393,133.193 146.154,134.11C145.873,135.131 145.897,136.212 146.224,137.22C146.551,138.228 147.167,139.118 147.996,139.782C149.7,141.135 151.656,142.141 153.751,142.741C155.846,143.341 158.039,143.524 160.206,143.28C161.53,143.168 162.836,142.894 164.094,142.465C166.026,141.86 167.741,140.713 169.036,139.162C170.33,137.611 171.148,135.722 171.393,133.72L171.393,133.601C171.393,133.244 171.239,131.478 170.966,128.744C175.123,129.415 179.048,131.098 182.395,133.642C185.742,136.187 188.406,139.515 190.151,143.331L190.185,143.467ZM161.434,65.014C161.49,65.665 161.416,66.321 161.218,66.944C161.02,67.567 160.7,68.145 160.277,68.645C159.854,69.145 159.336,69.557 158.754,69.857C158.171,70.158 157.534,70.341 156.88,70.397C156.308,70.452 155.731,70.406 155.175,70.261C155.277,70.176 155.346,70.074 155.448,69.972L155.584,69.82C155.738,69.633 155.891,69.429 156.028,69.225C156.147,69.038 156.249,68.835 156.352,68.648L156.454,68.427C156.454,68.274 156.573,68.121 156.625,67.952C156.676,67.782 156.625,67.782 156.71,67.697C156.76,67.541 156.799,67.382 156.829,67.221L156.829,66.967L156.829,66.457C156.837,66.378 156.837,66.299 156.829,66.22C156.846,65.965 156.846,65.71 156.829,65.455C156.829,65.201 156.829,64.963 156.71,64.708C156.59,64.453 156.71,64.555 156.71,64.47C156.71,64.386 156.625,64.148 156.573,63.995L156.471,63.723C156.416,63.579 156.353,63.437 156.283,63.299C156.245,63.21 156.199,63.125 156.147,63.044C156.147,62.908 155.994,62.772 155.908,62.636L155.755,62.416C155.65,62.257 155.53,62.109 155.397,61.974L155.294,61.838C155.132,61.666 154.962,61.501 154.783,61.346L154.578,61.193L154.288,60.955C154.797,60.734 155.338,60.596 155.891,60.548C157.197,60.404 158.506,60.778 159.537,61.588C160.568,62.398 161.237,63.58 161.399,64.878L161.434,65.014ZM193.05,44.636C192.95,44.646 192.853,44.68 192.77,44.737C192.686,44.793 192.618,44.87 192.573,44.959C192.523,45.047 192.497,45.147 192.497,45.248C192.497,45.349 192.523,45.448 192.573,45.536C194.278,48.368 195.251,51.577 195.403,54.876C193.067,52.329 187.508,46.895 182.835,47.303C182.736,47.31 182.641,47.343 182.56,47.4C182.479,47.457 182.415,47.535 182.375,47.625C182.325,47.713 182.3,47.813 182.3,47.914C182.3,48.015 182.325,48.114 182.375,48.203C184.049,50.886 184.657,54.096 184.08,57.203C182.375,54.893 177.736,49.408 173.933,49.748C173.823,49.753 173.716,49.791 173.628,49.858C173.539,49.925 173.473,50.016 173.439,50.121C173.397,50.222 173.387,50.334 173.412,50.44C173.436,50.547 173.493,50.643 173.575,50.716C174.5,51.658 175.177,52.812 175.546,54.077C175.915,55.342 175.964,56.678 175.69,57.967C174.631,56.356 173.175,55.042 171.462,54.15C169.748,53.259 167.834,52.819 165.901,52.872C165.794,52.879 165.69,52.914 165.6,52.974C165.51,53.033 165.438,53.116 165.39,53.212C165.348,53.309 165.334,53.416 165.349,53.521C165.364,53.626 165.408,53.725 165.475,53.806C166.643,55.372 167.352,57.229 167.522,59.172C164.346,58.384 161.06,58.132 157.801,58.425C156.222,58.57 154.655,58.826 153.112,59.189C159.933,52.991 185.257,31.289 199.991,40.069C200.076,40.069 208.074,45.689 209.66,53.772C206.693,50.886 198.558,44.076 193.05,44.552L193.05,44.636Z" fill="#999999"/>
</svg>
