<svg width="338" height="378" viewBox="0 0 338 378" fill="none" xmlns="http://www.w3.org/2000/svg" xmlns:xlink="http://www.w3.org/1999/xlink">
<path d="M74.38,208.26L80.02,210.7L102.56,194.98L108.56,198.3C113.38,201.18 118.06,201.38 120.3,200.1L120.76,200.32C124.24,201.84 126.3,200.48 127,198.84C127.7,197.2 127.3,194.84 123.82,193.28L123.36,193.08C122.94,191.08 121.12,187.72 114.02,185.74L107.48,183.64L103.48,156.46L97.84,154L93.46,179.18L77.34,173.66L74.9,167.2L70.42,165.54L70.1,171.54L68.5,171.4L67.04,174.74L68.24,175.92L64,180.32L68.28,182.46L74.64,179.82L89.7,187.82L74.38,208.26ZM74.8,178.36L68.4,181.02L66.4,179.98L70.28,175.98L68.82,174.5L69.5,172.92L71.5,173.1L71.8,167.5L73.98,168.3L76.42,174.78L94.66,181L99,155.98L102.38,157.44L106.28,184.72L113.66,187.08C120.54,188.98 121.9,192.06 122.1,193.72L122.1,194.14L122.5,194.28C122.754,194.352 123.002,194.446 123.24,194.56C125.38,195.48 126.34,196.94 125.72,198.34C125.1,199.74 123.4,200.06 121.26,199.12C121.019,199.023 120.785,198.909 120.56,198.78L120.18,198.56L119.82,198.82C118.36,199.9 114.1,200.1 109.18,197.18L102.46,193.42L79.86,209.2L76.48,207.74L91.8,187.46L74.8,178.36Z" transform="rotate(360 95.644 182.35)" fill="#999999"/>
<path d="M183.799,376.119C183.69,376.121 183.583,376.093 183.488,376.041C183.394,375.989 183.314,375.911 183.259,375.819C182.539,374.725 181.872,373.625 181.259,372.519C181.168,372.373 181.138,372.197 181.175,372.029C181.213,371.861 181.314,371.713 181.459,371.619C181.607,371.531 181.785,371.503 181.954,371.545C182.122,371.585 182.268,371.691 182.359,371.839C183.039,372.939 183.719,374.019 184.359,375.119C184.407,375.189 184.441,375.269 184.458,375.353C184.475,375.437 184.475,375.523 184.459,375.607C184.442,375.691 184.408,375.771 184.36,375.841C184.312,375.913 184.25,375.973 184.179,376.019C184.062,376.083 183.931,376.117 183.799,376.119L183.799,376.119ZM179.799,369.479C179.686,369.479 179.575,369.449 179.477,369.393C179.379,369.337 179.297,369.255 179.239,369.159C178.599,368.019 177.959,366.879 177.239,365.739C177.158,365.589 177.137,365.415 177.182,365.251C177.227,365.087 177.333,364.947 177.479,364.859C177.63,364.779 177.807,364.763 177.971,364.811C178.135,364.859 178.274,364.969 178.359,365.119C178.979,366.259 179.619,367.379 180.259,368.499C180.347,368.647 180.374,368.825 180.333,368.995C180.292,369.163 180.186,369.307 180.039,369.399C179.934,369.455 179.817,369.483 179.699,369.479L179.799,369.479ZM176.079,362.639C175.958,362.637 175.841,362.603 175.738,362.539C175.636,362.477 175.553,362.387 175.498,362.279C174.898,361.119 174.318,359.939 173.758,358.779C173.721,358.703 173.699,358.621 173.694,358.535C173.689,358.451 173.701,358.367 173.729,358.287C173.757,358.207 173.8,358.133 173.857,358.069C173.913,358.007 173.982,357.955 174.058,357.919C174.135,357.881 174.217,357.859 174.302,357.855C174.386,357.849 174.471,357.861 174.551,357.889C174.631,357.917 174.705,357.961 174.768,358.017C174.831,358.073 174.882,358.143 174.918,358.219C175.478,359.379 176.058,360.539 176.658,361.699C176.696,361.775 176.718,361.857 176.723,361.943C176.728,362.027 176.716,362.111 176.688,362.191C176.66,362.271 176.617,362.345 176.56,362.409C176.504,362.471 176.435,362.523 176.359,362.559C176.305,362.599 176.243,362.627 176.177,362.641C176.112,362.655 176.044,362.655 175.979,362.639L176.079,362.639ZM172.699,355.599C172.573,355.597 172.451,355.561 172.345,355.494C172.239,355.426 172.154,355.331 172.099,355.219L170.538,351.639C170.472,351.477 170.473,351.296 170.541,351.135C170.608,350.973 170.737,350.845 170.898,350.779C171.058,350.719 171.234,350.723 171.391,350.79C171.547,350.857 171.672,350.982 171.739,351.139C172.239,352.319 172.758,353.499 173.278,354.699C173.315,354.775 173.335,354.857 173.339,354.941C173.342,355.025 173.329,355.109 173.299,355.188C173.269,355.266 173.223,355.338 173.165,355.398C173.106,355.459 173.036,355.507 172.959,355.539C172.847,355.595 172.722,355.616 172.599,355.599L172.699,355.599ZM169.678,348.419C169.55,348.418 169.426,348.379 169.319,348.308C169.212,348.237 169.129,348.137 169.079,348.019C168.599,346.779 168.138,345.559 167.678,344.339C167.65,344.259 167.638,344.174 167.643,344.089C167.648,344.004 167.669,343.922 167.707,343.845C167.744,343.769 167.796,343.701 167.86,343.645C167.924,343.589 167.998,343.546 168.079,343.519C168.238,343.466 168.411,343.476 168.564,343.547C168.716,343.617 168.836,343.743 168.898,343.899C169.338,345.119 169.798,346.319 170.278,347.539C170.338,347.698 170.334,347.875 170.267,348.031C170.2,348.188 170.075,348.312 169.918,348.379L169.678,348.419ZM166.998,341.099C166.865,341.097 166.736,341.054 166.628,340.975C166.52,340.896 166.44,340.786 166.398,340.659C165.958,339.419 165.558,338.179 165.178,336.939C165.128,336.775 165.143,336.597 165.222,336.444C165.3,336.29 165.435,336.174 165.599,336.119C165.763,336.068 165.941,336.084 166.094,336.162C166.247,336.241 166.364,336.376 166.418,336.539C166.798,337.779 167.198,338.999 167.618,340.239C167.669,340.403 167.654,340.581 167.575,340.734C167.497,340.888 167.362,341.004 167.199,341.059L166.998,341.099ZM164.678,333.659C164.537,333.656 164.401,333.607 164.289,333.521C164.178,333.435 164.097,333.315 164.058,333.179C163.698,331.919 163.338,330.659 163.018,329.419C162.975,329.252 162.999,329.075 163.085,328.925C163.171,328.776 163.313,328.666 163.479,328.619C163.56,328.598 163.645,328.593 163.728,328.605C163.811,328.617 163.891,328.645 163.964,328.687C164.036,328.73 164.1,328.787 164.15,328.854C164.201,328.921 164.237,328.998 164.258,329.079C164.598,330.319 164.938,331.579 165.298,332.819C165.323,332.9 165.331,332.986 165.322,333.07C165.313,333.155 165.287,333.237 165.246,333.311C165.205,333.386 165.15,333.451 165.083,333.504C165.017,333.557 164.94,333.596 164.859,333.619L164.678,333.659ZM162.678,326.119C162.535,326.115 162.396,326.063 162.285,325.973C162.173,325.883 162.093,325.758 162.058,325.619C161.758,324.339 161.459,323.059 161.199,321.799C161.178,321.717 161.174,321.633 161.187,321.55C161.2,321.467 161.231,321.387 161.275,321.316C161.32,321.245 161.379,321.184 161.449,321.136C161.518,321.088 161.596,321.055 161.678,321.039C161.761,321.018 161.847,321.014 161.932,321.027C162.016,321.04 162.097,321.07 162.17,321.115C162.242,321.159 162.305,321.218 162.355,321.288C162.404,321.357 162.44,321.436 162.459,321.519C162.719,322.779 163.018,324.039 163.318,325.319C163.355,325.486 163.325,325.66 163.236,325.806C163.146,325.951 163.004,326.056 162.839,326.099L162.678,326.119ZM161.038,318.479C160.888,318.482 160.741,318.431 160.624,318.336C160.506,318.241 160.427,318.107 160.398,317.959C160.158,316.679 159.919,315.399 159.699,314.119C159.669,313.952 159.708,313.78 159.805,313.641C159.903,313.503 160.051,313.408 160.219,313.379C160.303,313.362 160.39,313.361 160.474,313.378C160.558,313.395 160.638,313.429 160.709,313.478C160.78,313.526 160.84,313.589 160.886,313.661C160.933,313.733 160.964,313.814 160.979,313.899C161.199,315.159 161.418,316.439 161.678,317.719C161.696,317.803 161.696,317.89 161.679,317.974C161.662,318.059 161.628,318.138 161.58,318.209C161.531,318.28 161.469,318.341 161.397,318.387C161.324,318.433 161.243,318.465 161.158,318.479L161.038,318.479ZM159.719,310.799C159.564,310.805 159.412,310.753 159.294,310.653C159.175,310.553 159.098,310.413 159.078,310.259C158.878,308.959 158.698,307.659 158.538,306.379C158.527,306.295 158.533,306.209 158.555,306.127C158.577,306.045 158.616,305.969 158.668,305.902C158.72,305.835 158.785,305.779 158.859,305.737C158.933,305.695 159.014,305.669 159.099,305.659C159.183,305.645 159.27,305.648 159.353,305.669C159.436,305.69 159.514,305.728 159.581,305.781C159.649,305.834 159.705,305.9 159.746,305.975C159.787,306.051 159.811,306.134 159.818,306.219C159.978,307.472 160.159,308.752 160.359,310.059C160.382,310.228 160.339,310.4 160.238,310.538C160.137,310.676 159.987,310.77 159.818,310.799L159.719,310.799ZM158.739,303.059C158.577,303.065 158.42,303.007 158.301,302.899C158.181,302.79 158.109,302.64 158.099,302.479C157.959,301.179 157.819,299.879 157.719,298.599C157.707,298.427 157.764,298.258 157.876,298.127C157.988,297.996 158.147,297.914 158.318,297.899C158.402,297.888 158.487,297.894 158.568,297.918C158.649,297.942 158.724,297.982 158.788,298.037C158.852,298.092 158.904,298.159 158.94,298.236C158.977,298.312 158.996,298.395 158.998,298.479C159.118,299.759 159.238,301.059 159.378,302.359C159.387,302.443 159.378,302.528 159.354,302.609C159.329,302.69 159.288,302.765 159.234,302.83C159.18,302.895 159.114,302.949 159.039,302.988C158.965,303.027 158.883,303.051 158.798,303.059L158.739,303.059ZM158.078,295.299C157.915,295.299 157.758,295.237 157.64,295.126C157.521,295.014 157.449,294.862 157.438,294.699C157.438,293.359 157.279,292.059 157.239,290.699C157.233,290.613 157.245,290.527 157.273,290.446C157.302,290.365 157.346,290.291 157.404,290.228C157.462,290.164 157.532,290.113 157.61,290.077C157.688,290.041 157.773,290.022 157.859,290.019C158.026,290.027 158.186,290.093 158.31,290.206C158.435,290.319 158.515,290.473 158.538,290.639C158.538,291.919 158.539,293.219 158.719,294.519C158.73,294.691 158.673,294.86 158.561,294.991C158.449,295.122 158.29,295.204 158.118,295.219L158.078,295.299ZM157.778,287.499C157.609,287.499 157.446,287.432 157.326,287.312C157.206,287.192 157.138,287.029 157.138,286.859C157.138,285.939 157.138,285.039 157.138,284.139L157.138,282.959C157.138,282.789 157.206,282.626 157.326,282.506C157.446,282.386 157.609,282.319 157.778,282.319L157.778,282.319C157.948,282.319 158.111,282.386 158.231,282.506C158.351,282.626 158.418,282.789 158.418,282.959L158.418,284.139C158.418,285.039 158.418,285.939 158.418,286.839C158.421,286.925 158.407,287.01 158.376,287.09C158.345,287.17 158.298,287.243 158.238,287.305C158.179,287.366 158.107,287.415 158.028,287.448C157.949,287.482 157.864,287.499 157.778,287.499L157.778,287.499ZM157.778,279.699C157.693,279.699 157.608,279.682 157.529,279.648C157.45,279.615 157.378,279.566 157.319,279.505C157.259,279.443 157.212,279.37 157.181,279.29C157.15,279.21 157.136,279.125 157.138,279.039C157.138,277.699 157.258,276.399 157.318,275.039C157.334,274.867 157.416,274.709 157.546,274.597C157.677,274.484 157.847,274.428 158.018,274.439C158.103,274.444 158.185,274.466 158.261,274.503C158.336,274.54 158.404,274.591 158.46,274.654C158.515,274.718 158.558,274.791 158.585,274.871C158.613,274.951 158.624,275.035 158.618,275.119C158.618,276.379 158.478,277.679 158.438,278.999C158.448,279.093 158.436,279.188 158.404,279.278C158.372,279.367 158.321,279.448 158.254,279.515C158.187,279.582 158.106,279.633 158.017,279.665C157.928,279.697 157.833,279.708 157.739,279.699L157.778,279.699ZM158.239,271.919C158.154,271.911 158.072,271.887 157.998,271.848C157.923,271.809 157.857,271.755 157.803,271.69C157.749,271.625 157.708,271.55 157.683,271.469C157.659,271.388 157.65,271.303 157.658,271.219C157.778,269.886 157.918,268.552 158.078,267.219C158.086,267.134 158.11,267.051 158.151,266.975C158.192,266.9 158.248,266.834 158.316,266.781C158.383,266.728 158.461,266.69 158.544,266.669C158.627,266.648 158.714,266.645 158.798,266.659C158.967,266.684 159.119,266.773 159.223,266.907C159.327,267.041 159.376,267.21 159.359,267.379C159.199,268.599 159.058,269.899 158.938,271.239C158.946,271.337 158.932,271.436 158.895,271.528C158.858,271.62 158.801,271.702 158.727,271.768C158.654,271.834 158.566,271.881 158.471,271.908C158.375,271.934 158.275,271.938 158.178,271.919L158.239,271.919ZM159.199,264.179C159.031,264.15 158.883,264.055 158.785,263.917C158.688,263.778 158.649,263.606 158.678,263.439L158.798,262.659C158.978,261.639 159.178,260.659 159.378,259.579C159.395,259.496 159.428,259.417 159.475,259.347C159.523,259.277 159.584,259.217 159.654,259.17C159.725,259.124 159.804,259.092 159.887,259.076C159.97,259.061 160.056,259.061 160.138,259.079C160.223,259.093 160.303,259.124 160.375,259.171C160.446,259.218 160.508,259.278 160.554,259.35C160.601,259.421 160.633,259.501 160.648,259.586C160.662,259.67 160.659,259.756 160.638,259.839C160.438,260.859 160.259,261.839 160.079,262.879L159.938,263.639C159.93,263.729 159.902,263.816 159.856,263.894C159.811,263.972 159.748,264.039 159.674,264.091C159.6,264.142 159.515,264.177 159.426,264.192C159.337,264.207 159.246,264.203 159.158,264.179L159.199,264.179ZM160.739,256.539L160.599,256.539C160.516,256.523 160.438,256.49 160.368,256.442C160.299,256.394 160.24,256.333 160.195,256.262C160.15,256.191 160.121,256.111 160.107,256.028C160.094,255.945 160.098,255.861 160.118,255.779C160.418,254.499 160.718,253.239 161.058,251.959C161.081,251.877 161.121,251.801 161.173,251.734C161.226,251.668 161.292,251.612 161.366,251.571C161.441,251.53 161.523,251.505 161.607,251.496C161.692,251.487 161.777,251.495 161.859,251.519C161.94,251.54 162.016,251.577 162.084,251.627C162.151,251.678 162.207,251.741 162.25,251.814C162.293,251.886 162.321,251.966 162.333,252.05C162.344,252.133 162.34,252.218 162.318,252.299C161.978,253.559 161.658,254.799 161.378,256.059C161.337,256.205 161.248,256.332 161.124,256.42C161,256.507 160.85,256.549 160.699,256.539L160.739,256.539ZM162.739,249.019L162.558,249.019C162.477,248.996 162.4,248.957 162.334,248.904C162.267,248.851 162.212,248.786 162.171,248.711C162.13,248.637 162.104,248.555 162.095,248.47C162.086,248.386 162.094,248.3 162.118,248.219C162.498,246.959 162.898,245.719 163.318,244.479C163.345,244.398 163.388,244.324 163.444,244.26C163.5,244.197 163.568,244.144 163.645,244.107C163.721,244.07 163.804,244.048 163.889,244.043C163.974,244.039 164.058,244.051 164.138,244.079C164.219,244.106 164.293,244.149 164.357,244.205C164.421,244.261 164.473,244.329 164.51,244.405C164.547,244.482 164.569,244.564 164.574,244.649C164.579,244.734 164.567,244.819 164.538,244.899C164.118,246.119 163.739,247.359 163.359,248.599C163.311,248.729 163.223,248.84 163.108,248.915C162.993,248.991 162.856,249.027 162.719,249.019L162.739,249.019ZM165.239,241.619C165.166,241.638 165.091,241.638 165.018,241.619C164.859,241.56 164.73,241.441 164.659,241.288C164.588,241.134 164.58,240.958 164.638,240.799C165.098,239.579 165.579,238.359 166.099,237.159C166.129,237.08 166.176,237.007 166.235,236.946C166.294,236.885 166.365,236.836 166.443,236.803C166.521,236.769 166.605,236.752 166.69,236.751C166.775,236.75 166.86,236.767 166.938,236.799C167.016,236.832 167.086,236.879 167.145,236.939C167.204,236.999 167.251,237.07 167.283,237.148C167.314,237.226 167.33,237.31 167.329,237.394C167.329,237.478 167.311,237.562 167.278,237.639C166.778,238.839 166.299,240.039 165.859,241.259C165.8,241.376 165.707,241.472 165.593,241.536C165.479,241.6 165.349,241.629 165.219,241.619L165.239,241.619ZM168.178,234.539C168.086,234.558 167.991,234.558 167.898,234.539C167.744,234.465 167.624,234.334 167.565,234.174C167.505,234.013 167.51,233.836 167.579,233.679C168.139,232.499 168.698,231.319 169.298,230.139C169.379,229.992 169.513,229.881 169.673,229.829C169.833,229.777 170.006,229.787 170.158,229.859C170.314,229.936 170.434,230.072 170.49,230.237C170.546,230.402 170.535,230.582 170.459,230.739C169.859,231.879 169.298,233.039 168.758,234.219C168.702,234.322 168.617,234.406 168.515,234.463C168.412,234.52 168.296,234.546 168.178,234.539L168.178,234.539ZM171.699,227.579C171.6,227.606 171.497,227.606 171.398,227.579C171.323,227.539 171.256,227.485 171.202,227.418C171.147,227.352 171.107,227.276 171.083,227.194C171.058,227.112 171.051,227.026 171.06,226.941C171.07,226.856 171.097,226.774 171.138,226.699C171.778,225.559 172.438,224.419 173.138,223.319C173.18,223.245 173.236,223.179 173.303,223.128C173.371,223.076 173.448,223.038 173.531,223.018C173.613,222.997 173.699,222.994 173.783,223.008C173.867,223.022 173.947,223.053 174.018,223.099C174.091,223.142 174.154,223.199 174.204,223.267C174.254,223.335 174.291,223.412 174.311,223.493C174.332,223.575 174.336,223.66 174.323,223.743C174.311,223.827 174.282,223.907 174.239,223.979C173.559,225.079 172.919,226.199 172.239,227.339C172.173,227.394 172.096,227.435 172.013,227.46C171.931,227.484 171.844,227.49 171.758,227.479L171.699,227.579ZM175.699,220.919C175.581,220.955 175.456,220.955 175.339,220.919C175.267,220.873 175.205,220.812 175.157,220.741C175.109,220.671 175.075,220.591 175.058,220.507C175.042,220.423 175.042,220.337 175.059,220.253C175.076,220.169 175.11,220.09 175.158,220.019C175.898,218.939 176.638,217.859 177.419,216.799C177.522,216.665 177.673,216.575 177.841,216.549C178.008,216.523 178.179,216.562 178.319,216.659C178.453,216.762 178.543,216.913 178.569,217.081C178.595,217.249 178.555,217.42 178.459,217.559C177.699,218.599 176.959,219.659 176.239,220.739C176.112,220.813 175.964,220.841 175.818,220.819L175.699,220.919ZM263.699,216.499L262.879,216.499C262.794,216.494 262.712,216.472 262.636,216.435C262.561,216.398 262.493,216.347 262.437,216.284C262.382,216.22 262.339,216.147 262.312,216.067C262.284,215.987 262.273,215.903 262.279,215.819C262.281,215.734 262.301,215.65 262.337,215.573C262.373,215.496 262.424,215.427 262.488,215.371C262.552,215.315 262.627,215.272 262.707,215.246C262.788,215.22 262.874,215.211 262.959,215.219C263.724,215.289 264.493,215.289 265.259,215.219C265.717,215.161 266.171,215.075 266.618,214.959C266.786,214.916 266.963,214.94 267.112,215.026C267.262,215.112 267.372,215.253 267.419,215.419C267.439,215.502 267.443,215.588 267.43,215.672C267.417,215.757 267.388,215.837 267.343,215.91C267.298,215.983 267.239,216.046 267.17,216.095C267.1,216.145 267.022,216.18 266.939,216.199C266.434,216.339 265.919,216.439 265.399,216.499C264.904,216.489 264.41,216.456 263.919,216.399L263.699,216.499ZM259.099,215.719L258.899,215.719C257.599,215.263 256.388,214.586 255.319,213.719C255.199,213.596 255.132,213.431 255.132,213.259C255.132,213.087 255.199,212.922 255.319,212.799C255.378,212.737 255.45,212.688 255.529,212.655C255.608,212.621 255.693,212.604 255.779,212.604C255.864,212.604 255.949,212.621 256.028,212.655C256.107,212.688 256.179,212.737 256.239,212.799C257.194,213.562 258.268,214.164 259.419,214.579C259.499,214.606 259.573,214.649 259.637,214.705C259.701,214.761 259.753,214.829 259.79,214.905C259.828,214.982 259.849,215.064 259.854,215.149C259.859,215.234 259.847,215.319 259.819,215.399C259.756,215.469 259.679,215.525 259.592,215.563C259.506,215.601 259.413,215.62 259.319,215.619L259.099,215.719ZM180.199,214.639C180.053,214.641 179.911,214.591 179.799,214.499C179.679,214.376 179.612,214.211 179.612,214.039C179.612,213.867 179.679,213.702 179.799,213.579C180.619,212.559 181.479,211.579 182.319,210.579C182.442,210.459 182.607,210.392 182.779,210.392C182.95,210.392 183.115,210.459 183.239,210.579C183.358,210.702 183.425,210.867 183.425,211.039C183.425,211.211 183.358,211.376 183.239,211.499C182.399,212.459 181.559,213.499 180.759,214.459C180.654,214.515 180.537,214.542 180.419,214.539L180.199,214.639ZM270.319,214.539C270.213,214.536 270.11,214.509 270.017,214.461C269.923,214.412 269.842,214.343 269.779,214.259C269.688,214.113 269.658,213.936 269.695,213.768C269.733,213.6 269.834,213.453 269.979,213.359C271.01,212.674 271.945,211.853 272.759,210.919C272.878,210.801 273.04,210.734 273.209,210.734C273.377,210.734 273.539,210.801 273.659,210.919C273.778,211.042 273.845,211.207 273.845,211.379C273.845,211.551 273.778,211.716 273.659,211.839C272.771,212.874 271.741,213.776 270.599,214.519C270.579,214.527 270.559,214.534 270.539,214.539L270.319,214.539ZM253.259,210.839C253.144,210.836 253.032,210.803 252.933,210.743C252.835,210.684 252.754,210.6 252.699,210.499C252.038,209.254 251.611,207.898 251.439,206.499C251.427,206.415 251.433,206.329 251.455,206.247C251.477,206.165 251.516,206.089 251.568,206.022C251.62,205.955 251.685,205.899 251.759,205.857C251.833,205.815 251.914,205.789 251.998,205.779C252.165,205.756 252.335,205.8 252.469,205.901C252.604,206.002 252.694,206.152 252.719,206.319C252.884,207.533 253.256,208.71 253.819,209.799C253.86,209.874 253.887,209.956 253.897,210.041C253.906,210.126 253.899,210.212 253.874,210.294C253.85,210.376 253.81,210.452 253.755,210.518C253.701,210.585 253.634,210.639 253.559,210.679C253.533,210.701 253.506,210.721 253.479,210.739L253.259,210.839ZM185.359,208.839C185.188,208.841 185.023,208.776 184.899,208.659C184.779,208.536 184.712,208.371 184.712,208.199C184.712,208.027 184.779,207.862 184.899,207.739C185.819,206.799 186.759,205.879 187.699,204.979C187.822,204.859 187.987,204.792 188.159,204.792C188.33,204.792 188.495,204.859 188.618,204.979C188.737,205.099 188.803,205.261 188.803,205.429C188.803,205.598 188.737,205.759 188.618,205.879C187.698,206.759 186.779,207.679 185.879,208.599C185.787,208.652 185.684,208.679 185.579,208.679L185.359,208.839ZM275.359,208.839C275.259,208.858 275.158,208.858 275.059,208.839C274.91,208.754 274.798,208.617 274.746,208.454C274.694,208.291 274.706,208.114 274.779,207.959C275.342,206.846 275.752,205.662 275.998,204.439C276.017,204.356 276.053,204.277 276.102,204.208C276.152,204.138 276.215,204.079 276.287,204.035C276.36,203.99 276.441,203.96 276.525,203.947C276.61,203.934 276.696,203.938 276.779,203.959C276.861,203.976 276.94,204.009 277.01,204.056C277.081,204.103 277.141,204.164 277.187,204.235C277.234,204.305 277.266,204.385 277.281,204.468C277.297,204.551 277.296,204.636 277.279,204.719C276.988,206.042 276.538,207.325 275.939,208.539C275.842,208.599 275.732,208.634 275.618,208.639L275.359,208.839ZM190.979,203.539C190.888,203.539 190.798,203.519 190.715,203.481C190.632,203.443 190.558,203.388 190.498,203.319C190.379,203.196 190.312,203.031 190.312,202.859C190.312,202.687 190.379,202.522 190.498,202.399L191.699,201.399L193.559,199.939C193.697,199.834 193.871,199.788 194.043,199.81C194.215,199.833 194.372,199.922 194.479,200.059C194.578,200.196 194.62,200.365 194.598,200.533C194.576,200.7 194.49,200.853 194.359,200.959L192.519,202.399L191.339,203.399C191.303,203.382 191.27,203.362 191.239,203.339L190.979,203.539ZM252.019,203.359C251.847,203.339 251.69,203.252 251.581,203.118C251.473,202.983 251.422,202.811 251.439,202.639C251.591,201.282 251.872,199.943 252.279,198.639C252.302,198.557 252.341,198.481 252.393,198.414C252.446,198.348 252.512,198.292 252.586,198.251C252.661,198.21 252.743,198.185 252.827,198.176C252.912,198.167 252.997,198.175 253.079,198.199C253.16,198.222 253.236,198.261 253.302,198.314C253.368,198.367 253.422,198.433 253.462,198.508C253.501,198.583 253.524,198.665 253.531,198.75C253.537,198.834 253.526,198.919 253.498,198.999C253.136,200.209 252.875,201.446 252.719,202.699C252.692,202.807 252.637,202.907 252.56,202.988C252.483,203.068 252.386,203.127 252.279,203.159L252.019,203.359ZM276.919,201.359C276.756,201.359 276.599,201.297 276.48,201.186C276.361,201.074 276.289,200.922 276.279,200.759C276.186,199.529 275.903,198.321 275.439,197.179C275.406,197.102 275.388,197.018 275.388,196.934C275.387,196.85 275.403,196.767 275.434,196.688C275.466,196.61 275.513,196.539 275.572,196.479C275.631,196.419 275.701,196.372 275.779,196.339C275.856,196.306 275.939,196.289 276.023,196.288C276.108,196.287 276.191,196.303 276.269,196.335C276.347,196.366 276.418,196.413 276.478,196.472C276.538,196.531 276.586,196.601 276.618,196.679C277.149,197.952 277.466,199.303 277.559,200.679C277.567,200.765 277.558,200.851 277.532,200.933C277.506,201.015 277.463,201.091 277.407,201.157C277.351,201.222 277.283,201.275 277.206,201.314C277.129,201.352 277.045,201.374 276.959,201.379L276.919,201.359ZM197.439,198.539C197.332,198.541 197.227,198.516 197.133,198.467C197.039,198.418 196.958,198.347 196.899,198.259C196.804,198.117 196.768,197.945 196.798,197.777C196.827,197.609 196.921,197.459 197.059,197.359C198.139,196.619 199.259,195.899 200.359,195.219C200.507,195.13 200.685,195.103 200.854,195.145C201.022,195.186 201.167,195.292 201.259,195.439C201.302,195.511 201.331,195.591 201.343,195.675C201.356,195.758 201.352,195.843 201.331,195.925C201.311,196.006 201.275,196.083 201.224,196.151C201.174,196.219 201.111,196.276 201.039,196.319C199.945,196.999 198.865,197.699 197.799,198.419C197.693,198.494 197.568,198.536 197.439,198.539ZM254.439,195.639C254.353,195.659 254.264,195.659 254.179,195.639C254.021,195.569 253.896,195.439 253.833,195.279C253.769,195.118 253.771,194.938 253.839,194.779C254.339,193.639 254.919,192.439 255.579,191.239C255.618,191.163 255.673,191.096 255.739,191.042C255.805,190.988 255.882,190.947 255.964,190.923C256.046,190.899 256.132,190.891 256.217,190.901C256.302,190.911 256.384,190.937 256.459,190.979C256.608,191.063 256.718,191.202 256.766,191.366C256.815,191.531 256.798,191.707 256.719,191.859C256.079,193.019 255.499,194.179 255.019,195.299C254.972,195.415 254.892,195.515 254.789,195.586C254.685,195.657 254.564,195.696 254.439,195.699L254.439,195.639ZM204.179,194.539C204.06,194.542 203.943,194.511 203.84,194.451C203.738,194.391 203.654,194.304 203.599,194.199C203.519,194.047 203.502,193.871 203.551,193.706C203.599,193.542 203.71,193.403 203.859,193.319C204.999,192.699 206.179,192.099 207.359,191.519C207.435,191.482 207.517,191.46 207.602,191.455C207.686,191.45 207.771,191.461 207.851,191.489C207.931,191.517 208.005,191.561 208.068,191.617C208.131,191.674 208.182,191.742 208.219,191.819C208.256,191.895 208.278,191.978 208.283,192.062C208.288,192.147 208.276,192.232 208.248,192.312C208.22,192.392 208.177,192.465 208.12,192.528C208.064,192.591 207.995,192.643 207.919,192.679C206.759,193.239 205.599,193.839 204.479,194.459C204.388,194.513 204.284,194.541 204.179,194.539L204.179,194.539ZM274.339,194.039C274.243,194.038 274.148,194.016 274.062,193.974C273.976,193.933 273.9,193.873 273.839,193.799C273.03,192.853 272.118,192.001 271.118,191.259C271.047,191.211 270.987,191.149 270.941,191.077C270.895,191.005 270.865,190.924 270.852,190.84C270.838,190.755 270.843,190.669 270.865,190.586C270.887,190.503 270.925,190.426 270.979,190.359C271.026,190.288 271.088,190.228 271.16,190.182C271.233,190.136 271.313,190.105 271.398,190.092C271.482,190.079 271.569,190.083 271.651,190.105C271.734,190.127 271.811,190.166 271.879,190.219C272.967,191.023 273.96,191.949 274.839,192.979C274.952,193.101 275.016,193.262 275.016,193.429C275.016,193.596 274.952,193.757 274.839,193.879C274.75,193.958 274.643,194.012 274.527,194.037C274.411,194.061 274.291,194.055 274.179,194.019L274.339,194.039ZM211.179,191.139C211.052,191.133 210.929,191.093 210.823,191.022C210.717,190.952 210.633,190.854 210.579,190.739C210.546,190.662 210.528,190.578 210.528,190.494C210.527,190.41 210.543,190.327 210.574,190.248C210.606,190.17 210.653,190.099 210.712,190.039C210.771,189.979 210.841,189.932 210.919,189.899C212.139,189.379 213.359,188.899 214.579,188.439C214.74,188.38 214.919,188.387 215.076,188.458C215.233,188.529 215.356,188.659 215.419,188.819C215.476,188.983 215.467,189.164 215.392,189.321C215.317,189.479 215.183,189.6 215.019,189.659C213.819,190.099 212.619,190.579 211.439,191.079C211.325,191.128 211.2,191.142 211.079,191.119L211.179,191.139ZM268.159,189.379C268.067,189.408 267.97,189.408 267.879,189.379C266.733,188.827 265.558,188.339 264.359,187.919C264.278,187.892 264.204,187.849 264.14,187.793C264.076,187.737 264.024,187.669 263.987,187.593C263.95,187.516 263.928,187.434 263.923,187.349C263.918,187.264 263.93,187.179 263.959,187.099C263.986,187.018 264.028,186.944 264.084,186.88C264.14,186.816 264.208,186.764 264.285,186.727C264.361,186.69 264.444,186.668 264.529,186.664C264.614,186.659 264.698,186.671 264.779,186.699C266.033,187.136 267.262,187.643 268.459,188.219C268.611,188.3 268.726,188.437 268.778,188.602C268.83,188.766 268.816,188.945 268.739,189.099C268.665,189.206 268.561,189.289 268.439,189.335C268.318,189.382 268.185,189.39 268.059,189.359L268.159,189.379ZM258.159,188.839C258.037,188.846 257.917,188.811 257.819,188.739C257.746,188.696 257.682,188.639 257.633,188.571C257.583,188.502 257.547,188.425 257.529,188.342C257.51,188.26 257.508,188.174 257.524,188.091C257.539,188.008 257.571,187.929 257.618,187.859C257.938,187.339 258.278,186.839 258.618,186.299L256.839,185.939C256.672,185.91 256.523,185.815 256.426,185.677C256.328,185.538 256.29,185.366 256.319,185.199C256.333,185.114 256.364,185.033 256.41,184.961C256.457,184.888 256.517,184.826 256.588,184.778C256.659,184.729 256.739,184.695 256.823,184.678C256.908,184.662 256.994,184.662 257.079,184.679C257.859,184.819 258.639,184.979 259.399,185.159L259.799,184.599C259.847,184.529 259.908,184.469 259.98,184.423C260.051,184.376 260.131,184.345 260.215,184.33C260.299,184.315 260.385,184.317 260.468,184.336C260.551,184.354 260.629,184.39 260.699,184.439C260.769,184.487 260.829,184.549 260.875,184.62C260.921,184.692 260.953,184.772 260.968,184.855C260.983,184.939 260.98,185.025 260.962,185.108C260.943,185.191 260.908,185.27 260.859,185.339L260.759,185.479L260.919,185.479C261.085,185.526 261.228,185.635 261.317,185.784C261.407,185.932 261.436,186.11 261.399,186.279C261.347,186.442 261.237,186.58 261.089,186.665C260.94,186.751 260.765,186.777 260.599,186.739L259.979,186.599C259.519,187.239 259.099,187.899 258.699,188.599C258.635,188.674 258.555,188.733 258.465,188.772C258.375,188.81 258.276,188.826 258.179,188.819L258.159,188.839ZM218.439,188.419C218.301,188.425 218.165,188.385 218.053,188.305C217.941,188.226 217.858,188.111 217.819,187.979C217.768,187.815 217.783,187.637 217.862,187.484C217.94,187.33 218.076,187.214 218.239,187.159C219.479,186.779 220.759,186.399 222.019,186.079C222.1,186.055 222.185,186.048 222.27,186.059C222.354,186.069 222.435,186.097 222.508,186.14C222.582,186.183 222.645,186.241 222.695,186.309C222.745,186.378 222.78,186.456 222.799,186.539C222.82,186.62 222.824,186.705 222.813,186.788C222.801,186.872 222.773,186.952 222.73,187.024C222.687,187.097 222.631,187.16 222.564,187.211C222.496,187.261 222.42,187.298 222.339,187.319C221.099,187.639 219.858,188.019 218.618,188.399L218.439,188.419ZM225.959,186.419C225.81,186.421 225.666,186.37 225.552,186.274C225.438,186.179 225.363,186.046 225.339,185.899C225.321,185.816 225.32,185.731 225.336,185.648C225.351,185.565 225.384,185.485 225.43,185.415C225.477,185.344 225.537,185.283 225.607,185.236C225.677,185.189 225.756,185.156 225.839,185.139C227.119,184.859 228.419,184.619 229.699,184.419C229.866,184.39 230.037,184.428 230.176,184.526C230.315,184.623 230.409,184.772 230.439,184.939C230.456,185.023 230.455,185.111 230.437,185.195C230.418,185.279 230.383,185.359 230.332,185.428C230.281,185.498 230.216,185.556 230.142,185.599C230.067,185.642 229.984,185.67 229.899,185.679C228.639,185.899 227.359,186.139 226.099,186.399L225.959,186.419ZM253.099,185.319C251.839,185.139 250.539,184.999 249.259,184.899C249.087,184.884 248.928,184.802 248.816,184.671C248.704,184.54 248.647,184.371 248.659,184.199C248.666,184.115 248.69,184.033 248.73,183.958C248.769,183.883 248.823,183.817 248.888,183.763C248.953,183.709 249.028,183.669 249.109,183.644C249.19,183.619 249.274,183.611 249.359,183.619C250.659,183.619 251.979,183.859 253.359,184.039C253.442,184.049 253.523,184.075 253.596,184.117C253.669,184.159 253.733,184.216 253.783,184.283C253.834,184.35 253.87,184.427 253.89,184.509C253.91,184.591 253.913,184.676 253.899,184.759C253.891,184.856 253.862,184.95 253.813,185.034C253.764,185.118 253.696,185.19 253.615,185.244C253.534,185.298 253.442,185.333 253.346,185.346C253.249,185.359 253.151,185.35 253.059,185.319L253.099,185.319ZM233.659,185.159C233.499,185.16 233.344,185.101 233.226,184.993C233.107,184.886 233.034,184.738 233.019,184.579C233.002,184.412 233.051,184.245 233.155,184.115C233.26,183.984 233.412,183.899 233.579,183.879C234.879,183.719 236.199,183.599 237.579,183.519C237.663,183.514 237.747,183.525 237.827,183.552C237.906,183.579 237.98,183.622 238.043,183.678C238.106,183.734 238.158,183.801 238.195,183.877C238.232,183.953 238.253,184.035 238.259,184.119C238.267,184.204 238.258,184.289 238.231,184.37C238.205,184.451 238.163,184.526 238.106,184.589C238.05,184.653 237.981,184.705 237.904,184.741C237.827,184.777 237.744,184.797 237.659,184.799C236.379,184.899 235.079,184.999 233.819,185.159L233.659,185.159ZM245.339,184.679C244.039,184.679 242.759,184.679 241.459,184.679C241.375,184.682 241.293,184.668 241.215,184.638C241.138,184.608 241.067,184.562 241.007,184.505C240.947,184.447 240.9,184.378 240.868,184.301C240.835,184.224 240.819,184.142 240.819,184.059C240.816,183.975 240.83,183.891 240.86,183.812C240.889,183.734 240.934,183.662 240.992,183.601C241.049,183.539 241.118,183.49 241.195,183.455C241.272,183.421 241.355,183.402 241.439,183.399C242.759,183.399 244.059,183.399 245.439,183.399C245.524,183.401 245.609,183.421 245.687,183.457C245.765,183.493 245.835,183.544 245.893,183.608C245.951,183.671 245.995,183.745 246.024,183.826C246.052,183.907 246.064,183.993 246.059,184.079C246.054,184.171 246.031,184.261 245.989,184.342C245.947,184.424 245.888,184.496 245.816,184.553C245.744,184.61 245.66,184.65 245.571,184.672C245.482,184.694 245.389,184.696 245.299,184.679L245.339,184.679ZM262.639,182.459C262.493,182.461 262.351,182.411 262.239,182.319C262.12,182.199 262.054,182.038 262.054,181.869C262.054,181.701 262.12,181.539 262.239,181.419C263.039,180.379 263.879,179.419 264.719,178.359C264.838,178.241 265,178.174 265.169,178.174C265.337,178.174 265.499,178.241 265.618,178.359C265.738,178.482 265.805,178.647 265.805,178.819C265.805,178.991 265.738,179.156 265.618,179.279C264.798,180.239 263.959,181.279 263.179,182.259C263.115,182.353 263.028,182.428 262.926,182.477C262.824,182.526 262.711,182.548 262.599,182.539L262.639,182.459ZM267.719,176.459C267.637,176.459 267.556,176.444 267.481,176.413C267.405,176.382 267.336,176.337 267.279,176.279C267.217,176.221 267.169,176.151 267.135,176.074C267.102,175.997 267.085,175.913 267.085,175.829C267.085,175.745 267.102,175.662 267.135,175.584C267.169,175.507 267.217,175.437 267.279,175.379C268.179,174.419 269.119,173.499 270.079,172.619C270.137,172.558 270.206,172.509 270.284,172.476C270.361,172.443 270.444,172.426 270.529,172.426C270.613,172.426 270.696,172.443 270.774,172.476C270.851,172.509 270.921,172.558 270.979,172.619C271.04,172.679 271.089,172.75 271.123,172.829C271.156,172.908 271.174,172.993 271.174,173.079C271.174,173.165 271.156,173.25 271.123,173.329C271.089,173.408 271.04,173.479 270.979,173.539C270.039,174.399 269.119,175.319 268.219,176.239C268.166,176.335 268.087,176.414 267.992,176.467C267.896,176.52 267.788,176.545 267.679,176.539L267.719,176.459ZM273.419,171.159C273.229,171.154 273.05,171.075 272.919,170.939C272.799,170.816 272.732,170.651 272.732,170.479C272.732,170.307 272.799,170.142 272.919,170.019C273.939,169.179 274.919,168.379 276.039,167.619C276.108,167.57 276.186,167.535 276.269,167.516C276.352,167.497 276.438,167.495 276.522,167.51C276.606,167.525 276.686,167.556 276.757,167.603C276.829,167.649 276.891,167.709 276.939,167.779C276.989,167.847 277.025,167.925 277.046,168.007C277.066,168.089 277.07,168.175 277.057,168.258C277.044,168.342 277.014,168.422 276.97,168.495C276.926,168.567 276.867,168.63 276.799,168.679C275.759,169.426 274.739,170.206 273.739,171.019C273.648,171.132 273.521,171.21 273.379,171.239L273.419,171.159ZM279.759,166.639C279.65,166.639 279.544,166.611 279.45,166.559C279.355,166.506 279.276,166.431 279.219,166.339C279.128,166.193 279.098,166.016 279.135,165.848C279.173,165.68 279.274,165.533 279.419,165.439C280.539,164.759 281.699,164.099 282.859,163.439C283.013,163.361 283.191,163.347 283.356,163.4C283.52,163.452 283.658,163.567 283.739,163.719C283.815,163.87 283.829,164.046 283.776,164.207C283.724,164.368 283.61,164.502 283.459,164.579C282.319,165.179 281.199,165.819 280.099,166.579C280.048,166.627 279.988,166.664 279.923,166.688C279.857,166.712 279.788,166.722 279.719,166.719L279.759,166.639ZM286.679,163.039C286.552,163.042 286.428,163.008 286.321,162.94C286.214,162.872 286.13,162.775 286.079,162.659C286.046,162.582 286.028,162.498 286.028,162.414C286.027,162.33 286.043,162.247 286.074,162.169C286.106,162.09 286.153,162.019 286.212,161.959C286.271,161.9 286.341,161.852 286.419,161.819C287.619,161.299 288.859,160.819 290.099,160.379C290.179,160.351 290.263,160.339 290.348,160.344C290.433,160.348 290.516,160.37 290.592,160.407C290.669,160.445 290.737,160.497 290.793,160.56C290.849,160.624 290.892,160.699 290.919,160.779C290.947,160.859 290.959,160.944 290.954,161.029C290.949,161.114 290.928,161.197 290.89,161.273C290.853,161.349 290.801,161.417 290.737,161.473C290.673,161.529 290.599,161.572 290.519,161.599C289.319,162.019 288.099,162.499 286.939,162.999C286.85,163.064 286.747,163.105 286.639,163.119L286.679,163.039ZM336.479,161.439L336.339,161.439L332.539,160.639C332.454,160.625 332.373,160.593 332.3,160.547C332.228,160.501 332.166,160.44 332.117,160.369C332.069,160.299 332.035,160.219 332.018,160.134C332.001,160.05 332.001,159.963 332.019,159.879C332.057,159.714 332.157,159.57 332.299,159.477C332.44,159.384 332.612,159.349 332.779,159.379C334.059,159.619 335.338,159.899 336.618,160.179C336.783,160.217 336.927,160.318 337.02,160.459C337.113,160.601 337.149,160.772 337.118,160.939C337.094,161.102 337.012,161.25 336.887,161.356C336.762,161.463 336.603,161.521 336.439,161.519L336.479,161.439ZM294.039,160.479C293.893,160.484 293.751,160.439 293.634,160.351C293.518,160.264 293.435,160.14 293.399,159.999C293.377,159.918 293.373,159.833 293.384,159.75C293.396,159.666 293.424,159.586 293.467,159.514C293.51,159.441 293.566,159.378 293.633,159.327C293.701,159.277 293.777,159.24 293.859,159.219C295.119,158.879 296.399,158.559 297.699,158.299C297.868,158.27 298.042,158.307 298.184,158.405C298.326,158.502 298.425,158.65 298.459,158.819C298.489,158.986 298.453,159.158 298.36,159.299C298.267,159.44 298.123,159.541 297.959,159.579C296.679,159.819 295.419,160.119 294.199,160.459L294.039,160.479ZM328.839,159.919L328.719,159.919C327.385,159.692 326.105,159.492 324.878,159.319C324.71,159.29 324.56,159.196 324.459,159.058C324.359,158.92 324.315,158.748 324.339,158.579C324.348,158.495 324.375,158.415 324.417,158.342C324.459,158.269 324.515,158.205 324.582,158.154C324.65,158.104 324.727,158.067 324.809,158.048C324.891,158.028 324.976,158.025 325.059,158.039C326.359,158.219 327.639,158.419 328.939,158.639C329.106,158.668 329.254,158.763 329.352,158.901C329.449,159.04 329.488,159.212 329.459,159.379C329.459,159.464 329.441,159.548 329.408,159.626C329.374,159.704 329.325,159.774 329.263,159.832C329.201,159.89 329.128,159.935 329.048,159.964C328.968,159.993 328.883,160.005 328.799,159.999L328.839,159.919ZM301.659,158.939C301.503,158.936 301.353,158.878 301.236,158.776C301.119,158.673 301.042,158.533 301.019,158.379C301.007,158.295 301.013,158.209 301.035,158.127C301.057,158.046 301.096,157.969 301.148,157.902C301.2,157.835 301.265,157.779 301.339,157.737C301.413,157.695 301.494,157.669 301.579,157.659C302.859,157.479 304.179,157.339 305.579,157.239C305.662,157.231 305.745,157.239 305.825,157.264C305.905,157.289 305.978,157.33 306.042,157.384C306.105,157.438 306.157,157.505 306.195,157.58C306.232,157.654 306.254,157.736 306.259,157.819C306.267,157.903 306.258,157.988 306.234,158.069C306.209,158.15 306.168,158.225 306.114,158.29C306.061,158.355 305.994,158.409 305.919,158.448C305.845,158.487 305.763,158.512 305.679,158.519C304.379,158.619 303.079,158.759 301.839,158.939L301.659,158.939ZM321.118,158.839C319.838,158.699 318.538,158.599 317.259,158.499C317.174,158.494 317.092,158.472 317.016,158.435C316.941,158.398 316.873,158.347 316.817,158.284C316.762,158.221 316.719,158.147 316.692,158.067C316.664,157.987 316.653,157.903 316.659,157.819C316.664,157.733 316.686,157.649 316.724,157.572C316.762,157.495 316.816,157.426 316.881,157.37C316.946,157.314 317.022,157.272 317.104,157.246C317.186,157.22 317.273,157.211 317.359,157.219C318.659,157.219 319.959,157.419 321.359,157.559C321.443,157.567 321.525,157.591 321.599,157.63C321.674,157.669 321.74,157.723 321.794,157.788C321.848,157.853 321.889,157.928 321.914,158.009C321.938,158.09 321.947,158.175 321.939,158.259C321.949,158.367 321.931,158.476 321.888,158.575C321.845,158.674 321.777,158.761 321.691,158.827C321.605,158.893 321.504,158.936 321.397,158.952C321.29,158.968 321.18,158.957 321.079,158.919L321.118,158.839ZM309.439,158.319C309.27,158.319 309.108,158.255 308.985,158.14C308.863,158.025 308.789,157.867 308.779,157.699C308.776,157.613 308.79,157.528 308.821,157.448C308.852,157.368 308.899,157.295 308.959,157.234C309.019,157.172 309.09,157.123 309.169,157.09C309.248,157.056 309.333,157.039 309.419,157.039C310.719,157.039 312.039,157.039 313.419,157.039C313.504,157.039 313.589,157.056 313.668,157.09C313.747,157.123 313.819,157.172 313.878,157.234C313.938,157.295 313.985,157.368 314.016,157.448C314.047,157.528 314.061,157.613 314.059,157.699C314.053,157.865 313.984,158.023 313.864,158.139C313.745,158.254 313.585,158.319 313.419,158.319L309.519,158.319L309.439,158.319Z" transform="rotate(360 247.134 266.579)" fill="#999999"/>
<path d="M42.38,54.26L48.02,56.7L70.56,40.98L76.56,44.3C81.38,47.18 86.06,47.38 88.3,46.1L88.76,46.32C92.24,47.84 94.3,46.48 95,44.84C95.7,43.2 95.3,40.84 91.82,39.28L91.36,39.08C90.94,37.08 89.12,33.72 82.02,31.74L75.48,29.64L71.48,2.46L65.84,0L61.46,25.18L45.34,19.66L42.9,13.2L38.42,11.54L38.1,17.54L36.5,17.4L35.04,20.74L36.24,21.92L32,26.32L36.28,28.46L42.64,25.82L57.7,33.82L42.38,54.26ZM42.8,24.36L36.4,27.02L34.4,25.98L38.28,21.98L36.82,20.5L37.5,18.92L39.5,19.1L39.8,13.5L41.98,14.3L44.42,20.78L62.66,27L67,1.98L70.38,3.44L74.28,30.72L81.66,33.08C88.54,34.98 89.9,38.06 90.1,39.72L90.1,40.14L90.5,40.28C90.754,40.352 91.002,40.446 91.24,40.56C93.38,41.48 94.34,42.94 93.72,44.34C93.1,45.74 91.4,46.06 89.26,45.12C89.019,45.023 88.785,44.909 88.56,44.78L88.18,44.56L87.82,44.82C86.36,45.9 82.1,46.1 77.18,43.18L70.46,39.42L47.86,55.2L44.48,53.74L59.8,33.46L42.8,24.36Z" transform="rotate(360 63.644 28.35)" fill="#999999"/>
<path d="M151.799,222.119C151.69,222.121 151.583,222.093 151.488,222.041C151.394,221.989 151.314,221.911 151.259,221.819C150.539,220.725 149.872,219.625 149.259,218.519C149.168,218.373 149.138,218.197 149.175,218.029C149.213,217.861 149.314,217.713 149.459,217.619C149.607,217.531 149.785,217.503 149.954,217.545C150.122,217.585 150.268,217.691 150.359,217.839C151.039,218.939 151.719,220.019 152.359,221.119C152.407,221.189 152.441,221.269 152.458,221.353C152.475,221.437 152.475,221.523 152.459,221.607C152.442,221.691 152.408,221.771 152.36,221.841C152.312,221.913 152.25,221.973 152.179,222.019C152.062,222.083 151.931,222.117 151.799,222.119L151.799,222.119ZM147.799,215.479C147.686,215.479 147.575,215.449 147.477,215.393C147.379,215.337 147.297,215.255 147.239,215.159C146.599,214.019 145.959,212.879 145.239,211.739C145.158,211.589 145.137,211.415 145.182,211.251C145.227,211.087 145.333,210.947 145.479,210.859C145.63,210.779 145.807,210.763 145.971,210.811C146.135,210.859 146.274,210.969 146.359,211.119C146.979,212.259 147.619,213.379 148.259,214.499C148.347,214.647 148.374,214.825 148.333,214.995C148.292,215.163 148.186,215.307 148.039,215.399C147.934,215.455 147.817,215.483 147.699,215.479L147.799,215.479ZM144.079,208.639C143.958,208.637 143.841,208.603 143.738,208.539C143.636,208.477 143.553,208.387 143.498,208.279C142.898,207.119 142.318,205.939 141.758,204.779C141.721,204.703 141.699,204.621 141.694,204.535C141.689,204.451 141.701,204.367 141.729,204.287C141.757,204.207 141.8,204.133 141.857,204.069C141.913,204.007 141.982,203.955 142.058,203.919C142.135,203.881 142.217,203.859 142.302,203.855C142.386,203.849 142.471,203.861 142.551,203.889C142.631,203.917 142.705,203.961 142.768,204.017C142.831,204.073 142.882,204.143 142.918,204.219C143.478,205.379 144.058,206.539 144.658,207.699C144.696,207.775 144.718,207.857 144.723,207.943C144.728,208.027 144.716,208.111 144.688,208.191C144.66,208.271 144.617,208.345 144.56,208.409C144.504,208.471 144.435,208.523 144.359,208.559C144.305,208.599 144.243,208.627 144.177,208.641C144.112,208.655 144.044,208.655 143.979,208.639L144.079,208.639ZM140.699,201.599C140.573,201.597 140.451,201.561 140.345,201.494C140.239,201.426 140.154,201.331 140.099,201.219L138.538,197.639C138.472,197.477 138.473,197.296 138.541,197.135C138.608,196.973 138.737,196.845 138.898,196.779C139.058,196.719 139.234,196.723 139.391,196.79C139.547,196.857 139.672,196.982 139.739,197.139C140.239,198.319 140.758,199.499 141.278,200.699C141.315,200.775 141.335,200.857 141.339,200.941C141.342,201.025 141.329,201.109 141.299,201.188C141.269,201.266 141.223,201.338 141.165,201.398C141.106,201.459 141.036,201.507 140.959,201.539C140.847,201.595 140.722,201.616 140.599,201.599L140.699,201.599ZM137.678,194.419C137.55,194.418 137.426,194.379 137.319,194.308C137.212,194.237 137.129,194.137 137.079,194.019C136.599,192.779 136.138,191.559 135.678,190.339C135.65,190.259 135.638,190.174 135.643,190.089C135.648,190.004 135.669,189.922 135.707,189.845C135.744,189.769 135.796,189.701 135.86,189.645C135.924,189.589 135.998,189.546 136.079,189.519C136.238,189.466 136.411,189.476 136.564,189.547C136.716,189.617 136.836,189.743 136.898,189.899C137.338,191.119 137.798,192.319 138.278,193.539C138.338,193.698 138.334,193.875 138.267,194.031C138.2,194.188 138.075,194.312 137.918,194.379L137.678,194.419ZM134.998,187.099C134.865,187.097 134.736,187.054 134.628,186.975C134.52,186.896 134.44,186.786 134.398,186.659C133.958,185.419 133.558,184.179 133.178,182.939C133.128,182.775 133.143,182.597 133.222,182.444C133.3,182.29 133.435,182.174 133.599,182.119C133.763,182.068 133.941,182.084 134.094,182.162C134.247,182.241 134.364,182.376 134.418,182.539C134.798,183.779 135.198,184.999 135.618,186.239C135.669,186.403 135.654,186.581 135.575,186.734C135.497,186.888 135.362,187.004 135.199,187.059L134.998,187.099ZM132.678,179.659C132.537,179.656 132.401,179.607 132.289,179.521C132.178,179.435 132.097,179.315 132.058,179.179C131.698,177.919 131.338,176.659 131.018,175.419C130.975,175.252 130.999,175.075 131.085,174.925C131.171,174.776 131.313,174.666 131.479,174.619C131.56,174.598 131.645,174.593 131.728,174.605C131.811,174.617 131.891,174.645 131.964,174.687C132.036,174.73 132.1,174.787 132.15,174.854C132.201,174.921 132.237,174.998 132.258,175.079C132.598,176.319 132.938,177.579 133.298,178.819C133.323,178.9 133.331,178.986 133.322,179.07C133.313,179.155 133.287,179.237 133.246,179.311C133.205,179.386 133.15,179.451 133.083,179.504C133.017,179.557 132.94,179.596 132.859,179.619L132.678,179.659ZM130.678,172.119C130.535,172.115 130.396,172.063 130.285,171.973C130.173,171.883 130.093,171.758 130.058,171.619C129.758,170.339 129.459,169.059 129.199,167.799C129.178,167.717 129.174,167.633 129.187,167.55C129.2,167.467 129.231,167.387 129.275,167.316C129.32,167.245 129.379,167.184 129.449,167.136C129.518,167.088 129.596,167.055 129.678,167.039C129.761,167.018 129.847,167.014 129.932,167.027C130.016,167.04 130.097,167.07 130.17,167.115C130.242,167.159 130.305,167.218 130.355,167.288C130.404,167.357 130.44,167.436 130.459,167.519C130.719,168.779 131.018,170.039 131.318,171.319C131.355,171.486 131.325,171.66 131.236,171.806C131.146,171.951 131.004,172.056 130.839,172.099L130.678,172.119ZM129.038,164.479C128.888,164.482 128.741,164.431 128.624,164.336C128.506,164.241 128.427,164.107 128.398,163.959C128.158,162.679 127.919,161.399 127.699,160.119C127.669,159.952 127.708,159.78 127.805,159.641C127.903,159.503 128.051,159.408 128.219,159.379C128.303,159.362 128.39,159.361 128.474,159.378C128.558,159.395 128.638,159.429 128.709,159.478C128.78,159.526 128.84,159.589 128.886,159.661C128.933,159.733 128.964,159.814 128.979,159.899C129.199,161.159 129.418,162.439 129.678,163.719C129.696,163.803 129.696,163.89 129.679,163.974C129.662,164.059 129.628,164.138 129.58,164.209C129.531,164.28 129.469,164.341 129.397,164.387C129.324,164.433 129.243,164.465 129.158,164.479L129.038,164.479ZM127.719,156.799C127.564,156.805 127.412,156.753 127.294,156.653C127.175,156.553 127.098,156.413 127.078,156.259C126.878,154.959 126.698,153.659 126.538,152.379C126.527,152.295 126.533,152.209 126.555,152.127C126.577,152.045 126.616,151.969 126.668,151.902C126.72,151.835 126.785,151.779 126.859,151.737C126.933,151.695 127.014,151.669 127.099,151.659C127.183,151.645 127.27,151.648 127.353,151.669C127.436,151.69 127.514,151.728 127.581,151.781C127.649,151.834 127.705,151.9 127.746,151.975C127.787,152.051 127.811,152.134 127.818,152.219C127.978,153.472 128.159,154.752 128.359,156.059C128.382,156.228 128.339,156.4 128.238,156.538C128.137,156.676 127.987,156.77 127.818,156.799L127.719,156.799ZM126.739,149.059C126.577,149.065 126.42,149.007 126.301,148.899C126.181,148.79 126.109,148.64 126.099,148.479C125.959,147.179 125.819,145.879 125.719,144.599C125.707,144.427 125.764,144.258 125.876,144.127C125.988,143.996 126.147,143.914 126.318,143.899C126.402,143.888 126.487,143.894 126.568,143.918C126.649,143.942 126.724,143.982 126.788,144.037C126.852,144.092 126.904,144.159 126.94,144.236C126.977,144.312 126.996,144.395 126.998,144.479C127.118,145.759 127.238,147.059 127.378,148.359C127.387,148.443 127.378,148.528 127.354,148.609C127.329,148.69 127.288,148.765 127.234,148.83C127.18,148.895 127.114,148.949 127.039,148.988C126.965,149.027 126.883,149.051 126.798,149.059L126.739,149.059ZM126.078,141.299C125.915,141.299 125.758,141.237 125.64,141.126C125.521,141.014 125.449,140.862 125.438,140.699C125.438,139.359 125.279,138.059 125.239,136.699C125.233,136.613 125.245,136.527 125.273,136.446C125.302,136.365 125.346,136.291 125.404,136.228C125.462,136.164 125.532,136.113 125.61,136.077C125.688,136.041 125.773,136.022 125.859,136.019C126.026,136.027 126.186,136.093 126.31,136.206C126.435,136.319 126.515,136.473 126.538,136.639C126.538,137.919 126.539,139.219 126.719,140.519C126.73,140.691 126.673,140.86 126.561,140.991C126.449,141.122 126.29,141.204 126.118,141.219L126.078,141.299ZM125.778,133.499C125.609,133.499 125.446,133.432 125.326,133.312C125.206,133.192 125.138,133.029 125.138,132.859C125.138,131.939 125.138,131.039 125.138,130.139L125.138,128.959C125.138,128.789 125.206,128.626 125.326,128.506C125.446,128.386 125.609,128.319 125.778,128.319L125.778,128.319C125.948,128.319 126.111,128.386 126.231,128.506C126.351,128.626 126.418,128.789 126.418,128.959L126.418,130.139C126.418,131.039 126.418,131.939 126.418,132.839C126.421,132.925 126.407,133.01 126.376,133.09C126.345,133.17 126.298,133.243 126.238,133.305C126.179,133.366 126.107,133.415 126.028,133.448C125.949,133.482 125.864,133.499 125.778,133.499L125.778,133.499ZM125.778,125.699C125.693,125.699 125.608,125.682 125.529,125.648C125.45,125.615 125.378,125.566 125.319,125.505C125.259,125.443 125.212,125.37 125.181,125.29C125.15,125.21 125.136,125.125 125.138,125.039C125.138,123.699 125.258,122.399 125.318,121.039C125.334,120.867 125.416,120.709 125.546,120.597C125.677,120.484 125.847,120.428 126.018,120.439C126.103,120.444 126.185,120.466 126.261,120.503C126.336,120.54 126.404,120.591 126.46,120.654C126.515,120.718 126.558,120.791 126.585,120.871C126.613,120.951 126.624,121.035 126.618,121.119C126.618,122.379 126.478,123.679 126.438,124.999C126.448,125.093 126.436,125.188 126.404,125.278C126.372,125.367 126.321,125.448 126.254,125.515C126.187,125.582 126.106,125.633 126.017,125.665C125.928,125.697 125.833,125.708 125.739,125.699L125.778,125.699ZM126.239,117.919C126.154,117.911 126.072,117.887 125.998,117.848C125.923,117.809 125.857,117.755 125.803,117.69C125.749,117.625 125.708,117.55 125.683,117.469C125.659,117.388 125.65,117.303 125.658,117.219C125.778,115.886 125.918,114.552 126.078,113.219C126.086,113.134 126.11,113.051 126.151,112.975C126.192,112.9 126.248,112.834 126.316,112.781C126.383,112.728 126.461,112.69 126.544,112.669C126.627,112.648 126.714,112.645 126.798,112.659C126.967,112.684 127.119,112.773 127.223,112.907C127.327,113.041 127.376,113.21 127.359,113.379C127.199,114.599 127.058,115.899 126.938,117.239C126.946,117.337 126.932,117.436 126.895,117.528C126.858,117.62 126.801,117.702 126.727,117.768C126.654,117.834 126.566,117.881 126.471,117.908C126.375,117.934 126.275,117.938 126.178,117.919L126.239,117.919ZM127.199,110.179C127.031,110.15 126.883,110.055 126.785,109.917C126.688,109.778 126.649,109.606 126.678,109.439L126.798,108.659C126.978,107.639 127.178,106.659 127.378,105.579C127.395,105.496 127.428,105.417 127.475,105.347C127.523,105.277 127.584,105.217 127.654,105.17C127.725,105.124 127.804,105.092 127.887,105.076C127.97,105.061 128.056,105.061 128.138,105.079C128.223,105.093 128.303,105.124 128.375,105.171C128.446,105.218 128.508,105.278 128.554,105.35C128.601,105.421 128.633,105.501 128.648,105.586C128.662,105.67 128.659,105.756 128.638,105.839C128.438,106.859 128.259,107.839 128.079,108.879L127.938,109.639C127.93,109.729 127.902,109.816 127.856,109.894C127.811,109.972 127.748,110.039 127.674,110.091C127.6,110.142 127.515,110.177 127.426,110.192C127.337,110.207 127.246,110.203 127.158,110.179L127.199,110.179ZM128.739,102.539L128.599,102.539C128.516,102.523 128.438,102.49 128.368,102.442C128.299,102.394 128.24,102.333 128.195,102.262C128.15,102.191 128.121,102.111 128.107,102.028C128.094,101.945 128.098,101.861 128.118,101.779C128.418,100.499 128.718,99.239 129.058,97.959C129.081,97.877 129.121,97.801 129.173,97.734C129.226,97.668 129.292,97.612 129.366,97.571C129.441,97.53 129.523,97.505 129.607,97.496C129.692,97.487 129.777,97.495 129.859,97.519C129.94,97.54 130.016,97.577 130.084,97.627C130.151,97.678 130.207,97.741 130.25,97.814C130.293,97.886 130.321,97.966 130.333,98.05C130.344,98.133 130.34,98.218 130.318,98.299C129.978,99.559 129.658,100.799 129.378,102.059C129.337,102.205 129.248,102.332 129.124,102.42C129,102.507 128.85,102.549 128.699,102.539L128.739,102.539ZM130.739,95.019L130.558,95.019C130.477,94.996 130.4,94.957 130.334,94.904C130.267,94.851 130.212,94.786 130.171,94.711C130.13,94.637 130.104,94.555 130.095,94.47C130.086,94.386 130.094,94.3 130.118,94.219C130.498,92.959 130.898,91.719 131.318,90.479C131.345,90.398 131.388,90.324 131.444,90.26C131.5,90.197 131.568,90.144 131.645,90.107C131.721,90.07 131.804,90.048 131.889,90.043C131.974,90.039 132.058,90.051 132.138,90.079C132.219,90.106 132.293,90.149 132.357,90.205C132.421,90.261 132.473,90.329 132.51,90.405C132.547,90.482 132.569,90.564 132.574,90.649C132.579,90.734 132.567,90.819 132.538,90.899C132.118,92.119 131.739,93.359 131.359,94.599C131.311,94.729 131.223,94.84 131.108,94.915C130.993,94.991 130.856,95.027 130.719,95.019L130.739,95.019ZM133.239,87.619C133.166,87.638 133.091,87.638 133.018,87.619C132.859,87.56 132.73,87.441 132.659,87.288C132.588,87.134 132.58,86.958 132.638,86.799C133.098,85.579 133.579,84.359 134.099,83.159C134.129,83.08 134.176,83.007 134.235,82.946C134.294,82.885 134.365,82.836 134.443,82.803C134.521,82.769 134.605,82.752 134.69,82.751C134.775,82.75 134.86,82.767 134.938,82.799C135.016,82.832 135.086,82.879 135.145,82.939C135.204,82.999 135.251,83.07 135.283,83.148C135.314,83.226 135.33,83.31 135.329,83.394C135.329,83.478 135.311,83.562 135.278,83.639C134.778,84.839 134.299,86.039 133.859,87.259C133.8,87.376 133.707,87.472 133.593,87.536C133.479,87.6 133.349,87.629 133.219,87.619L133.239,87.619ZM136.178,80.539C136.086,80.558 135.991,80.558 135.898,80.539C135.744,80.465 135.624,80.334 135.565,80.174C135.505,80.013 135.51,79.836 135.579,79.679C136.139,78.499 136.698,77.319 137.298,76.139C137.379,75.992 137.513,75.881 137.673,75.829C137.833,75.777 138.006,75.787 138.158,75.859C138.314,75.936 138.434,76.072 138.49,76.237C138.546,76.402 138.535,76.582 138.459,76.739C137.859,77.879 137.298,79.039 136.758,80.219C136.702,80.322 136.617,80.406 136.515,80.463C136.412,80.52 136.296,80.546 136.178,80.539L136.178,80.539ZM139.699,73.579C139.6,73.606 139.497,73.606 139.398,73.579C139.323,73.539 139.256,73.485 139.202,73.418C139.147,73.352 139.107,73.276 139.083,73.194C139.058,73.112 139.051,73.026 139.06,72.941C139.07,72.856 139.097,72.774 139.138,72.699C139.778,71.559 140.438,70.419 141.138,69.319C141.18,69.245 141.236,69.179 141.303,69.128C141.371,69.076 141.448,69.038 141.531,69.018C141.613,68.997 141.699,68.994 141.783,69.008C141.867,69.022 141.947,69.053 142.018,69.099C142.091,69.142 142.154,69.199 142.204,69.267C142.254,69.335 142.291,69.412 142.311,69.493C142.332,69.575 142.336,69.66 142.323,69.743C142.311,69.827 142.282,69.907 142.239,69.979C141.559,71.079 140.919,72.199 140.239,73.339C140.173,73.394 140.096,73.435 140.013,73.46C139.931,73.484 139.844,73.49 139.758,73.479L139.699,73.579ZM143.699,66.919C143.581,66.955 143.456,66.955 143.339,66.919C143.267,66.873 143.205,66.812 143.157,66.741C143.109,66.671 143.075,66.591 143.058,66.507C143.042,66.423 143.042,66.337 143.059,66.253C143.076,66.169 143.11,66.09 143.158,66.019C143.898,64.939 144.638,63.859 145.419,62.799C145.522,62.665 145.673,62.575 145.841,62.549C146.008,62.523 146.179,62.562 146.319,62.659C146.453,62.762 146.543,62.913 146.569,63.081C146.595,63.249 146.555,63.42 146.459,63.559C145.699,64.599 144.959,65.659 144.239,66.739C144.112,66.813 143.964,66.841 143.818,66.819L143.699,66.919ZM231.699,62.499L230.879,62.499C230.794,62.494 230.712,62.472 230.636,62.435C230.561,62.398 230.493,62.347 230.437,62.284C230.382,62.22 230.339,62.147 230.312,62.067C230.284,61.987 230.273,61.903 230.279,61.819C230.281,61.734 230.301,61.65 230.337,61.573C230.373,61.496 230.424,61.427 230.488,61.371C230.552,61.315 230.627,61.272 230.707,61.246C230.788,61.22 230.874,61.211 230.959,61.219C231.724,61.289 232.493,61.289 233.259,61.219C233.717,61.161 234.171,61.075 234.618,60.959C234.786,60.916 234.963,60.94 235.112,61.026C235.262,61.112 235.372,61.253 235.419,61.419C235.439,61.502 235.443,61.588 235.43,61.672C235.417,61.757 235.388,61.837 235.343,61.91C235.298,61.983 235.239,62.046 235.17,62.095C235.1,62.145 235.022,62.18 234.939,62.199C234.434,62.339 233.919,62.439 233.399,62.499C232.904,62.489 232.41,62.456 231.919,62.399L231.699,62.499ZM227.099,61.719L226.899,61.719C225.599,61.263 224.388,60.586 223.319,59.719C223.199,59.596 223.132,59.431 223.132,59.259C223.132,59.087 223.199,58.922 223.319,58.799C223.378,58.737 223.45,58.688 223.529,58.655C223.608,58.621 223.693,58.604 223.779,58.604C223.864,58.604 223.949,58.621 224.028,58.655C224.107,58.688 224.179,58.737 224.239,58.799C225.194,59.562 226.268,60.164 227.419,60.579C227.499,60.606 227.573,60.649 227.637,60.705C227.701,60.761 227.753,60.829 227.79,60.905C227.828,60.982 227.849,61.064 227.854,61.149C227.859,61.234 227.847,61.319 227.819,61.399C227.756,61.469 227.679,61.525 227.592,61.563C227.506,61.601 227.413,61.62 227.319,61.619L227.099,61.719ZM148.199,60.639C148.053,60.641 147.911,60.591 147.799,60.499C147.679,60.376 147.612,60.211 147.612,60.039C147.612,59.867 147.679,59.702 147.799,59.579C148.619,58.559 149.479,57.579 150.319,56.579C150.442,56.459 150.607,56.392 150.779,56.392C150.95,56.392 151.115,56.459 151.239,56.579C151.358,56.702 151.425,56.867 151.425,57.039C151.425,57.211 151.358,57.376 151.239,57.499C150.399,58.459 149.559,59.499 148.759,60.459C148.654,60.515 148.537,60.542 148.419,60.539L148.199,60.639ZM238.319,60.539C238.213,60.536 238.11,60.509 238.017,60.461C237.923,60.412 237.842,60.343 237.779,60.259C237.688,60.113 237.658,59.936 237.695,59.768C237.733,59.6 237.834,59.453 237.979,59.359C239.01,58.674 239.945,57.853 240.759,56.919C240.878,56.801 241.04,56.734 241.209,56.734C241.377,56.734 241.539,56.801 241.659,56.919C241.778,57.042 241.845,57.207 241.845,57.379C241.845,57.551 241.778,57.716 241.659,57.839C240.771,58.874 239.741,59.776 238.599,60.519C238.579,60.527 238.559,60.534 238.539,60.539L238.319,60.539ZM221.259,56.839C221.144,56.836 221.032,56.803 220.933,56.743C220.835,56.684 220.754,56.6 220.699,56.499C220.038,55.254 219.611,53.898 219.439,52.499C219.427,52.415 219.433,52.329 219.455,52.247C219.477,52.165 219.516,52.089 219.568,52.022C219.62,51.955 219.685,51.899 219.759,51.857C219.833,51.815 219.914,51.789 219.998,51.779C220.165,51.756 220.335,51.8 220.469,51.901C220.604,52.002 220.694,52.152 220.719,52.319C220.884,53.533 221.256,54.71 221.819,55.799C221.86,55.874 221.887,55.956 221.897,56.041C221.906,56.126 221.899,56.212 221.874,56.294C221.85,56.376 221.81,56.452 221.755,56.518C221.701,56.585 221.634,56.639 221.559,56.679C221.533,56.701 221.506,56.721 221.479,56.739L221.259,56.839ZM153.359,54.839C153.188,54.841 153.023,54.776 152.899,54.659C152.779,54.536 152.712,54.371 152.712,54.199C152.712,54.027 152.779,53.862 152.899,53.739C153.819,52.799 154.759,51.879 155.699,50.979C155.822,50.859 155.987,50.792 156.159,50.792C156.33,50.792 156.495,50.859 156.618,50.979C156.737,51.099 156.803,51.261 156.803,51.429C156.803,51.598 156.737,51.759 156.618,51.879C155.698,52.759 154.779,53.679 153.879,54.599C153.787,54.652 153.684,54.679 153.579,54.679L153.359,54.839ZM243.359,54.839C243.259,54.858 243.158,54.858 243.059,54.839C242.91,54.754 242.798,54.617 242.746,54.454C242.694,54.291 242.706,54.114 242.779,53.959C243.342,52.846 243.752,51.662 243.998,50.439C244.017,50.356 244.053,50.277 244.102,50.208C244.152,50.138 244.215,50.079 244.287,50.035C244.36,49.99 244.441,49.96 244.525,49.947C244.61,49.934 244.696,49.938 244.779,49.959C244.861,49.976 244.94,50.009 245.01,50.056C245.081,50.103 245.141,50.164 245.187,50.235C245.234,50.305 245.266,50.385 245.281,50.468C245.297,50.551 245.296,50.636 245.279,50.719C244.988,52.042 244.538,53.325 243.939,54.539C243.842,54.599 243.732,54.634 243.618,54.639L243.359,54.839ZM158.979,49.539C158.888,49.539 158.798,49.519 158.715,49.481C158.632,49.443 158.558,49.388 158.498,49.319C158.379,49.196 158.312,49.031 158.312,48.859C158.312,48.687 158.379,48.522 158.498,48.399L159.699,47.399L161.559,45.939C161.697,45.834 161.871,45.788 162.043,45.81C162.215,45.833 162.372,45.922 162.479,46.059C162.578,46.196 162.62,46.365 162.598,46.533C162.576,46.7 162.49,46.853 162.359,46.959L160.519,48.399L159.339,49.399C159.303,49.382 159.27,49.362 159.239,49.339L158.979,49.539ZM220.019,49.359C219.847,49.339 219.69,49.252 219.581,49.118C219.473,48.983 219.422,48.811 219.439,48.639C219.591,47.282 219.872,45.943 220.279,44.639C220.302,44.557 220.341,44.481 220.393,44.414C220.446,44.348 220.512,44.292 220.586,44.251C220.661,44.21 220.743,44.185 220.827,44.176C220.912,44.167 220.997,44.175 221.079,44.199C221.16,44.222 221.236,44.261 221.302,44.314C221.368,44.367 221.422,44.433 221.462,44.508C221.501,44.583 221.524,44.665 221.531,44.75C221.537,44.834 221.526,44.919 221.498,44.999C221.136,46.209 220.875,47.446 220.719,48.699C220.692,48.807 220.637,48.907 220.56,48.988C220.483,49.068 220.386,49.127 220.279,49.159L220.019,49.359ZM244.919,47.359C244.756,47.359 244.599,47.297 244.48,47.186C244.361,47.074 244.289,46.922 244.279,46.759C244.186,45.529 243.903,44.321 243.439,43.179C243.406,43.102 243.388,43.018 243.388,42.934C243.387,42.85 243.403,42.767 243.434,42.688C243.466,42.61 243.513,42.539 243.572,42.479C243.631,42.419 243.701,42.372 243.779,42.339C243.856,42.306 243.939,42.289 244.023,42.288C244.108,42.287 244.191,42.303 244.269,42.335C244.347,42.366 244.418,42.413 244.478,42.472C244.538,42.531 244.586,42.601 244.618,42.679C245.149,43.952 245.466,45.303 245.559,46.679C245.567,46.765 245.558,46.851 245.532,46.933C245.506,47.015 245.463,47.091 245.407,47.157C245.351,47.222 245.283,47.275 245.206,47.314C245.129,47.352 245.045,47.374 244.959,47.379L244.919,47.359ZM165.439,44.539C165.332,44.541 165.227,44.516 165.133,44.467C165.039,44.418 164.958,44.347 164.899,44.259C164.804,44.117 164.768,43.945 164.798,43.777C164.827,43.609 164.921,43.459 165.059,43.359C166.139,42.619 167.259,41.899 168.359,41.219C168.507,41.13 168.685,41.103 168.854,41.145C169.022,41.186 169.167,41.292 169.259,41.439C169.302,41.511 169.331,41.591 169.343,41.675C169.356,41.758 169.352,41.843 169.331,41.925C169.311,42.006 169.275,42.083 169.224,42.151C169.174,42.219 169.111,42.276 169.039,42.319C167.945,42.999 166.865,43.699 165.799,44.419C165.693,44.494 165.568,44.536 165.439,44.539ZM222.439,41.639C222.353,41.659 222.264,41.659 222.179,41.639C222.021,41.569 221.896,41.439 221.833,41.279C221.769,41.118 221.771,40.938 221.839,40.779C222.339,39.639 222.919,38.439 223.579,37.239C223.618,37.163 223.673,37.096 223.739,37.042C223.805,36.988 223.882,36.947 223.964,36.923C224.046,36.899 224.132,36.891 224.217,36.901C224.302,36.911 224.384,36.937 224.459,36.979C224.608,37.063 224.718,37.202 224.766,37.366C224.815,37.531 224.798,37.707 224.719,37.859C224.079,39.019 223.499,40.179 223.019,41.299C222.972,41.415 222.892,41.515 222.789,41.586C222.685,41.657 222.564,41.696 222.439,41.699L222.439,41.639ZM172.179,40.539C172.06,40.542 171.943,40.511 171.84,40.451C171.738,40.391 171.654,40.304 171.599,40.199C171.519,40.047 171.502,39.871 171.551,39.706C171.599,39.542 171.71,39.403 171.859,39.319C172.999,38.699 174.179,38.099 175.359,37.519C175.435,37.482 175.517,37.46 175.602,37.455C175.686,37.45 175.771,37.461 175.851,37.489C175.931,37.517 176.005,37.561 176.068,37.617C176.131,37.674 176.182,37.742 176.219,37.819C176.256,37.895 176.278,37.978 176.283,38.062C176.288,38.147 176.276,38.232 176.248,38.312C176.22,38.392 176.177,38.465 176.12,38.528C176.064,38.591 175.995,38.643 175.919,38.679C174.759,39.239 173.599,39.839 172.479,40.459C172.388,40.513 172.284,40.541 172.179,40.539L172.179,40.539ZM242.339,40.039C242.243,40.038 242.148,40.016 242.062,39.974C241.976,39.933 241.9,39.873 241.839,39.799C241.03,38.853 240.118,38.001 239.118,37.259C239.047,37.211 238.987,37.149 238.941,37.077C238.895,37.005 238.865,36.924 238.852,36.84C238.838,36.755 238.843,36.669 238.865,36.586C238.887,36.503 238.925,36.426 238.979,36.359C239.026,36.288 239.088,36.228 239.16,36.182C239.233,36.136 239.313,36.105 239.398,36.092C239.482,36.079 239.569,36.083 239.651,36.105C239.734,36.127 239.811,36.166 239.879,36.219C240.967,37.023 241.96,37.949 242.839,38.979C242.952,39.101 243.016,39.262 243.016,39.429C243.016,39.596 242.952,39.757 242.839,39.879C242.75,39.958 242.643,40.012 242.527,40.037C242.411,40.061 242.291,40.055 242.179,40.019L242.339,40.039ZM179.179,37.139C179.052,37.133 178.929,37.093 178.823,37.022C178.717,36.952 178.633,36.854 178.579,36.739C178.546,36.662 178.528,36.578 178.528,36.494C178.527,36.41 178.543,36.327 178.574,36.248C178.606,36.17 178.653,36.099 178.712,36.039C178.771,35.979 178.841,35.932 178.919,35.899C180.139,35.379 181.359,34.899 182.579,34.439C182.74,34.38 182.919,34.387 183.076,34.458C183.233,34.529 183.356,34.659 183.419,34.819C183.476,34.983 183.467,35.164 183.392,35.321C183.317,35.479 183.183,35.6 183.019,35.659C181.819,36.099 180.619,36.579 179.439,37.079C179.325,37.128 179.2,37.142 179.079,37.119L179.179,37.139ZM236.159,35.379C236.067,35.408 235.97,35.408 235.879,35.379C234.733,34.827 233.558,34.339 232.359,33.919C232.278,33.892 232.204,33.849 232.14,33.793C232.076,33.737 232.024,33.669 231.987,33.593C231.95,33.516 231.928,33.434 231.923,33.349C231.918,33.264 231.93,33.179 231.959,33.099C231.986,33.018 232.028,32.944 232.084,32.88C232.14,32.816 232.208,32.764 232.285,32.727C232.361,32.69 232.444,32.668 232.529,32.664C232.614,32.659 232.698,32.671 232.779,32.699C234.033,33.136 235.262,33.643 236.459,34.219C236.611,34.3 236.726,34.437 236.778,34.602C236.83,34.766 236.816,34.945 236.739,35.099C236.665,35.206 236.561,35.289 236.439,35.335C236.318,35.382 236.185,35.39 236.059,35.359L236.159,35.379ZM226.159,34.839C226.037,34.846 225.917,34.811 225.819,34.739C225.746,34.696 225.682,34.639 225.633,34.571C225.583,34.502 225.547,34.425 225.529,34.342C225.51,34.26 225.508,34.174 225.524,34.091C225.539,34.008 225.571,33.929 225.618,33.859C225.938,33.339 226.278,32.839 226.618,32.299L224.839,31.939C224.672,31.91 224.523,31.815 224.426,31.677C224.328,31.538 224.29,31.366 224.319,31.199C224.333,31.114 224.364,31.033 224.41,30.961C224.457,30.888 224.517,30.826 224.588,30.778C224.659,30.729 224.739,30.695 224.823,30.678C224.908,30.662 224.994,30.662 225.079,30.679C225.859,30.819 226.639,30.979 227.399,31.159L227.799,30.599C227.847,30.529 227.908,30.469 227.98,30.423C228.051,30.376 228.131,30.345 228.215,30.33C228.299,30.315 228.385,30.317 228.468,30.336C228.551,30.354 228.629,30.39 228.699,30.439C228.769,30.487 228.829,30.549 228.875,30.62C228.921,30.692 228.953,30.772 228.968,30.855C228.983,30.939 228.98,31.025 228.962,31.108C228.943,31.191 228.908,31.27 228.859,31.339L228.759,31.479L228.919,31.479C229.085,31.526 229.228,31.635 229.317,31.784C229.407,31.932 229.436,32.11 229.399,32.279C229.347,32.442 229.237,32.58 229.089,32.665C228.94,32.751 228.765,32.777 228.599,32.739L227.979,32.599C227.519,33.239 227.099,33.899 226.699,34.599C226.635,34.674 226.555,34.733 226.465,34.772C226.375,34.81 226.276,34.826 226.179,34.819L226.159,34.839ZM186.439,34.419C186.301,34.425 186.165,34.385 186.053,34.305C185.941,34.226 185.858,34.111 185.819,33.979C185.768,33.815 185.783,33.637 185.862,33.484C185.94,33.33 186.076,33.214 186.239,33.159C187.479,32.779 188.759,32.399 190.019,32.079C190.1,32.055 190.185,32.048 190.27,32.059C190.354,32.069 190.435,32.097 190.508,32.14C190.582,32.183 190.645,32.241 190.695,32.309C190.745,32.378 190.78,32.456 190.799,32.539C190.82,32.62 190.824,32.705 190.813,32.788C190.801,32.872 190.773,32.952 190.73,33.024C190.687,33.097 190.631,33.16 190.564,33.211C190.496,33.261 190.42,33.298 190.339,33.319C189.099,33.639 187.858,34.019 186.618,34.399L186.439,34.419ZM193.959,32.419C193.81,32.421 193.666,32.37 193.552,32.274C193.438,32.179 193.363,32.046 193.339,31.899C193.321,31.816 193.32,31.731 193.336,31.648C193.351,31.565 193.384,31.485 193.43,31.415C193.477,31.344 193.537,31.283 193.607,31.236C193.677,31.189 193.756,31.156 193.839,31.139C195.119,30.859 196.419,30.619 197.699,30.419C197.866,30.39 198.037,30.428 198.176,30.526C198.315,30.623 198.409,30.772 198.439,30.939C198.456,31.023 198.455,31.111 198.437,31.195C198.418,31.279 198.383,31.359 198.332,31.428C198.281,31.498 198.216,31.556 198.142,31.599C198.067,31.642 197.984,31.67 197.899,31.679C196.639,31.899 195.359,32.139 194.099,32.399L193.959,32.419ZM221.099,31.319C219.839,31.139 218.539,30.999 217.259,30.899C217.087,30.884 216.928,30.802 216.816,30.671C216.704,30.54 216.647,30.371 216.659,30.199C216.666,30.115 216.69,30.033 216.73,29.958C216.769,29.883 216.823,29.817 216.888,29.763C216.953,29.709 217.028,29.669 217.109,29.644C217.19,29.619 217.274,29.611 217.359,29.619C218.659,29.619 219.979,29.859 221.359,30.039C221.442,30.049 221.523,30.075 221.596,30.117C221.669,30.159 221.733,30.216 221.783,30.283C221.834,30.35 221.87,30.427 221.89,30.509C221.91,30.591 221.913,30.676 221.899,30.759C221.891,30.856 221.862,30.95 221.813,31.034C221.764,31.118 221.696,31.19 221.615,31.244C221.534,31.298 221.442,31.333 221.346,31.346C221.249,31.359 221.151,31.35 221.059,31.319L221.099,31.319ZM201.659,31.159C201.499,31.16 201.344,31.101 201.226,30.993C201.107,30.886 201.034,30.738 201.019,30.579C201.002,30.412 201.051,30.245 201.155,30.115C201.26,29.984 201.412,29.899 201.579,29.879C202.879,29.719 204.199,29.599 205.579,29.519C205.663,29.514 205.747,29.525 205.827,29.552C205.906,29.579 205.98,29.622 206.043,29.678C206.106,29.734 206.158,29.801 206.195,29.877C206.232,29.953 206.253,30.035 206.259,30.119C206.267,30.204 206.258,30.289 206.231,30.37C206.205,30.451 206.163,30.526 206.106,30.589C206.05,30.653 205.981,30.705 205.904,30.741C205.827,30.777 205.744,30.797 205.659,30.799C204.379,30.899 203.079,30.999 201.819,31.159L201.659,31.159ZM213.339,30.679C212.039,30.679 210.759,30.679 209.459,30.679C209.375,30.682 209.293,30.668 209.215,30.638C209.138,30.608 209.067,30.562 209.007,30.505C208.947,30.447 208.9,30.378 208.868,30.301C208.835,30.224 208.819,30.142 208.819,30.059C208.816,29.975 208.83,29.891 208.86,29.812C208.889,29.734 208.934,29.662 208.992,29.601C209.049,29.539 209.118,29.49 209.195,29.455C209.272,29.421 209.355,29.402 209.439,29.399C210.759,29.399 212.059,29.399 213.439,29.399C213.524,29.401 213.609,29.421 213.687,29.457C213.765,29.493 213.835,29.544 213.893,29.608C213.951,29.671 213.995,29.745 214.024,29.826C214.052,29.907 214.064,29.993 214.059,30.079C214.054,30.171 214.031,30.261 213.989,30.342C213.947,30.424 213.888,30.496 213.816,30.553C213.744,30.61 213.66,30.65 213.571,30.672C213.482,30.694 213.389,30.696 213.299,30.679L213.339,30.679ZM230.639,28.459C230.493,28.461 230.351,28.411 230.239,28.319C230.12,28.199 230.054,28.038 230.054,27.869C230.054,27.701 230.12,27.539 230.239,27.419C231.039,26.379 231.879,25.419 232.719,24.359C232.838,24.241 233,24.174 233.169,24.174C233.337,24.174 233.499,24.241 233.618,24.359C233.738,24.482 233.805,24.647 233.805,24.819C233.805,24.991 233.738,25.156 233.618,25.279C232.798,26.239 231.959,27.279 231.179,28.259C231.115,28.353 231.028,28.428 230.926,28.477C230.824,28.526 230.711,28.548 230.599,28.539L230.639,28.459ZM235.719,22.459C235.637,22.459 235.556,22.444 235.481,22.413C235.405,22.382 235.336,22.337 235.279,22.279C235.217,22.221 235.169,22.151 235.135,22.074C235.102,21.997 235.085,21.913 235.085,21.829C235.085,21.745 235.102,21.662 235.135,21.584C235.169,21.507 235.217,21.437 235.279,21.379C236.179,20.419 237.119,19.499 238.079,18.619C238.137,18.558 238.206,18.509 238.284,18.476C238.361,18.443 238.444,18.426 238.529,18.426C238.613,18.426 238.696,18.443 238.774,18.476C238.851,18.509 238.921,18.558 238.979,18.619C239.04,18.679 239.089,18.75 239.123,18.829C239.156,18.908 239.174,18.993 239.174,19.079C239.174,19.165 239.156,19.25 239.123,19.329C239.089,19.408 239.04,19.479 238.979,19.539C238.039,20.399 237.119,21.319 236.219,22.239C236.166,22.335 236.087,22.414 235.992,22.467C235.896,22.52 235.788,22.545 235.679,22.539L235.719,22.459ZM241.419,17.159C241.229,17.154 241.05,17.075 240.919,16.939C240.799,16.816 240.732,16.651 240.732,16.479C240.732,16.307 240.799,16.142 240.919,16.019C241.939,15.179 242.919,14.379 244.039,13.619C244.108,13.57 244.186,13.535 244.269,13.516C244.352,13.497 244.438,13.495 244.522,13.51C244.606,13.525 244.686,13.556 244.757,13.603C244.829,13.649 244.891,13.709 244.939,13.779C244.989,13.847 245.025,13.925 245.046,14.007C245.066,14.089 245.07,14.175 245.057,14.258C245.044,14.342 245.014,14.422 244.97,14.495C244.926,14.567 244.867,14.63 244.799,14.679C243.759,15.426 242.739,16.206 241.739,17.019C241.648,17.132 241.521,17.21 241.379,17.239L241.419,17.159ZM247.759,12.639C247.65,12.639 247.544,12.611 247.45,12.559C247.355,12.506 247.276,12.431 247.219,12.339C247.128,12.193 247.098,12.016 247.135,11.848C247.173,11.68 247.274,11.533 247.419,11.439C248.539,10.759 249.699,10.099 250.859,9.439C251.013,9.361 251.191,9.347 251.356,9.4C251.52,9.452 251.658,9.567 251.739,9.719C251.815,9.87 251.829,10.046 251.776,10.207C251.724,10.368 251.61,10.502 251.459,10.579C250.319,11.179 249.199,11.819 248.099,12.579C248.048,12.627 247.988,12.664 247.923,12.688C247.857,12.712 247.788,12.722 247.719,12.719L247.759,12.639ZM254.679,9.039C254.552,9.042 254.428,9.008 254.321,8.94C254.214,8.872 254.13,8.775 254.079,8.659C254.046,8.582 254.028,8.498 254.028,8.414C254.027,8.33 254.043,8.247 254.074,8.169C254.106,8.09 254.153,8.019 254.212,7.959C254.271,7.9 254.341,7.852 254.419,7.819C255.619,7.299 256.859,6.819 258.099,6.379C258.179,6.351 258.263,6.339 258.348,6.344C258.433,6.348 258.516,6.37 258.592,6.407C258.669,6.445 258.737,6.497 258.793,6.56C258.849,6.624 258.892,6.699 258.919,6.779C258.947,6.859 258.959,6.944 258.954,7.029C258.949,7.114 258.928,7.197 258.89,7.273C258.853,7.349 258.801,7.417 258.737,7.473C258.673,7.529 258.599,7.572 258.519,7.599C257.319,8.019 256.099,8.499 254.939,8.999C254.85,9.064 254.747,9.105 254.639,9.119L254.679,9.039ZM304.479,7.439L304.339,7.439L300.539,6.639C300.454,6.625 300.373,6.593 300.3,6.547C300.228,6.501 300.166,6.44 300.117,6.369C300.069,6.299 300.035,6.219 300.018,6.134C300.001,6.05 300.001,5.963 300.019,5.879C300.057,5.714 300.157,5.57 300.299,5.477C300.44,5.384 300.612,5.349 300.779,5.379C302.059,5.619 303.338,5.899 304.618,6.179C304.783,6.217 304.927,6.318 305.02,6.459C305.113,6.601 305.149,6.772 305.118,6.939C305.094,7.102 305.012,7.25 304.887,7.356C304.762,7.463 304.603,7.521 304.439,7.519L304.479,7.439ZM262.039,6.479C261.893,6.484 261.751,6.439 261.634,6.351C261.518,6.264 261.435,6.14 261.399,5.999C261.377,5.918 261.373,5.833 261.384,5.75C261.396,5.666 261.424,5.586 261.467,5.514C261.51,5.441 261.566,5.378 261.633,5.327C261.701,5.277 261.777,5.24 261.859,5.219C263.119,4.879 264.399,4.559 265.699,4.299C265.868,4.27 266.042,4.307 266.184,4.405C266.326,4.502 266.425,4.65 266.459,4.819C266.489,4.986 266.453,5.158 266.36,5.299C266.267,5.44 266.123,5.541 265.959,5.579C264.679,5.819 263.419,6.119 262.199,6.459L262.039,6.479ZM296.839,5.919L296.719,5.919C295.385,5.692 294.105,5.492 292.878,5.319C292.71,5.29 292.56,5.196 292.459,5.058C292.359,4.92 292.315,4.748 292.339,4.579C292.348,4.495 292.375,4.415 292.417,4.342C292.459,4.269 292.515,4.205 292.582,4.154C292.65,4.104 292.727,4.067 292.809,4.048C292.891,4.028 292.976,4.025 293.059,4.039C294.359,4.219 295.639,4.419 296.939,4.639C297.106,4.668 297.254,4.763 297.352,4.901C297.449,5.04 297.488,5.212 297.459,5.379C297.459,5.464 297.441,5.548 297.408,5.626C297.374,5.704 297.325,5.774 297.263,5.832C297.201,5.89 297.128,5.935 297.048,5.964C296.968,5.993 296.883,6.005 296.799,5.999L296.839,5.919ZM269.659,4.939C269.503,4.936 269.353,4.878 269.236,4.776C269.119,4.673 269.042,4.533 269.019,4.379C269.007,4.295 269.013,4.209 269.035,4.127C269.057,4.046 269.096,3.969 269.148,3.902C269.2,3.835 269.265,3.779 269.339,3.737C269.413,3.695 269.494,3.669 269.579,3.659C270.859,3.479 272.179,3.339 273.579,3.239C273.662,3.231 273.745,3.239 273.825,3.264C273.905,3.289 273.978,3.33 274.042,3.384C274.105,3.438 274.157,3.505 274.195,3.58C274.232,3.654 274.254,3.736 274.259,3.819C274.267,3.903 274.258,3.988 274.234,4.069C274.209,4.15 274.168,4.225 274.114,4.29C274.061,4.355 273.994,4.409 273.919,4.448C273.845,4.487 273.763,4.512 273.679,4.519C272.379,4.619 271.079,4.759 269.839,4.939L269.659,4.939ZM289.118,4.839C287.838,4.699 286.538,4.599 285.259,4.499C285.174,4.494 285.092,4.472 285.016,4.435C284.941,4.398 284.873,4.347 284.817,4.284C284.762,4.221 284.719,4.147 284.692,4.067C284.664,3.987 284.653,3.903 284.659,3.819C284.664,3.733 284.686,3.649 284.724,3.572C284.762,3.495 284.816,3.426 284.881,3.37C284.946,3.314 285.022,3.272 285.104,3.246C285.186,3.22 285.273,3.211 285.359,3.219C286.659,3.219 287.959,3.419 289.359,3.559C289.443,3.567 289.525,3.591 289.599,3.63C289.674,3.669 289.74,3.723 289.794,3.788C289.848,3.853 289.889,3.928 289.914,4.009C289.938,4.09 289.947,4.175 289.939,4.259C289.949,4.367 289.931,4.476 289.888,4.575C289.845,4.674 289.777,4.761 289.691,4.827C289.605,4.893 289.504,4.936 289.397,4.952C289.29,4.968 289.18,4.957 289.079,4.919L289.118,4.839ZM277.439,4.319C277.27,4.319 277.108,4.255 276.985,4.14C276.863,4.025 276.789,3.867 276.779,3.699C276.776,3.613 276.79,3.528 276.821,3.448C276.852,3.368 276.899,3.295 276.959,3.234C277.019,3.172 277.09,3.123 277.169,3.09C277.248,3.056 277.333,3.039 277.419,3.039C278.719,3.039 280.039,3.039 281.419,3.039C281.504,3.039 281.589,3.056 281.668,3.09C281.747,3.123 281.819,3.172 281.878,3.234C281.938,3.295 281.985,3.368 282.016,3.448C282.047,3.528 282.061,3.613 282.059,3.699C282.053,3.865 281.984,4.023 281.864,4.139C281.745,4.254 281.585,4.319 281.419,4.319L277.519,4.319L277.439,4.319Z" transform="rotate(360 215.134 112.579)" fill="#999999"/>
<path d="M10.38,152.26L16.02,154.7L38.56,138.98L44.56,142.3C49.38,145.18 54.06,145.38 56.3,144.1L56.76,144.32C60.24,145.84 62.3,144.48 63,142.84C63.7,141.2 63.3,138.84 59.82,137.28L59.36,137.08C58.94,135.08 57.12,131.72 50.02,129.74L43.48,127.64L39.48,100.46L33.84,98L29.46,123.18L13.34,117.66L10.9,111.2L6.42,109.54L6.1,115.54L4.5,115.4L3.04,118.74L4.24,119.92L0,124.32L4.28,126.46L10.64,123.82L25.7,131.82L10.38,152.26ZM10.8,122.36L4.4,125.02L2.4,123.98L6.28,119.98L4.82,118.5L5.5,116.92L7.5,117.1L7.8,111.5L9.98,112.3L12.42,118.78L30.66,125L35,99.98L38.38,101.44L42.28,128.72L49.66,131.08C56.54,132.98 57.9,136.06 58.1,137.72L58.1,138.14L58.5,138.28C58.754,138.352 59.002,138.446 59.24,138.56C61.38,139.48 62.34,140.94 61.72,142.34C61.1,143.74 59.4,144.06 57.26,143.12C57.019,143.023 56.785,142.909 56.56,142.78L56.18,142.56L55.82,142.82C54.36,143.9 50.1,144.1 45.18,141.18L38.46,137.42L15.86,153.2L12.48,151.74L27.8,131.46L10.8,122.36Z" transform="rotate(360 31.644 126.35)" fill="#999999"/>
</svg>
