<svg width="56" height="64" viewBox="0 0 56 64" fill="none" xmlns="http://www.w3.org/2000/svg" xmlns:xlink="http://www.w3.org/1999/xlink">
<path d="M24.684,63.862C16.599,63.048 9.153,58.53 4.535,51.622C2.358,48.356 0.718,43.838 0.218,39.734C0.03,38.169 0.068,35.216 0.28,33.952C1.632,26.255 9.253,15.393 21.493,3.729C24.008,1.339 24.571,0.864 25.359,0.463C26.248,0.025 26.361,0 27.499,0C28.638,0 28.751,0.025 29.639,0.463C30.428,0.864 30.991,1.339 33.506,3.729C41.453,11.301 47.848,19.022 51.377,25.342C53.117,28.471 54.155,31.111 54.669,33.739C54.944,35.153 54.994,37.969 54.781,39.734C54.318,43.576 52.891,47.693 50.939,50.872C49.425,53.324 46.935,56.14 44.694,57.955C39.113,62.435 31.855,64.587 24.684,63.862ZM31.504,61.822C38.124,60.72 44.031,57.141 47.986,51.823C50.626,48.281 52.203,44.439 52.854,39.984C53.154,37.844 53.054,34.715 52.604,33.038C50.651,25.63 43.668,16.081 32.017,4.906C30.465,3.429 29.214,2.328 28.889,2.165C28.138,1.802 27.299,1.74 26.523,2.002C25.772,2.24 24.096,3.742 20.379,7.459C12.47,15.355 7.289,22.013 4.348,28.033C2.521,31.749 1.97,33.827 1.97,36.918C1.97,48.331 10.042,58.53 21.317,61.371C22.268,61.609 24.271,61.959 25.309,62.06C26.361,62.16 30.365,62.009 31.504,61.822Z" fill="#FFB60A"/>
<path d="M25.372,47.883C20.704,47.345 16.687,45.481 13.308,42.264C10.267,39.361 8.252,35.744 7.326,31.464C7.088,30.363 7.051,29.812 7.051,27.435C7.051,25.057 7.088,24.506 7.326,23.417C7.939,20.614 9.153,17.798 10.693,15.608C11.906,13.894 14.234,11.616 15.911,10.49C20.529,7.411 25.497,6.31 30.941,7.174C31.629,7.286 32.368,7.449 32.593,7.537C33.244,7.812 33.331,8.688 32.743,9.126C32.43,9.364 32.405,9.364 30.991,9.088C29.126,8.713 26.035,8.688 24.246,9.026C20.404,9.764 17.05,11.529 14.297,14.294C12.532,16.046 10.542,18.962 10.93,19.213C11.005,19.263 12.482,20.477 14.197,21.903C16.236,23.593 17.363,24.606 17.413,24.807C17.588,25.482 16.812,26.183 16.199,25.895C16.049,25.833 14.597,24.669 12.983,23.33L10.042,20.89L9.867,21.277C9.591,21.928 9.128,23.893 8.966,25.082C8.74,26.771 8.89,29.875 9.266,31.502C10.855,38.197 15.673,43.366 22.156,45.318C24.071,45.894 25.284,46.069 27.5,46.069C29.927,46.069 31.254,45.856 33.394,45.143C35.922,44.304 38.174,42.99 40.039,41.276C41.165,40.225 41.591,40.074 42.066,40.55C42.655,41.138 42.529,41.489 41.353,42.602C37.236,46.494 31.066,48.534 25.372,47.883Z" fill="#FFB60A"/>
<path d="M32.005,22.63C31.192,22.33 30.103,21.216 29.815,20.352C29.314,18.838 29.827,17.136 31.066,16.185C32.969,14.733 35.609,15.359 36.736,17.524C37.211,18.45 37.211,19.752 36.723,20.74C36.297,21.604 35.459,22.38 34.671,22.643C33.945,22.893 32.743,22.88 32.005,22.63ZM34.258,20.778C35.396,20.19 35.559,18.6 34.571,17.737C33.757,17.011 32.468,17.161 31.83,18.05C31.467,18.55 31.429,19.552 31.742,20.065C32.268,20.891 33.407,21.216 34.258,20.778Z" fill="#FFB60A"/>
<path d="M43.28,45.679C42.955,45.266 42.955,45.053 43.268,44.502C43.918,43.364 44.769,41.599 45.082,40.748C45.783,38.783 46.033,37.369 46.108,34.841C46.146,33.54 46.146,32.489 46.096,32.489C46.046,32.489 44.87,33.402 43.48,34.516C42.091,35.642 40.752,36.656 40.514,36.769C39.964,37.056 39.213,37.044 38.575,36.756C38.299,36.618 37.01,35.642 35.721,34.553C34.095,33.214 33.319,32.639 33.219,32.714C33.131,32.776 31.366,34.178 29.302,35.842C27.224,37.494 25.397,38.883 25.247,38.934C24.671,39.121 23.758,39.034 23.295,38.758C22.394,38.22 18.764,35.117 18.689,34.804C18.514,34.128 19.29,33.427 19.903,33.702C20.053,33.778 21.054,34.566 22.118,35.454C23.182,36.343 24.146,37.106 24.258,37.144C24.371,37.194 24.596,37.131 24.771,37.019C25.497,36.531 42.267,23.065 42.267,22.965C42.267,22.915 41.666,22.252 40.927,21.501C39.438,19.987 38.249,19.06 36.635,18.147C36.047,17.821 35.471,17.471 35.359,17.371C35.046,17.108 35.071,16.407 35.384,16.094C35.734,15.744 36.147,15.782 37.048,16.232C41.528,18.485 45.358,23.003 47.01,27.958C47.798,30.323 47.948,31.387 47.948,34.428C47.948,37.457 47.798,38.521 47.01,40.898C46.546,42.325 45.295,44.903 44.769,45.541C44.269,46.129 43.681,46.192 43.28,45.679ZM42.717,32.739C45.195,30.762 45.695,30.311 45.67,30.073C45.52,29.047 44.094,25.618 43.493,24.817C43.343,24.617 42.955,24.905 39.1,27.996C36.773,29.86 34.896,31.412 34.933,31.45C35.484,32.013 39.376,35.117 39.526,35.117C39.638,35.117 41.065,34.04 42.717,32.739Z" fill="#FFB60A"/>
</svg>
