<svg width="796" height="780" viewBox="0 0 796 780" fill="none" xmlns="http://www.w3.org/2000/svg" xmlns:xlink="http://www.w3.org/1999/xlink">
<path d="M512.427,484.404C512.427,623.624 399.407,736.484 259.991,736.484C120.574,736.484 7.555,623.624 7.555,484.404C7.555,345.185 120.574,232.326 259.991,232.326C399.407,232.326 512.427,345.185 512.427,484.404Z" transform="rotate(180 259.99 484.404)" stroke="#E5E5E5" stroke-width="1" stroke-miterlimit="3.999327"/>
<path d="M568.854,464.474C568.854,620.18 442.452,746.404 286.526,746.404C130.599,746.404 4.196,620.18 4.196,464.474C4.196,308.768 130.599,182.544 286.526,182.544C442.452,182.544 568.854,308.768 568.854,464.474Z" transform="rotate(180 286.525 464.474)" stroke="#E5E5E5" stroke-width="1" stroke-miterlimit="3.999327"/>
<path d="M616.985,447.867C616.985,618.229 478.687,756.333 308.085,756.333C137.483,756.333 -0.817,618.229 -0.817,447.867C-0.817,277.508 137.483,139.403 308.085,139.403C478.687,139.403 616.985,277.508 616.985,447.867Z" transform="rotate(180 308.084 447.868)" stroke="#E5E5E5" stroke-width="1" stroke-miterlimit="3.999327"/>
<path d="M671.747,431.259C671.747,614.443 523.037,762.943 339.595,762.943C156.153,762.943 7.443,614.443 7.443,431.259C7.443,248.076 156.153,99.577 339.595,99.577C523.037,99.577 671.747,248.076 671.747,431.259Z" transform="rotate(180 339.595 431.26)" stroke="#E5E5E5" stroke-width="1" stroke-miterlimit="3.999327"/>
<path d="M724.847,415.483C724.847,611.031 566.101,769.553 370.275,769.553C174.45,769.553 15.703,611.031 15.703,415.483C15.703,219.934 174.45,61.411 370.275,61.411C566.101,61.411 724.847,219.934 724.847,415.483Z" transform="rotate(180 370.275 415.483)" stroke="#E5E5E5" stroke-width="1" stroke-miterlimit="3.999327"/>
<path d="M794.55,388.911C794.55,603.693 620.188,777.809 405.102,777.809C190.016,777.809 15.654,603.693 15.654,388.911C15.654,174.129 190.016,0.013 405.102,0.013C620.188,0.013 794.55,174.129 794.55,388.911Z" transform="rotate(180 405.102 388.911)" stroke="#E5E5E5" stroke-width="1" stroke-miterlimit="3.999327"/>
</svg>
