<svg width="36" height="34" viewBox="0 0 36 34" fill="none" xmlns="http://www.w3.org/2000/svg" xmlns:xlink="http://www.w3.org/1999/xlink">
<path d="M29.133,-0.133L5,-0.133C2.243,-0.133 0,2.111 0,4.867L0,29.001C0,31.758 2.243,34.001 5,34.001L29.133,34.001C31.891,34.001 34.133,31.758 34.133,29.001L34.133,4.867C34.133,2.111 31.891,-0.133 29.133,-0.133ZM32.133,29.001C32.133,30.655 30.787,32.001 29.133,32.001L5,32.001C3.346,32.001 2,30.655 2,29.001L2,4.867C2,3.213 3.346,1.867 5,1.867L29.133,1.867C30.787,1.867 32.133,3.213 32.133,4.867L32.133,29.001Z" fill="#FFFFFF"/>
<path d="M28.067,3.934C26.964,3.934 26.067,4.831 26.067,5.934C26.067,7.036 26.964,7.934 28.067,7.934C29.17,7.934 30.067,7.036 30.067,5.934C30.067,4.831 29.17,3.934 28.067,3.934Z" fill="#FFFFFF"/>
<path d="M17.067,7.934C12.104,7.934 8.067,11.971 8.067,16.934C8.067,21.896 12.104,25.934 17.067,25.934C22.03,25.934 26.067,21.896 26.067,16.934C26.067,11.971 22.03,7.934 17.067,7.934ZM17.067,23.934C13.207,23.934 10.067,20.794 10.067,16.934C10.067,13.074 13.207,9.934 17.067,9.934C20.927,9.934 24.067,13.074 24.067,16.934C24.067,20.794 20.927,23.934 17.067,23.934Z" fill="#FFFFFF"/>
</svg>
