<svg width="64" height="64" viewBox="0 0 64 64" fill="none" xmlns="http://www.w3.org/2000/svg" xmlns:xlink="http://www.w3.org/1999/xlink">
<path d="M34.262,63.872C34.011,63.784 33.623,63.571 33.41,63.409C33.21,63.246 29.391,57.761 24.933,51.213L16.832,39.317L14.54,39.28L12.249,39.255L12.312,39.655C12.349,39.881 12.587,42.122 12.825,44.639C13.063,47.156 13.288,49.447 13.326,49.735C13.401,50.249 13.439,50.286 14.29,50.737C15.141,51.188 16.344,52.214 16.844,52.941L17.095,53.304L20.714,52.928C23.168,52.69 24.457,52.603 24.683,52.678C25.384,52.916 25.434,53.992 24.758,54.28C24.595,54.356 22.817,54.568 20.789,54.769C16.707,55.157 16.394,55.144 15.793,54.481C15.592,54.268 15.141,53.78 14.778,53.391C14.403,52.978 13.864,52.553 13.426,52.34C12.312,51.801 11.923,51.463 11.723,50.875C11.598,50.549 11.31,48.095 10.984,44.802L10.446,39.255L9.857,39.255L9.256,39.255L9.319,39.731C9.357,39.981 9.757,43.9 10.196,48.433C10.646,52.978 11.072,56.785 11.135,56.923C11.322,57.273 11.673,57.411 12.349,57.411C12.675,57.411 16.018,57.098 19.762,56.722C25.797,56.121 26.624,56.071 26.924,56.221C27.525,56.534 27.5,57.524 26.887,57.786C26.724,57.849 24.52,58.1 21.966,58.35C19.424,58.6 16.168,58.913 14.728,59.064C13.276,59.201 11.886,59.277 11.585,59.239C10.446,59.064 9.469,58.087 9.244,56.872C9.169,56.509 8.818,53.204 8.455,49.522L7.804,42.823L6.226,42.748C4.874,42.698 4.561,42.636 4.047,42.373C2.983,41.822 2.382,40.782 2.37,39.443C2.357,38.842 2.332,38.804 1.769,38.441C1.456,38.241 1.005,37.827 0.779,37.527C-0.06,36.425 -0.022,37.389 0.016,19.333L0.053,3.005L0.354,2.354C0.717,1.528 1.744,0.563 2.557,0.238C3.171,0 3.822,0 29.604,0L56.024,0L56.675,0.301C57.451,0.651 58.378,1.59 58.754,2.417C59.017,2.98 59.029,3.18 59.067,7.801L59.104,12.584L59.568,12.584C60.644,12.584 61.596,13.122 61.922,13.924C62.059,14.249 62.097,15.426 62.097,19.596C62.097,24.592 62.084,24.893 61.846,25.356C61.471,26.095 60.945,26.408 59.943,26.458L59.092,26.508L59.092,31.041C59.092,34.847 59.054,35.686 58.891,36.25C58.666,37.001 58.14,37.852 57.652,38.228C57.364,38.453 57.339,38.566 57.339,39.405C57.339,40.519 56.963,41.408 56.237,42.009C55.711,42.435 54.784,42.761 54.058,42.761L53.57,42.761L55.035,44.902C55.849,46.091 56.575,47.306 56.675,47.632C56.976,48.633 56.65,49.823 55.874,50.537C55.686,50.712 54.033,51.876 52.205,53.116C50.377,54.356 46.182,57.223 42.876,59.477C39.571,61.731 36.703,63.659 36.503,63.759C35.99,64.022 34.838,64.085 34.262,63.872ZM35.814,62.031C36.578,61.631 54.321,49.447 54.622,49.134C55.173,48.546 55.085,48.245 53.87,46.442C53.257,45.553 51.929,43.575 50.89,42.047L49.012,39.267L48.286,39.255L47.572,39.255L49.037,41.396C49.838,42.585 50.565,43.762 50.665,44.038C50.853,44.601 50.778,45.027 50.252,46.267C49.964,46.955 49.901,47.281 49.876,48.433C49.851,49.547 49.788,49.86 49.575,50.198C49.4,50.499 47.847,51.626 44.241,54.08C41.449,55.983 39.032,57.599 38.857,57.661C38.306,57.874 37.73,57.799 36.716,57.386C35.864,57.035 35.576,56.985 34.399,56.96C32.822,56.923 32.371,56.76 31.833,55.996C31.62,55.708 29.015,51.889 26.035,47.519C23.055,43.149 20.551,39.493 20.476,39.405C20.375,39.305 20.087,39.255 19.674,39.28L19.048,39.317L26.674,50.524C30.868,56.685 34.425,61.831 34.562,61.956C34.863,62.194 35.439,62.232 35.814,62.031ZM43.252,52.553L48.01,49.309L48.085,47.945C48.148,46.88 48.236,46.392 48.499,45.703C48.686,45.227 48.849,44.739 48.862,44.639C48.874,44.526 48.098,43.274 47.134,41.847L45.381,39.267L43.816,39.255L42.238,39.255L42.1,40.094C41.9,41.246 41.086,42.823 40.234,43.75C39.333,44.727 38.369,45.353 37.079,45.803C34.462,46.705 31.332,45.966 29.403,43.988C28.327,42.886 27.513,41.321 27.312,39.968L27.225,39.317L24.933,39.28C23.093,39.255 22.654,39.28 22.729,39.405C22.792,39.493 25.221,43.074 28.139,47.369L33.448,55.157L34.625,55.157C35.526,55.157 36.015,55.232 36.766,55.47C37.304,55.645 37.83,55.833 37.918,55.896C38.031,55.971 38.193,55.971 38.294,55.908C38.406,55.846 40.635,54.343 43.252,52.553ZM36.115,44.201C37.129,43.925 37.968,43.449 38.732,42.686C39.521,41.897 39.997,41.058 40.234,40.031L40.41,39.255L34.725,39.255L29.028,39.255L29.115,39.731C29.691,42.898 32.985,45.015 36.115,44.201ZM7.579,40.494C7.541,40.282 7.503,39.906 7.503,39.68L7.503,39.255L5.876,39.255L4.248,39.255L4.248,39.706C4.248,40.031 4.348,40.244 4.611,40.519C4.974,40.87 5.012,40.883 6.314,40.883L7.666,40.883L7.579,40.494ZM54.997,40.62C55.36,40.344 55.698,39.43 55.511,39.28C55.448,39.23 54.459,39.205 53.307,39.23L51.216,39.267L51.742,40.069L52.268,40.883L53.47,40.883C54.496,40.883 54.722,40.845 54.997,40.62ZM56.299,36.926C57.088,36.3 57.214,35.912 57.214,34.159L57.214,32.618L29.541,32.618L1.869,32.618L1.869,34.184C1.869,35.298 1.919,35.861 2.044,36.099C2.269,36.538 2.845,37.076 3.246,37.239C3.446,37.314 12.524,37.351 29.691,37.339L55.811,37.314L56.299,36.926ZM57.214,28.612L57.214,26.483L52.493,26.483C48.711,26.483 47.597,26.445 46.958,26.295C44.767,25.769 42.889,24.091 42.063,21.913C41.712,20.973 41.587,19.058 41.812,18.081C42.376,15.652 44.229,13.673 46.696,12.885C47.284,12.697 48.06,12.659 52.305,12.609L57.214,12.559L57.214,10.443L57.214,8.327L34.7,8.327C12.287,8.327 12.174,8.327 11.948,8.076C11.66,7.751 11.66,7.15 11.948,6.824C12.174,6.574 12.287,6.574 34.7,6.574L57.214,6.574L57.214,4.984C57.214,3.556 57.176,3.331 56.926,2.88C56.763,2.604 56.425,2.266 56.149,2.104L55.648,1.816L29.566,1.816C0.504,1.816 2.983,1.74 2.269,2.667C1.944,3.093 1.931,3.18 1.894,4.846L1.844,6.574L4.486,6.574C6.965,6.574 7.14,6.586 7.378,6.824C7.516,6.962 7.629,7.237 7.629,7.45C7.629,7.663 7.516,7.939 7.378,8.076C7.14,8.314 6.965,8.327 4.498,8.327L1.869,8.327L1.869,19.533L1.869,30.74L29.541,30.74L57.214,30.74L57.214,28.612ZM60.194,19.571L60.219,14.462L54.121,14.462C50.54,14.462 47.785,14.525 47.472,14.588C45.506,15.051 43.928,16.716 43.553,18.732C43.052,21.474 45.08,24.229 47.86,24.592C48.286,24.655 51.228,24.692 54.396,24.68L60.156,24.667L60.194,19.571Z" fill="#4086F4"/>
<path d="M47.698,47.983C46.12,47.495 44.943,45.754 45.106,44.152C45.306,42.161 46.809,40.783 48.75,40.783C51.98,40.771 53.62,44.44 51.517,46.944C51.342,47.157 50.853,47.507 50.427,47.708C49.789,48.033 49.513,48.096 48.837,48.083C48.386,48.083 47.873,48.033 47.698,47.983ZM49.501,46.168C50.816,45.617 51.016,43.776 49.852,42.912C49.376,42.549 48.361,42.511 47.848,42.824C46.583,43.626 46.659,45.504 47.998,46.105C48.612,46.381 48.95,46.393 49.501,46.168Z" fill="#4086F4"/>
</svg>
