<svg width="84" height="96" viewBox="0 0 84 96" fill="none" xmlns="http://www.w3.org/2000/svg" xmlns:xlink="http://www.w3.org/1999/xlink">
<path d="M36.881,95.792C24.754,94.572 13.585,87.796 6.658,77.434C3.392,72.534 0.933,65.758 0.182,59.6C-0.1,57.254 -0.043,52.824 0.276,50.928C2.303,39.383 13.735,23.089 32.094,5.594C35.867,2.009 36.712,1.295 37.894,0.695C39.227,0.038 39.396,0 41.104,0C42.813,0 42.981,0.038 44.314,0.695C45.497,1.295 46.342,2.009 50.115,5.594C62.035,16.951 71.627,28.533 76.921,38.013C79.53,42.706 81.088,46.667 81.858,50.609C82.271,52.73 82.346,56.954 82.027,59.6C81.332,65.363 79.192,71.539 76.264,76.307C73.992,79.987 70.257,84.21 66.897,86.932C58.525,93.652 47.637,96.881 36.881,95.792ZM47.111,92.733C57.042,91.081 65.902,85.712 71.834,77.734C75.795,72.422 78.16,66.659 79.136,59.976C79.586,56.766 79.436,52.073 78.761,49.558C75.832,38.445 65.357,24.122 47.881,7.359C45.553,5.143 43.676,3.492 43.188,3.248C42.062,2.703 40.804,2.609 39.64,3.003C38.514,3.36 35.998,5.613 30.423,11.188C18.559,23.033 10.788,33.02 6.377,42.049C3.636,47.624 2.81,50.74 2.81,55.377C2.81,72.497 14.918,87.796 31.831,92.057C33.258,92.413 36.261,92.939 37.819,93.089C39.396,93.239 45.403,93.014 47.111,92.733Z" fill="#FFB60A"/>
<path d="M37.913,71.825C30.911,71.017 24.885,68.22 19.817,63.396C15.255,59.041 12.233,53.616 10.844,47.196C10.487,45.544 10.431,44.718 10.431,41.151C10.431,37.585 10.487,36.759 10.844,35.126C11.764,30.921 13.585,26.697 15.894,23.412C17.715,20.84 21.206,17.424 23.722,15.734C30.648,11.117 38.101,9.465 46.267,10.76C47.299,10.929 48.407,11.173 48.744,11.304C49.721,11.717 49.852,13.031 48.97,13.688C48.5,14.045 48.463,14.045 46.342,13.632C43.545,13.069 38.908,13.031 36.224,13.538C30.461,14.646 25.43,17.293 21.3,21.441C18.653,24.069 15.668,28.443 16.25,28.818C16.363,28.893 18.578,30.714 21.15,32.854C24.21,35.389 25.899,36.909 25.974,37.209C26.237,38.223 25.073,39.274 24.153,38.843C23.928,38.749 21.751,37.003 19.329,34.994L14.918,31.334L14.655,31.916C14.242,32.892 13.547,35.839 13.303,37.622C12.965,40.157 13.191,44.812 13.754,47.252C16.138,57.295 23.365,65.048 33.089,67.976C35.961,68.84 37.782,69.103 41.104,69.103C44.746,69.103 46.736,68.783 49.946,67.714C53.738,66.456 57.117,64.485 59.914,61.913C61.603,60.336 62.241,60.111 62.955,60.824C63.837,61.707 63.649,62.232 61.885,63.903C55.709,69.741 46.454,72.801 37.913,71.825Z" fill="#FFB60A"/>
<path d="M47.862,33.945C46.642,33.495 45.009,31.824 44.577,30.529C43.826,28.257 44.596,25.704 46.454,24.278C49.307,22.1 53.268,23.039 54.958,26.286C55.671,27.675 55.671,29.628 54.939,31.111C54.301,32.406 53.043,33.57 51.86,33.964C50.772,34.339 48.97,34.321 47.862,33.945ZM51.241,31.167C52.949,30.285 53.193,27.901 51.71,26.605C50.49,25.517 48.557,25.742 47.599,27.075C47.055,27.826 46.999,29.327 47.468,30.097C48.256,31.336 49.964,31.824 51.241,31.167Z" fill="#FFB60A"/>
<path d="M64.775,68.518C64.287,67.898 64.287,67.579 64.757,66.753C65.733,65.045 67.009,62.398 67.478,61.122C68.53,58.175 68.905,56.053 69.018,52.261C69.074,50.309 69.074,48.732 68.999,48.732C68.924,48.732 67.159,50.103 65.076,51.773C62.992,53.463 60.983,54.983 60.627,55.152C59.801,55.584 58.674,55.565 57.717,55.133C57.304,54.927 55.371,53.463 53.437,51.83C50.997,49.821 49.833,48.958 49.683,49.07C49.551,49.164 46.905,51.266 43.807,53.763C40.691,56.241 37.95,58.325 37.725,58.4C36.862,58.681 35.491,58.55 34.797,58.137C33.445,57.33 28.001,52.674 27.889,52.205C27.626,51.191 28.79,50.14 29.71,50.553C29.935,50.666 31.437,51.848 33.032,53.181C34.628,54.514 36.073,55.659 36.242,55.715C36.411,55.79 36.749,55.697 37.012,55.528C38.101,54.796 63.255,34.597 63.255,34.447C63.255,34.372 62.354,33.377 61.246,32.251C59.012,29.979 57.229,28.59 54.807,27.22C53.925,26.732 53.062,26.206 52.893,26.056C52.423,25.662 52.461,24.611 52.93,24.141C53.456,23.616 54.075,23.672 55.427,24.348C62.147,27.727 67.891,34.503 70.369,41.937C71.552,45.485 71.777,47.08 71.777,51.642C71.777,56.185 71.552,57.78 70.369,61.347C69.675,63.487 67.798,67.354 67.009,68.311C66.258,69.194 65.376,69.287 64.775,68.518ZM63.931,49.108C67.647,46.142 68.398,45.466 68.361,45.109C68.135,43.57 65.995,38.427 65.094,37.225C64.869,36.925 64.287,37.357 58.506,41.993C55.014,44.79 52.198,47.118 52.254,47.174C53.08,48.019 58.918,52.674 59.144,52.674C59.313,52.674 61.453,51.06 63.931,49.108Z" fill="#FFB60A"/>
</svg>
