<svg width="24" height="24" viewBox="0 0 24 24" fill="none" xmlns="http://www.w3.org/2000/svg" xmlns:xlink="http://www.w3.org/1999/xlink">
<path d="M18.755,-0.089L2.666,-0.089C0.829,-0.089 -0.667,1.407 -0.667,3.244L-0.667,19.333C-0.667,21.172 0.829,22.667 2.666,22.667L18.755,22.667C20.593,22.667 22.089,21.172 22.089,19.333L22.089,3.244C22.089,1.407 20.593,-0.089 18.755,-0.089ZM20.755,19.333C20.755,20.436 19.858,21.333 18.755,21.333L2.666,21.333C1.564,21.333 0.666,20.436 0.666,19.333L0.666,3.244C0.666,2.142 1.564,1.244 2.666,1.244L18.755,1.244C19.858,1.244 20.755,2.142 20.755,3.244L20.755,19.333Z" fill="#FFFFFF"/>
<path d="M18.044,2.622C17.309,2.622 16.711,3.22 16.711,3.955C16.711,4.691 17.309,5.289 18.044,5.289C18.779,5.289 19.378,4.691 19.378,3.955C19.378,3.22 18.779,2.622 18.044,2.622Z" fill="#FFFFFF"/>
<path d="M10.711,5.289C7.402,5.289 4.711,7.98 4.711,11.289C4.711,14.597 7.402,17.289 10.711,17.289C14.019,17.289 16.711,14.597 16.711,11.289C16.711,7.98 14.019,5.289 10.711,5.289ZM10.711,15.955C8.138,15.955 6.044,13.862 6.044,11.289C6.044,8.715 8.138,6.622 10.711,6.622C13.284,6.622 15.378,8.715 15.378,11.289C15.378,13.862 13.284,15.955 10.711,15.955Z" fill="#FFFFFF"/>
</svg>
