<svg width="64" height="64" viewBox="0 0 64 64" fill="none" xmlns="http://www.w3.org/2000/svg" xmlns:xlink="http://www.w3.org/1999/xlink">
<path d="M2.363,63.783C2.009,63.653 1.51,63.302 1.117,62.911C-0.103,61.702 0.002,64.16 0.002,37.141C0.002,10.108 -0.09,12.437 1.091,11.266C2.284,10.082 1.078,10.173 18.414,10.056L33.626,9.952L34.453,6.778C34.898,5.034 35.41,3.343 35.567,3.018C35.987,2.199 36.826,1.314 37.652,0.82C38.99,0.026 39.279,0 46.032,0C52.537,0 52.943,0.039 54.189,0.663C54.897,1.028 55.946,2.003 56.353,2.706C57.048,3.877 57.179,4.618 57.179,7.415L57.179,9.991L58.989,10.069C61.349,10.186 62.031,10.394 62.91,11.266C64.09,12.437 63.998,10.121 63.998,37.076C63.998,64.03 64.09,61.715 62.91,62.898C61.677,64.121 64.811,64.004 31.948,63.991C5.89,63.991 2.887,63.965 2.363,63.783ZM61.454,62.105C61.651,61.962 61.939,61.676 62.084,61.48C62.346,61.142 62.359,60.934 62.398,56.836L62.438,52.556L32,52.556L1.576,52.556L1.576,56.641C1.576,60.882 1.615,61.207 2.14,61.78C2.782,62.469 1.012,62.43 32.158,62.404L61.1,62.378L61.454,62.105ZM62.425,32.21C62.425,19.24 62.385,13.308 62.28,13.048C62.084,12.541 61.533,11.994 61.061,11.851C60.838,11.786 59.867,11.682 58.923,11.643L57.179,11.552L57.179,13.282C57.179,15.325 57.022,15.806 56.13,16.547C55.382,17.185 54.583,17.367 53.586,17.107L52.865,16.912L52.235,17.536C51.448,18.317 50.635,18.59 49.717,18.382C49.389,18.317 49.022,18.213 48.917,18.161C48.786,18.109 48.655,18.213 48.498,18.46C48.38,18.668 48.039,19.006 47.724,19.214C47.265,19.513 47.029,19.579 46.373,19.579C45.927,19.579 45.442,19.526 45.272,19.474L44.983,19.37L44.983,24.99C44.983,30.428 44.97,30.636 44.708,31.183C44.131,32.379 42.662,33.082 41.364,32.796C40.419,32.588 39.711,32.041 39.292,31.209L38.951,30.519L38.951,22.427L38.951,14.336L38.151,15.155C36.984,16.365 35.672,16.99 33.771,17.224C33.036,17.315 32.394,17.055 32.04,16.534C31.659,15.988 31.659,15.546 32.013,14.739C32.315,14.037 33.181,11.734 33.181,11.617C33.181,11.474 3.281,11.708 2.9,11.851C2.428,12.033 1.969,12.476 1.76,12.97C1.602,13.321 1.576,16.56 1.576,32.197L1.576,50.995L32,50.995L62.425,50.995L62.425,32.21ZM42.544,31.17C43.449,30.792 43.409,31.065 43.409,24.054C43.409,15.91 43.514,12.267 43.764,12.02C44.052,11.734 44.668,11.799 44.904,12.124C45.075,12.359 45.114,12.866 45.114,14.934C45.114,17.432 45.114,17.445 45.442,17.757C45.783,18.109 46.386,18.187 46.832,17.939C47.357,17.666 47.449,17.159 47.37,14.752C47.317,12.775 47.331,12.463 47.527,12.163C47.711,11.877 47.842,11.825 48.235,11.864C48.944,11.916 49.048,12.215 49.048,14.401L49.048,16.235L49.455,16.573C49.993,17.029 50.504,17.016 51.042,16.534L51.475,16.157L51.54,13.711C51.606,11.279 51.606,11.253 51.92,11.11C52.314,10.915 52.733,11.058 52.943,11.461C53.048,11.656 53.114,12.359 53.114,13.334C53.114,15.09 53.219,15.364 53.953,15.611C54.491,15.78 54.937,15.637 55.33,15.142C55.619,14.778 55.619,14.752 55.579,9.64L55.54,4.488L55.186,3.838C54.74,2.992 53.861,2.186 53.035,1.873C52.432,1.639 51.973,1.626 45.967,1.626C39.685,1.626 39.528,1.626 38.938,1.899C38.125,2.277 37.325,3.018 36.984,3.695C36.839,4.007 36.249,6.075 35.672,8.3C34.741,11.903 34.02,14.232 33.495,15.234C33.403,15.429 33.351,15.611 33.39,15.637C33.522,15.767 34.794,15.481 35.515,15.155C36.472,14.726 37.207,14.011 38.177,12.593L38.951,11.461L38.951,9.887C38.951,8.495 38.977,8.3 39.213,8.066C39.541,7.74 39.751,7.74 40.183,8.079L40.524,8.339L40.524,19.266C40.524,31.052 40.511,30.714 41.206,31.052C41.888,31.391 41.993,31.391 42.544,31.17Z" fill="#FA7436"/>
<path d="M6.035,9.32C5.34,9.176 4.802,8.851 4.29,8.253C3.504,7.342 3.359,6.119 3.936,5.014C5.025,2.919 8.12,2.906 9.208,5.001C10.375,7.212 8.474,9.801 6.035,9.32ZM7.451,7.615C7.582,7.615 8.002,6.705 8.002,6.406C8.002,5.157 6.559,4.545 5.615,5.391C4.513,6.367 5.576,8.123 7.018,7.719C7.228,7.667 7.425,7.615 7.451,7.615Z" fill="#FA7436"/>
<path d="M13.903,9.304C11.686,8.901 10.781,6.026 12.355,4.36C13.43,3.229 15.437,3.164 16.565,4.23C17.732,5.336 17.85,7.092 16.827,8.276C16.053,9.174 15.07,9.525 13.903,9.304ZM15.542,7.366C15.87,7.053 15.935,6.884 15.935,6.39C15.935,5.883 15.87,5.739 15.502,5.414C14.558,4.569 13.116,5.18 13.116,6.429C13.116,6.988 13.562,7.613 14.06,7.743C14.663,7.912 15.083,7.808 15.542,7.366Z" fill="#FA7436"/>
<path d="M21.942,9.316C19.018,8.77 18.612,4.789 21.379,3.631C22.1,3.332 23.451,3.462 24.119,3.904C24.959,4.464 25.365,5.166 25.418,6.22C25.457,6.936 25.418,7.222 25.182,7.69C24.591,8.913 23.28,9.563 21.942,9.316ZM23.582,7.313C24.028,6.792 23.988,5.908 23.49,5.414C23.175,5.114 22.992,5.036 22.519,5.036C21.523,5.036 20.867,5.843 21.129,6.779C21.444,7.872 22.821,8.171 23.582,7.313Z" fill="#FA7436"/>
<path d="M33.967,6.94C33.443,6.758 33.272,6.042 33.679,5.691C33.902,5.483 35.016,5.47 47.055,5.47L60.195,5.47L60.405,5.795C60.681,6.212 60.563,6.68 60.13,6.875C59.881,6.992 56.51,7.031 46.976,7.018C39.934,7.018 34.072,6.979 33.967,6.94Z" fill="#FA7436"/>
<path d="M15.398,22.808C14.336,21.533 13.444,20.466 13.431,20.44C13.405,20.414 13.064,20.674 12.657,21C12.251,21.325 11.831,21.598 11.739,21.598C11.634,21.598 11.398,21.468 11.202,21.299C10.664,20.843 10.834,20.466 12.015,19.529C12.985,18.749 13.392,18.606 13.955,18.814C14.323,18.957 18.493,24.018 18.493,24.33C18.493,24.85 18.257,25.11 17.785,25.11C17.365,25.11 17.208,24.954 15.398,22.808Z" fill="#FA7436"/>
<path d="M8.382,28.812C7.766,28.473 7.726,28.187 7.766,23.881L7.805,19.875L8.172,19.562L8.539,19.25L12.736,19.25L16.932,19.25L17.247,19.575C17.562,19.875 17.575,19.953 17.575,21.566C17.575,23.023 17.549,23.27 17.339,23.452C17.011,23.751 16.578,23.725 16.264,23.413C16.041,23.192 16.001,22.984 16.001,21.982L16.001,20.811L12.657,20.811L9.313,20.811L9.339,24.102L9.379,27.381L11.215,27.42C12.893,27.446 13.064,27.472 13.287,27.719C13.588,28.096 13.575,28.304 13.182,28.682C12.867,28.994 12.828,29.007 10.795,29.007C9.261,28.994 8.631,28.955 8.382,28.812Z" fill="#FA7436"/>
<path d="M25.574,21.246C24.931,21.012 24.721,20.375 25.154,19.997C25.377,19.789 26.675,19.776 41.088,19.776C55.172,19.776 56.785,19.802 56.969,19.984C57.192,20.193 57.244,20.648 57.073,20.908C57.021,20.986 56.811,21.129 56.615,21.194C56.221,21.337 25.967,21.389 25.574,21.246Z" fill="#FA7436"/>
<path d="M25.181,27.575C24.853,27.25 24.84,26.768 25.155,26.495C25.378,26.287 26.676,26.274 41.075,26.274C56.091,26.274 56.76,26.287 56.956,26.508C57.258,26.833 57.232,27.263 56.917,27.575C56.655,27.835 56.484,27.835 41.049,27.835C25.614,27.835 25.443,27.835 25.181,27.575Z" fill="#FA7436"/>
<path d="M15.529,39.467C14.533,38.27 13.641,37.204 13.562,37.1C13.431,36.93 13.326,36.969 12.841,37.36C11.857,38.153 11.477,38.218 11.031,37.685C10.717,37.308 10.979,36.852 12.015,36.046C13.182,35.122 13.654,35.031 14.284,35.629C14.506,35.825 15.529,37.008 16.578,38.257C18.559,40.612 18.755,40.976 18.283,41.432C18.178,41.549 17.916,41.64 17.719,41.64C17.405,41.64 17.09,41.327 15.529,39.467Z" fill="#FA7436"/>
<path d="M8.711,45.452C8.553,45.426 8.291,45.256 8.12,45.074L7.806,44.736L7.806,40.599L7.806,36.462L8.12,36.124L8.435,35.786L12.684,35.786L16.933,35.786L17.248,36.111C17.562,36.41 17.576,36.488 17.576,38.115C17.576,39.715 17.562,39.819 17.287,40.001C16.881,40.287 16.579,40.261 16.264,39.923C16.041,39.689 16.002,39.467 16.002,38.492L16.002,37.347L12.658,37.347L9.314,37.347L9.34,40.638L9.379,43.917L11.242,43.956C13.077,43.982 13.117,43.995 13.327,44.32C13.602,44.723 13.418,45.23 12.907,45.413C12.592,45.543 9.288,45.569 8.711,45.452Z" fill="#FA7436"/>
<path d="M25.142,37.727C24.866,37.428 24.853,37.05 25.102,36.712C25.286,36.478 25.522,36.465 30.387,36.426C33.181,36.413 35.607,36.426 35.764,36.465C36.433,36.621 36.682,37.337 36.223,37.74C36,37.935 35.423,37.961 30.663,37.961C25.679,37.961 25.338,37.948 25.142,37.727Z" fill="#FA7436"/>
<path d="M49.363,37.641C49.114,37.263 49.219,36.86 49.638,36.587C49.887,36.418 50.477,36.405 53.376,36.431C56.602,36.47 56.825,36.483 56.995,36.717C57.244,37.068 57.231,37.497 56.943,37.745C56.733,37.94 56.274,37.966 53.14,37.966L49.573,37.966L49.363,37.641Z" fill="#FA7436"/>
<path d="M25.443,44.278C24.918,44.095 24.748,43.38 25.154,43.029C25.351,42.847 25.705,42.808 27.095,42.808C28.971,42.808 29.115,42.86 29.115,43.536C29.115,44.239 28.774,44.369 27.082,44.356C26.295,44.356 25.548,44.317 25.443,44.278Z" fill="#FA7436"/>
</svg>
