<svg width="96" height="96" viewBox="0 0 96 96" fill="none" xmlns="http://www.w3.org/2000/svg" xmlns:xlink="http://www.w3.org/1999/xlink">
<path d="M3.544,95.675C3.013,95.479 2.266,94.953 1.675,94.367C-0.154,92.552 0.003,96.24 0.003,55.711C0.003,15.162 -0.134,18.655 1.636,16.899C3.426,15.123 1.616,15.26 27.621,15.084L50.44,14.928L51.679,10.167C52.348,7.552 53.115,5.015 53.351,4.527C53.98,3.298 55.239,1.971 56.479,1.229C58.485,0.039 58.918,0 69.048,0C78.805,0 79.415,0.059 81.284,0.995C82.346,1.542 83.92,3.005 84.529,4.059C85.572,5.815 85.769,6.927 85.769,11.123L85.769,14.986L88.483,15.103C92.024,15.279 93.047,15.591 94.365,16.899C96.135,18.655 95.997,15.181 95.997,55.613C95.997,96.045 96.135,92.572 94.365,94.348C92.516,96.182 97.217,96.006 47.922,95.987C8.836,95.987 4.331,95.948 3.544,95.675ZM92.181,93.157C92.476,92.943 92.909,92.513 93.126,92.221C93.519,91.713 93.539,91.401 93.598,85.254L93.657,78.834L48,78.834L2.364,78.834L2.364,84.962C2.364,91.323 2.423,91.811 3.21,92.67C4.174,93.704 1.518,93.645 48.236,93.606L91.65,93.567L92.181,93.157ZM93.637,48.315C93.637,28.86 93.578,19.962 93.421,19.572C93.126,18.811 92.299,17.991 91.591,17.777C91.257,17.679 89.801,17.523 88.385,17.465L85.769,17.328L85.769,19.923C85.769,22.987 85.533,23.709 84.195,24.821C83.074,25.777 81.874,26.05 80.379,25.66L79.297,25.368L78.353,26.304C77.172,27.475 75.953,27.885 74.576,27.573C74.084,27.475 73.533,27.319 73.376,27.241C73.179,27.163 72.983,27.319 72.746,27.69C72.569,28.002 72.058,28.509 71.586,28.821C70.897,29.27 70.543,29.368 69.56,29.368C68.891,29.368 68.163,29.29 67.907,29.212L67.475,29.056L67.475,37.485C67.475,45.642 67.455,45.954 67.062,46.774C66.196,48.569 63.993,49.623 62.045,49.193C60.629,48.881 59.567,48.062 58.937,46.813L58.426,45.779L58.426,33.641L58.426,21.504L57.226,22.733C55.475,24.548 53.508,25.485 50.656,25.836C49.554,25.972 48.591,25.582 48.059,24.802C47.489,23.982 47.489,23.319 48.02,22.109C48.473,21.055 49.771,17.601 49.771,17.426C49.771,17.211 4.921,17.562 4.351,17.777C3.643,18.05 2.954,18.713 2.639,19.455C2.403,19.982 2.364,24.841 2.364,48.296L2.364,76.493L48,76.493L93.637,76.493L93.637,48.315ZM63.816,46.754C65.173,46.188 65.114,46.598 65.114,36.08C65.114,23.865 65.272,18.401 65.645,18.03C66.078,17.601 67.003,17.699 67.357,18.187C67.612,18.538 67.671,19.299 67.671,22.401C67.671,26.148 67.671,26.168 68.163,26.636C68.675,27.163 69.579,27.28 70.248,26.909C71.035,26.499 71.173,25.738 71.055,22.128C70.976,19.162 70.996,18.694 71.291,18.245C71.566,17.816 71.763,17.738 72.353,17.796C73.415,17.874 73.573,18.323 73.573,21.601L73.573,24.353L74.182,24.86C74.989,25.543 75.756,25.524 76.563,24.802L77.212,24.236L77.31,20.567C77.408,16.918 77.408,16.879 77.881,16.665C78.471,16.372 79.1,16.586 79.415,17.191C79.572,17.484 79.671,18.538 79.671,20.001C79.671,22.636 79.828,23.045 80.93,23.416C81.736,23.67 82.405,23.455 82.995,22.714C83.428,22.167 83.428,22.128 83.369,14.459L83.31,6.732L82.779,5.756C82.11,4.488 80.792,3.278 79.553,2.81C78.648,2.459 77.959,2.439 68.95,2.439C59.528,2.439 59.292,2.439 58.406,2.849C57.187,3.415 55.987,4.527 55.475,5.542C55.259,6.01 54.374,9.113 53.508,12.45C52.112,17.855 51.03,21.348 50.243,22.85C50.105,23.143 50.027,23.416 50.086,23.455C50.282,23.65 52.19,23.221 53.272,22.733C54.708,22.089 55.81,21.016 57.265,18.889L58.426,17.191L58.426,14.83C58.426,12.742 58.465,12.45 58.819,12.098C59.311,11.611 59.626,11.611 60.275,12.118L60.787,12.508L60.787,28.899C60.787,46.579 60.767,46.071 61.809,46.579C62.832,47.086 62.99,47.086 63.816,46.754Z" fill="#FA7436"/>
<path d="M9.052,13.98C8.01,13.765 7.203,13.277 6.436,12.38C5.256,11.014 5.04,9.179 5.905,7.521C7.538,4.379 12.18,4.36 13.813,7.501C15.563,10.819 12.711,14.702 9.052,13.98ZM11.177,11.424C11.374,11.424 12.003,10.058 12.003,9.609C12.003,7.735 9.839,6.818 8.423,8.087C6.771,9.55 8.364,12.185 10.528,11.58C10.842,11.502 11.138,11.424 11.177,11.424Z" fill="#FA7436"/>
<path d="M20.854,13.956C17.53,13.351 16.173,9.039 18.533,6.541C20.146,4.844 23.156,4.746 24.848,6.346C26.598,8.005 26.775,10.639 25.241,12.415C24.08,13.761 22.605,14.288 20.854,13.956ZM23.313,11.049C23.805,10.58 23.903,10.327 23.903,9.585C23.903,8.824 23.805,8.61 23.254,8.122C21.838,6.853 19.674,7.771 19.674,9.644C19.674,10.483 20.343,11.42 21.09,11.615C21.995,11.868 22.625,11.712 23.313,11.049Z" fill="#FA7436"/>
<path d="M32.913,13.975C28.527,13.155 27.917,7.184 32.067,5.447C33.149,4.999 35.175,5.194 36.179,5.857C37.438,6.696 38.047,7.75 38.126,9.331C38.185,10.404 38.126,10.833 37.772,11.536C36.887,13.37 34.92,14.346 32.913,13.975ZM35.372,10.97C36.041,10.189 35.982,8.862 35.234,8.121C34.762,7.672 34.487,7.555 33.779,7.555C32.284,7.555 31.3,8.765 31.694,10.17C32.166,11.809 34.231,12.258 35.372,10.97Z" fill="#FA7436"/>
<path d="M50.951,10.411C50.164,10.137 49.908,9.064 50.518,8.537C50.853,8.225 52.525,8.206 70.583,8.206L90.293,8.206L90.608,8.693C91.021,9.318 90.844,10.02 90.194,10.313C89.821,10.489 84.765,10.547 70.464,10.528C59.901,10.528 51.108,10.469 50.951,10.411Z" fill="#FA7436"/>
<path d="M23.097,34.212C21.504,32.3 20.166,30.7 20.146,30.661C20.107,30.622 19.596,31.012 18.986,31.5C18.376,31.988 17.747,32.397 17.609,32.397C17.451,32.397 17.097,32.202 16.802,31.949C15.996,31.266 16.252,30.7 18.022,29.295C19.478,28.124 20.087,27.909 20.933,28.221C21.484,28.436 27.739,36.027 27.739,36.495C27.739,37.276 27.385,37.666 26.677,37.666C26.048,37.666 25.812,37.432 23.097,34.212Z" fill="#FA7436"/>
<path d="M12.573,43.217C11.648,42.71 11.589,42.28 11.648,35.821L11.707,29.811L12.258,29.343L12.809,28.875L19.103,28.875L25.398,28.875L25.87,29.362C26.342,29.811 26.362,29.928 26.362,32.348C26.362,34.534 26.323,34.904 26.008,35.178C25.516,35.626 24.867,35.587 24.395,35.119C24.06,34.787 24.001,34.475 24.001,32.972L24.001,31.216L18.985,31.216L13.969,31.216L14.009,36.153L14.068,41.071L16.821,41.129C19.339,41.168 19.595,41.207 19.93,41.578C20.382,42.144 20.362,42.456 19.772,43.022C19.3,43.49 19.241,43.51 16.192,43.51C13.891,43.49 12.946,43.432 12.573,43.217Z" fill="#FA7436"/>
<path d="M38.361,31.869C37.397,31.518 37.083,30.562 37.732,29.996C38.066,29.683 40.013,29.664 61.632,29.664C82.758,29.664 85.178,29.703 85.453,29.976C85.788,30.288 85.866,30.971 85.611,31.362C85.532,31.479 85.217,31.693 84.922,31.791C84.332,32.006 38.951,32.084 38.361,31.869Z" fill="#FA7436"/>
<path d="M37.771,41.362C37.279,40.874 37.26,40.152 37.732,39.742C38.066,39.43 40.014,39.41 61.612,39.41C84.135,39.41 85.139,39.43 85.434,39.762C85.886,40.249 85.847,40.893 85.375,41.362C84.981,41.752 84.726,41.752 61.573,41.752C38.42,41.752 38.165,41.752 37.771,41.362Z" fill="#FA7436"/>
<path d="M23.294,59.2C21.799,57.405 20.461,55.805 20.343,55.649C20.147,55.395 19.989,55.454 19.261,56.039C17.786,57.229 17.216,57.327 16.547,56.527C16.075,55.961 16.468,55.278 18.022,54.068C19.773,52.683 20.481,52.546 21.425,53.444C21.76,53.736 23.294,55.512 24.868,57.385C27.838,60.917 28.133,61.464 27.425,62.147C27.268,62.322 26.874,62.459 26.579,62.459C26.107,62.459 25.635,61.991 23.294,59.2Z" fill="#FA7436"/>
<path d="M13.065,68.178C12.829,68.139 12.436,67.885 12.18,67.612L11.708,67.105L11.708,60.899L11.708,54.694L12.18,54.187L12.652,53.679L19.026,53.679L25.399,53.679L25.871,54.167C26.343,54.616 26.363,54.733 26.363,57.172C26.363,59.572 26.343,59.729 25.93,60.002C25.32,60.431 24.868,60.392 24.396,59.885C24.061,59.533 24.002,59.202 24.002,57.738L24.002,56.021L18.986,56.021L13.97,56.021L14.01,60.958L14.069,65.875L16.862,65.934C19.616,65.973 19.675,65.992 19.989,66.48C20.403,67.085 20.127,67.846 19.36,68.119C18.888,68.314 13.931,68.354 13.065,68.178Z" fill="#FA7436"/>
<path d="M37.712,56.59C37.299,56.141 37.279,55.575 37.653,55.068C37.928,54.717 38.282,54.697 45.58,54.639C49.77,54.619 53.409,54.639 53.645,54.697C54.649,54.932 55.022,56.005 54.334,56.61C54,56.902 53.134,56.941 45.993,56.941C38.519,56.941 38.007,56.922 37.712,56.59Z" fill="#FA7436"/>
<path d="M74.045,56.461C73.671,55.895 73.828,55.291 74.458,54.881C74.831,54.627 75.717,54.608 80.064,54.647C84.903,54.705 85.237,54.725 85.493,55.076C85.867,55.603 85.847,56.247 85.414,56.617C85.1,56.91 84.411,56.949 79.71,56.949L74.359,56.949L74.045,56.461Z" fill="#FA7436"/>
<path d="M38.165,66.417C37.378,66.144 37.122,65.07 37.732,64.544C38.027,64.27 38.558,64.212 40.643,64.212C43.456,64.212 43.673,64.29 43.673,65.305C43.673,66.358 43.161,66.553 40.624,66.534C39.443,66.534 38.322,66.475 38.165,66.417Z" fill="#FA7436"/>
</svg>
