<svg width="1570" height="384" viewBox="0 0 1570 384" fill="none" xmlns="http://www.w3.org/2000/svg" xmlns:xlink="http://www.w3.org/1999/xlink">
<path d="M1050.849,231.632C1045.259,236.99 1046.859,236.364 1033.853,232.444C1022.447,228.732 1027.857,227.502 1017.647,233.464C1008.449,239.032 993.437,244.576 986.451,248.89C989.065,254.852 1011.447,274.408 1016.857,282.434C1014.851,283.456 1013.251,284.29 1011.065,285.312C1007.661,286.958 1008.473,286.958 1004.461,284.5C995.669,279.35 967.449,262.878 961.859,260.42C954.465,263.714 934.855,274.014 928.071,273.596C924.869,273.388 919.663,272.576 920.677,268.446C923.269,258.356 940.873,252.81 952.279,247.66C956.877,245.596 955.683,245.806 956.675,240.656C957.891,235.11 965.487,194.77 967.269,192.705C968.057,192.079 974.255,189.411 975.473,188.785C976.081,192.496 976.465,196.602 976.667,200.522L978.673,223.372C978.673,227.084 979.283,231.4 979.869,234.902C985.075,232.234 990.259,229.96 995.669,227.294C1022.471,214.116 1017.669,222.978 1023.867,208.154C1027.475,199.92 1027.475,194.978 1035.273,196.208C1033.853,212.702 1038.249,222.978 1050.849,231.632ZM823.257,72.122C830.469,74.396 828.847,74.604 838.855,65.117C847.645,56.881 842.257,58.111 854.047,59.155C864.437,59.967 880.441,58.528 888.647,59.363C888.849,65.743 876.655,93.325 875.055,102.999C877.263,102.999 879.045,102.999 881.455,102.999C885.265,102.999 884.453,103.416 887.249,99.496C893.041,90.843 911.457,63.469 915.651,58.946C923.855,58.737 945.651,59.155 951.647,56.069C954.443,54.422 958.837,51.128 956.245,47.834C949.641,40.016 931.451,42.684 919.053,43.102C914.049,43.102 915.267,42.893 912.043,38.787C908.639,34.263 885.039,1.114 882.651,0.093C881.659,-0.116 874.851,0.093 873.657,0.093C874.469,3.804 875.865,7.493 877.263,11.205L885.063,32.802C886.459,36.096 887.857,40.411 888.871,43.705C883.079,43.496 877.263,43.705 871.267,43.705C841.671,43.705 849.877,49.667 837.863,38.972C831.281,33.011 829.275,28.673 822.669,33.219C830.671,47.44 831.055,58.737 823.257,72.122ZM820.055,51.128C823.053,50.711 824.067,55.443 820.641,56.069L815.841,56.696C812.843,57.322 811.625,52.381 815.029,51.755L820.055,51.128ZM395.299,380.446C393.699,383.74 389.303,381.258 390.701,378.382L391.897,375.714C393.497,372.628 397.891,375.088 396.291,377.986L395.299,380.446ZM402.895,364.184C401.295,367.27 396.901,365.02 398.501,361.91L400.709,357.386C402.107,354.302 406.503,356.76 405.105,359.638L402.895,364.184ZM411.889,346.066C410.493,348.942 405.893,346.878 407.495,343.794L409.883,339.27C411.281,336.392 415.677,338.458 414.279,341.752L411.889,346.066ZM421.491,328.366C419.689,331.452 415.497,328.576 417.097,325.884L419.689,321.36C421.491,318.276 425.481,321.152 423.881,323.82L421.491,328.366ZM431.499,310.876C429.697,313.752 425.505,311.084 427.307,308.208L429.899,303.892C431.499,301.016 435.895,303.684 434.093,306.56L431.499,310.876ZM442.095,293.592C440.493,296.26 436.099,293.802 437.901,290.926L440.697,286.61C442.297,283.942 446.693,286.402 444.687,289.486L442.095,293.592ZM453.093,276.914C451.087,279.582 447.301,276.496 449.105,273.828L451.899,269.722C453.905,267.054 457.895,270.14 455.889,272.808L453.093,276.914ZM464.679,260.442C462.673,263.11 458.887,260.026 460.871,257.358L463.869,253.252C465.875,250.584 469.661,253.878 467.655,256.336L464.679,260.442ZM476.289,245.016C474.485,246.038 472.299,244.39 472.479,242.348C472.275,241.12 473.267,239.472 474.687,239.264L476.289,237.198C478.295,234.74 482.283,237.824 480.097,240.492L479.691,241.12L480.481,241.328C483.681,242.558 481.675,247.29 478.677,246.06L476.289,245.016ZM489.699,228.964C487.287,231.446 483.907,227.942 486.093,225.46L489.295,221.748C491.683,219.082 495.087,222.77 492.901,225.042L489.699,228.964ZM503.089,213.932C500.879,216.39 497.093,212.91 499.483,210.428L502.887,206.716C505.095,204.258 508.679,207.738 506.493,210.22L503.089,213.932ZM516.883,199.525C514.291,201.798 511.091,197.878 513.481,195.814L516.883,192.311C519.475,189.829 522.677,193.749 520.491,196.022L516.883,199.525ZM531.287,185.537C528.875,187.81 525.495,184.099 527.883,181.825L531.693,178.322C534.083,176.049 537.485,179.969 534.893,182.243L531.287,185.537ZM546.073,172.36C543.865,174.425 540.483,170.713 543.077,168.463L546.885,165.169C549.681,162.896 552.475,167.234 549.883,169.09L546.073,172.36ZM561.673,159.602C558.877,161.666 556.081,157.537 558.675,155.681L562.483,152.596C565.279,150.531 568.073,154.66 565.481,156.516L561.673,159.602ZM577.473,147.655C575.083,149.511 571.883,145.59 574.677,143.549C576.075,142.528 577.473,141.484 578.871,140.672C581.259,138.816 584.461,142.737 581.665,144.778C580.291,145.799 578.893,146.634 577.473,147.655ZM593.883,136.334C591.087,138.19 588.675,133.666 591.291,132.019L595.483,129.352C598.279,127.496 600.893,132.019 598.075,133.666L593.883,136.334ZM610.675,125.849C608.083,127.496 605.289,123.181 608.287,121.325L612.681,118.866C615.273,117.219 618.069,121.534 615.071,123.39L610.675,125.849ZM628.077,115.966C624.877,117.613 622.869,112.881 625.665,111.443L630.061,108.984C633.059,107.546 635.267,112.278 632.473,113.716L628.077,115.966ZM645.681,106.919C642.887,108.357 640.475,103.834 643.471,102.187C645.073,101.56 646.469,100.749 648.071,100.122C650.865,98.684 653.075,103.208 650.077,104.646C648.679,105.458 647.079,106.084 645.681,106.919ZM663.669,98.475C660.467,99.705 658.867,94.972 661.663,93.743L666.261,91.678C669.461,90.449 671.061,95.367 668.063,96.411L663.669,98.475ZM681.881,90.843C678.883,92.073 677.081,87.34 680.077,86.111L684.879,84.255C687.675,83.025 689.681,87.758 686.479,88.987L681.881,90.843ZM700.477,83.86C697.479,84.881 695.677,80.149 698.877,79.128C700.477,78.502 702.077,77.899 703.677,77.481C706.473,76.252 708.277,80.984 705.075,82.213C703.475,82.817 702.077,83.234 700.477,83.86ZM719.277,77.69C715.873,78.502 714.881,73.584 717.879,72.749L722.679,71.31C725.881,70.498 727.075,75.416 723.875,76.252L719.277,77.69ZM738.277,72.122C735.077,72.957 733.883,68.016 737.083,67.181L741.885,65.952C744.883,65.14 746.279,70.058 743.079,70.893L738.277,72.122ZM757.459,67.39C754.463,68.202 752.861,63.284 756.265,62.24L761.269,61.219C764.673,60.593 765.281,65.743 762.261,66.16L757.459,67.39ZM776.665,63.075C773.463,63.701 772.675,58.76 775.875,58.134L780.677,57.322C784.081,56.696 784.869,61.637 781.669,62.263L776.665,63.075ZM796.253,59.572C793.051,60.199 792.059,55.257 795.463,54.631L800.265,53.819C803.465,53.193 804.457,58.343 801.053,58.969L796.253,59.572ZM130.312,258.796C124.699,264.154 126.322,263.528 113.316,259.422C101.911,255.92 107.321,254.482 97.11,260.652C87.913,266.01 72.901,271.764 65.913,276.078C68.506,282.04 90.911,301.596 96.321,309.622C94.315,310.644 92.714,311.27 90.528,312.29C87.124,314.146 87.936,314.146 83.923,311.664C75.133,306.514 46.934,289.834 41.322,287.584C33.928,290.878 14.318,301.178 7.533,300.76C4.332,300.552 -0.874,299.532 0.14,295.402C2.732,285.312 20.336,279.766 31.742,274.616C36.34,272.552 35.145,272.97 36.137,267.82C37.332,262.066 44.951,221.934 46.731,219.87C47.34,219.244 53.719,216.366 54.936,215.95C55.545,219.662 55.95,223.558 56.131,227.478L58.137,250.538C58.137,254.04 58.746,258.564 59.332,261.858C64.538,259.376 69.723,256.916 75.133,254.458C101.933,241.282 96.929,250.144 103.331,235.32C106.937,227.084 106.735,222.144 114.736,223.372C113.316,239.866 117.712,250.166 130.312,258.796ZM124.519,238.428C121.521,239.448 122.716,244.182 126.119,243.37L130.718,241.722C133.513,240.888 132.521,235.97 129.117,236.782L124.519,238.428ZM645.479,349.152C648.071,351.426 650.865,347.296 648.477,345.254L646.469,343.608C643.675,341.334 640.879,345.464 643.269,347.528L645.479,349.152ZM631.683,337.832C634.275,339.896 637.273,335.976 634.885,333.91L630.895,330.616C628.303,328.552 625.305,332.682 627.897,334.722L631.683,337.832ZM616.085,325.49C618.475,327.554 621.675,323.634 619.083,321.384L615.093,318.298C612.501,316.442 609.301,320.364 612.095,322.428L616.085,325.49ZM600.081,313.542C602.877,315.608 605.491,311.084 602.877,309.436L598.683,306.56C595.889,304.496 593.275,309.042 595.889,310.666L600.081,313.542ZM583.671,302.222C586.467,304.078 589.081,299.764 586.467,297.908L582.275,295.24C579.479,293.384 576.685,297.514 579.479,299.37L583.671,302.222ZM567.081,291.32C569.673,292.966 572.469,288.86 569.471,287.004L565.279,284.336C562.687,282.69 559.891,286.796 562.687,288.652L567.081,291.32ZM549.883,281.02C553.083,282.666 555.091,278.142 552.475,276.496L548.081,274.036C545.083,272.39 542.873,276.914 545.691,278.56L549.883,281.02ZM532.685,271.346C535.683,272.784 537.689,268.26 534.893,266.822L530.499,264.34C527.501,262.902 525.291,267.426 528.289,268.864L532.685,271.346ZM514.877,262.298C517.875,263.738 520.085,259.214 517.065,257.566L512.669,255.502C509.873,254.064 507.461,258.378 510.459,260.026L514.877,262.298ZM497.093,253.854C500.293,255.084 501.895,250.352 498.897,249.122L494.299,247.058C491.301,245.828 489.497,250.56 492.495,251.79L497.093,253.854ZM460.285,239.032C463.687,240.052 464.679,235.11 461.885,234.298L457.083,232.652C453.679,231.632 452.689,236.572 455.483,237.384L460.285,239.032ZM441.485,232.86C444.483,233.882 445.881,228.94 442.883,227.92L438.081,226.482C434.881,225.646 433.483,230.588 436.685,231.422L441.485,232.86ZM422.483,227.526C425.279,228.338 427.081,223.628 423.679,222.584L418.877,221.354C415.271,220.542 414.685,225.67 417.683,226.296L422.483,227.526ZM403.301,222.792C406.503,223.42 407.291,218.478 404.293,217.852L399.289,216.83C396.089,216.204 395.097,221.146 398.275,221.772L403.301,222.792ZM383.895,219.082C386.891,219.708 388.087,214.766 384.683,213.932C383.083,213.722 381.279,213.304 379.679,213.12C376.681,212.492 375.487,217.434 378.891,218.27C380.491,218.454 382.293,218.664 383.895,219.082ZM364.307,215.996C367.709,216.414 368.115,211.264 364.915,211.054L360.113,210.428C356.711,210.01 356.305,215.16 359.505,215.37L364.307,215.996ZM344.695,213.932C347.897,214.14 348.505,209.198 345.101,208.782L340.097,208.364C337.099,207.946 336.311,213.096 339.895,213.514L344.695,213.932ZM325.109,212.492C328.511,212.702 328.309,207.552 325.311,207.552L320.307,207.342C316.903,207.134 316.903,212.284 320.105,212.284L325.109,212.492ZM305.295,212.076C308.495,212.076 308.699,206.926 305.295,206.926C303.695,206.926 301.891,206.926 300.291,206.926C297.293,206.926 296.887,212.076 300.291,212.076C302.117,212.076 303.695,212.076 305.295,212.076ZM285.505,212.492C289.111,212.076 288.503,207.134 285.301,207.342L280.501,207.552C277.097,207.76 277.503,212.91 280.703,212.702L285.505,212.492ZM265.917,213.514C269.117,213.304 268.711,208.154 265.511,208.364L260.507,208.782C257.305,208.99 257.711,214.14 260.913,213.932L265.917,213.514ZM246.307,215.37C249.305,215.16 249.101,210.01 245.697,210.428C244.097,210.638 242.293,210.846 240.693,211.054C237.695,211.264 237.899,216.414 241.303,215.996C242.903,215.786 244.503,215.578 246.307,215.37ZM226.719,218.038C230.121,217.41 228.927,212.492 225.929,213.096L220.903,213.722C217.703,214.558 218.693,219.498 221.691,218.872L226.719,218.038ZM207.107,221.54C210.309,220.914 209.519,215.786 206.319,216.39L201.315,217.41C198.317,218.038 199.106,222.978 202.307,222.352L207.107,221.54ZM187.903,225.46C190.901,225.042 190.112,219.916 186.709,220.52L181.908,221.748C178.504,222.584 180.104,227.502 183.102,226.69L187.903,225.46ZM168.721,230.402C171.922,229.38 170.525,224.44 167.324,225.46L162.523,226.69C159.322,227.502 160.719,232.444 163.92,231.632L168.721,230.402ZM149.517,235.76C152.717,234.948 151.523,229.798 148.119,230.82L143.521,232.258C140.523,233.07 141.515,238.01 144.918,237.198L149.517,235.76ZM1045.033,211.264C1042.035,212.284 1043.229,217.016 1046.633,216.204L1051.231,214.558C1054.027,213.722 1053.239,208.804 1049.631,209.826L1045.033,211.264ZM1565.993,322.196C1568.585,324.26 1571.583,320.132 1568.991,318.276L1566.985,316.42C1564.189,314.146 1561.395,318.484 1563.783,320.34L1565.993,322.196ZM1552.197,310.876C1554.813,312.94 1557.787,308.81 1555.399,306.77L1551.387,303.684C1548.793,301.62 1545.773,305.54 1548.389,307.604L1552.197,310.876ZM1536.599,298.326C1538.989,300.39 1542.189,296.47 1539.597,294.404L1535.607,291.32C1533.015,289.254 1529.815,293.176 1532.609,295.426L1536.599,298.326ZM1520.595,286.588C1523.391,288.442 1526.005,284.128 1523.391,282.272L1519.401,279.396C1516.403,277.54 1513.789,281.878 1516.605,283.71L1520.595,286.588ZM1504.209,275.058C1507.003,276.914 1509.595,272.598 1507.003,270.742L1502.811,268.076C1500.017,266.22 1497.401,270.558 1500.015,272.39L1504.209,275.058ZM1487.597,264.154C1490.211,266.01 1493.005,261.882 1490.211,259.84L1485.815,257.172C1483.427,255.524 1480.427,259.632 1483.425,261.696L1487.597,264.154ZM1470.601,253.854C1473.599,255.502 1475.605,250.978 1473.013,249.54L1468.617,246.872C1465.619,245.434 1463.409,249.958 1466.227,251.396L1470.601,253.854ZM1453.221,244.182C1456.219,245.62 1458.429,241.304 1455.407,239.658L1451.013,237.384C1448.015,235.738 1446.009,240.47 1448.803,241.908L1453.221,244.182ZM1435.415,235.134C1438.413,236.572 1440.621,232.048 1437.623,230.61L1433.229,228.338C1430.433,226.898 1428.043,231.422 1431.019,232.86L1435.415,235.134ZM1417.607,226.69C1420.809,227.92 1422.409,223.188 1419.411,221.958L1415.015,219.894C1411.815,218.664 1410.011,223.604 1413.009,224.626L1417.607,226.69ZM1399.215,219.082C1402.213,220.31 1404.195,215.578 1401.017,214.14L1396.419,212.492C1393.421,211.264 1391.619,215.996 1394.615,217.226L1399.215,219.082ZM1380.821,212.076C1384.225,213.096 1385.217,207.97 1382.421,207.134L1377.621,205.488C1374.217,204.466 1373.225,209.408 1376.019,210.428L1380.821,212.076ZM1362.023,205.696C1365.223,206.716 1366.417,201.798 1363.419,200.964L1358.619,199.525C1355.417,198.505 1354.021,203.446 1357.221,204.258L1362.023,205.696ZM1343.021,200.36C1345.815,201.172 1347.619,196.44 1344.215,195.419L1339.413,194.19C1335.807,193.378 1335.199,198.505 1338.219,199.131L1343.021,200.36ZM1323.815,195.814C1327.017,196.44 1327.805,191.29 1324.807,190.664L1319.803,189.643C1316.603,189.017 1315.791,193.958 1319.015,194.584L1323.815,195.814ZM1304.431,191.916C1307.429,192.543 1308.645,187.602 1305.219,186.975C1303.619,186.558 1302.019,186.349 1300.215,185.954C1297.421,185.537 1296.023,190.478 1299.427,191.104C1301.229,191.29 1302.831,191.708 1304.431,191.916ZM1284.821,188.831C1288.225,189.249 1288.631,184.307 1285.429,183.89L1280.627,183.263C1277.225,182.846 1276.819,187.996 1280.019,188.205L1284.821,188.831ZM1265.233,186.766C1268.433,187.184 1269.019,182.034 1265.639,181.616L1260.635,181.199C1257.637,180.99 1256.825,185.931 1260.431,186.349L1265.233,186.766ZM1245.623,185.537C1249.027,185.537 1248.823,180.387 1245.825,180.387L1240.821,180.178C1237.417,180.178 1237.417,185.119 1240.619,185.328L1245.623,185.537ZM1225.831,184.911C1229.033,184.911 1229.235,179.969 1225.831,179.761C1224.231,179.761 1222.427,179.761 1220.827,179.761C1217.829,179.761 1217.423,184.911 1220.827,184.911C1222.631,184.911 1224.231,184.911 1225.831,184.911ZM1206.041,185.328C1209.647,185.119 1209.039,179.969 1205.839,180.178L1201.037,180.387C1197.633,180.596 1198.039,185.746 1201.239,185.537L1206.041,185.328ZM1186.431,186.349C1189.631,186.14 1189.429,180.99 1186.025,181.408L1181.021,181.825C1177.821,182.034 1178.225,186.975 1181.427,186.766L1186.431,186.349ZM1166.843,188.413C1169.841,187.996 1169.637,182.846 1166.235,183.263C1164.633,183.472 1162.831,183.681 1161.231,183.89C1158.233,184.099 1158.435,189.249 1161.839,188.831C1163.439,188.622 1165.039,188.413 1166.843,188.413ZM1147.233,190.872C1150.637,190.246 1149.419,185.328 1146.443,185.931L1141.439,186.743C1138.239,187.37 1139.231,192.311 1142.229,191.684L1147.233,190.872ZM1127.623,194.375C1130.823,193.749 1130.035,188.831 1126.833,189.434L1121.851,190.246C1118.853,190.872 1119.643,195.999 1122.843,195.396L1127.623,194.375ZM1108.441,198.505C1111.439,197.878 1110.649,192.751 1107.245,193.563L1102.445,194.584C1099.041,195.605 1100.641,200.36 1103.639,199.525L1108.441,198.505ZM1089.235,203.236C1092.437,202.216 1091.039,197.484 1088.041,198.296L1083.037,199.525C1079.837,200.546 1081.233,205.278 1084.435,204.466L1089.235,203.236ZM1070.233,208.572C1073.231,207.76 1072.037,202.82 1068.837,203.632L1064.035,205.07C1061.037,205.882 1062.029,211.032 1065.433,210.01L1070.233,208.572Z" clip-rule="evenodd" fill-rule="evenodd" fill="#CCCCCC"/>
</svg>
