<svg width="32" height="26" viewBox="0 0 32 26" fill="none" xmlns="http://www.w3.org/2000/svg" xmlns:xlink="http://www.w3.org/1999/xlink">
<path d="M30.634,2.319C29.473,2.829 28.236,3.166 26.946,3.33C28.273,2.538 29.286,1.293 29.762,-0.207C28.525,0.53 27.159,1.051 25.703,1.342C24.529,0.091 22.855,-0.684 21.028,-0.684C17.485,-0.684 14.632,2.193 14.632,5.718C14.632,6.226 14.675,6.713 14.78,7.178C9.459,6.918 4.751,4.368 1.588,0.483C1.036,1.441 0.712,2.538 0.712,3.718C0.712,5.935 1.854,7.9 3.555,9.037C2.527,9.018 1.518,8.719 0.663,8.249C0.663,8.269 0.663,8.294 0.663,8.319C0.663,11.43 2.882,14.013 5.791,14.608C5.27,14.751 4.702,14.819 4.113,14.819C3.703,14.819 3.29,14.795 2.901,14.71C3.731,17.244 6.084,19.108 8.882,19.168C6.704,20.872 3.939,21.898 0.946,21.898C0.421,21.898 -0.082,21.874 -0.585,21.81C2.25,23.638 5.61,24.682 9.233,24.682C21.011,24.682 27.45,14.926 27.45,6.47C27.45,6.187 27.44,5.913 27.426,5.642C28.697,4.741 29.764,3.615 30.634,2.319Z" fill="#444444"/>
</svg>
