<svg width="26" height="32" viewBox="0 0 26 32" fill="none" xmlns="http://www.w3.org/2000/svg" xmlns:xlink="http://www.w3.org/1999/xlink">
<path d="M12.571,0C9.238,0.004 6.043,1.33 3.686,3.686C1.33,6.043 0.004,9.238 0,12.571C-0.004,15.295 0.886,17.945 2.533,20.114C2.533,20.114 2.875,20.566 2.931,20.631L12.571,32L22.216,20.625C22.266,20.565 22.61,20.114 22.61,20.114L22.611,20.111C24.258,17.942 25.147,15.294 25.143,12.571C25.139,9.238 23.813,6.043 21.456,3.686C19.1,1.33 15.904,0.004 12.571,0L12.571,0ZM12.571,17.143C11.667,17.143 10.783,16.875 10.032,16.372C9.28,15.87 8.694,15.156 8.348,14.321C8.002,13.486 7.911,12.566 8.088,11.68C8.264,10.793 8.7,9.978 9.339,9.339C9.978,8.7 10.793,8.264 11.68,8.088C12.566,7.911 13.486,8.002 14.321,8.348C15.156,8.694 15.87,9.28 16.372,10.032C16.875,10.783 17.143,11.667 17.143,12.571C17.141,13.783 16.659,14.945 15.802,15.802C14.945,16.659 13.783,17.141 12.571,17.143L12.571,17.143Z" fill="#999999"/>
</svg>
