<svg width="52" height="64" viewBox="0 0 52 64" fill="none" xmlns="http://www.w3.org/2000/svg" xmlns:xlink="http://www.w3.org/1999/xlink">
<path d="M25.143,0C18.477,0.008 12.086,2.659 7.373,7.373C2.659,12.086 0.008,18.477 0,25.143C-0.008,30.59 1.771,35.89 5.065,40.229C5.065,40.229 5.751,41.131 5.863,41.262L25.143,64L44.432,41.25C44.533,41.129 45.221,40.229 45.221,40.229L45.223,40.222C48.515,35.885 50.294,30.588 50.286,25.143C50.278,18.477 47.626,12.086 42.913,7.373C38.199,2.659 31.809,0.008 25.143,0L25.143,0ZM25.143,34.286C23.335,34.286 21.567,33.749 20.063,32.745C18.56,31.74 17.388,30.312 16.696,28.642C16.004,26.971 15.823,25.133 16.176,23.359C16.528,21.586 17.399,19.957 18.678,18.678C19.957,17.399 21.586,16.528 23.359,16.176C25.133,15.823 26.971,16.004 28.642,16.696C30.312,17.388 31.74,18.56 32.745,20.063C33.75,21.567 34.286,23.335 34.286,25.143C34.283,27.567 33.318,29.891 31.605,31.604C29.891,33.318 27.567,34.283 25.143,34.286L25.143,34.286Z" fill="#999999"/>
</svg>
