<svg width="38" height="32" viewBox="0 0 38 32" fill="none" xmlns="http://www.w3.org/2000/svg" xmlns:xlink="http://www.w3.org/1999/xlink">
<path d="M37.456,1.493L21.554,31.031C21.421,31.278 21.195,31.481 20.912,31.608C20.629,31.734 20.305,31.777 19.99,31.731C19.675,31.684 19.388,31.549 19.172,31.348C18.957,31.147 18.825,30.891 18.799,30.62L17.454,16.889L1.326,15.745C1.007,15.722 0.707,15.61 0.471,15.427C0.235,15.243 0.077,14.998 0.022,14.73C-0.033,14.462 0.017,14.186 0.166,13.945C0.315,13.704 0.553,13.512 0.844,13.399L35.539,-0.139C35.807,-0.244 36.107,-0.276 36.397,-0.232C36.687,-0.187 36.955,-0.068 37.163,0.109C37.372,0.287 37.512,0.515 37.564,0.762C37.616,1.009 37.578,1.264 37.455,1.493L37.456,1.493Z" fill="#FA7436"/>
</svg>
