<svg width="740" height="554" viewBox="0 0 740 554" fill="none" xmlns="http://www.w3.org/2000/svg" xmlns:xlink="http://www.w3.org/1999/xlink">
<path d="M7.677,553.576C9.2,550.02 13.617,546.708 22.409,543.768C30.994,540.896 42.652,538.73 56.956,536.63C85.349,532.46 123.666,528.634 165.821,519.79C250.32,502.06 351.43,463.972 425.248,361.336L418.752,356.664C346.57,457.028 247.68,494.44 164.179,511.96C122.334,520.74 84.651,524.478 55.794,528.714C41.473,530.818 29.193,533.064 19.872,536.182C10.758,539.228 3.3,543.48 0.323,550.424L7.677,553.576ZM425.248,361.336C461.894,310.382 488.552,263.458 510.768,221.578C533.044,179.583 550.684,143.013 569.536,112.213C588.33,81.513 608.066,57.016 634.198,39.295C660.294,21.598 693.084,10.448 738.306,6.988L737.694,-0.988C691.416,2.552 657.206,14.027 629.708,32.674C602.246,51.296 581.796,76.862 562.714,108.037C543.692,139.112 525.768,176.229 503.7,217.828C481.574,259.542 455.106,306.118 418.752,356.664L425.248,361.336Z" fill="#FFF8F5"/>
</svg>
