<svg width="62" height="52" viewBox="0 0 62 52" fill="none" xmlns="http://www.w3.org/2000/svg" xmlns:xlink="http://www.w3.org/1999/xlink">
<path d="M59.913,2.832L34.072,50.832C33.856,51.235 33.489,51.564 33.029,51.77C32.57,51.976 32.043,52.046 31.531,51.97C31.019,51.894 30.552,51.675 30.202,51.349C29.851,51.022 29.638,50.606 29.595,50.165L27.41,27.852L1.201,25.992C0.683,25.955 0.194,25.774 -0.189,25.476C-0.573,25.177 -0.829,24.779 -0.919,24.344C-1.008,23.908 -0.926,23.459 -0.684,23.068C-0.442,22.677 -0.055,22.365 0.417,22.18L56.798,0.18C57.234,0.01 57.721,-0.042 58.193,0.03C58.664,0.102 59.099,0.296 59.438,0.584C59.777,0.873 60.004,1.243 60.089,1.645C60.174,2.046 60.112,2.461 59.913,2.832L59.913,2.832Z" fill="#FA7436"/>
</svg>
