<svg width="736" height="554" viewBox="0 0 736 554" fill="none" xmlns="http://www.w3.org/2000/svg" xmlns:xlink="http://www.w3.org/1999/xlink">
<path d="M7.677,552.576C9.278,548.838 13.987,544.988 22.978,540.998C31.756,537.102 43.655,533.478 58.188,529.6C87.063,521.892 125.976,513.284 168.713,499.686C254.344,472.44 356.53,424.832 430.248,322.336L423.752,317.664C351.47,418.168 251.156,465.06 166.287,492.064C123.774,505.59 85.437,514.046 56.125,521.87C41.564,525.756 29.134,529.514 19.733,533.686C10.544,537.762 3.222,542.662 0.323,549.424L7.677,552.576ZM430.248,322.336C466.868,271.418 493.012,227.026 514.47,188.916C535.982,150.709 552.616,119.137 570.414,93.4C588.134,67.78 606.804,48.263 632.14,34.234C657.518,20.183 689.9,11.462 735.306,7.988L734.694,0.012C688.6,3.538 654.982,12.442 628.266,27.235C601.508,42.05 581.992,62.595 563.836,88.85C545.758,114.988 528.832,147.103 507.498,184.991C486.112,222.974 460.132,267.082 423.752,317.664L430.248,322.336Z" fill="#F5F9FF"/>
</svg>
