<svg width="64" height="58" viewBox="0 0 64 58" fill="none" xmlns="http://www.w3.org/2000/svg" xmlns:xlink="http://www.w3.org/1999/xlink">
<path d="M10.38,54.26L16.02,56.7L38.56,40.98L44.56,44.3C49.38,47.18 54.06,47.38 56.3,46.1L56.76,46.32C60.24,47.84 62.3,46.48 63,44.84C63.7,43.2 63.3,40.84 59.82,39.28L59.36,39.08C58.94,37.08 57.12,33.72 50.02,31.74L43.48,29.64L39.48,2.46L33.84,0L29.46,25.18L13.34,19.66L10.9,13.2L6.42,11.54L6.1,17.54L4.5,17.4L3.04,20.74L4.24,21.92L0,26.32L4.28,28.46L10.64,25.82L25.7,33.82L10.38,54.26ZM10.8,24.36L4.4,27.02L2.4,25.98L6.28,21.98L4.82,20.5L5.5,18.92L7.5,19.1L7.8,13.5L9.98,14.3L12.42,20.78L30.66,27L35,1.98L38.38,3.44L42.28,30.72L49.66,33.08C56.54,34.98 57.9,38.06 58.1,39.72L58.1,40.14L58.5,40.28C58.754,40.352 59.002,40.446 59.24,40.56C61.38,41.48 62.34,42.94 61.72,44.34C61.1,45.74 59.4,46.06 57.26,45.12C57.019,45.023 56.785,44.909 56.56,44.78L56.18,44.56L55.82,44.82C54.36,45.9 50.1,46.1 45.18,43.18L38.46,39.42L15.86,55.2L12.48,53.74L27.8,33.46L10.8,24.36Z" transform="rotate(360 31.644 28.35)" fill="#999999"/>
</svg>
