<svg width="728" height="544" viewBox="0 0 728 544" fill="none" xmlns="http://www.w3.org/2000/svg" xmlns:xlink="http://www.w3.org/1999/xlink">
<path d="M6.677,543.576C8.193,540.038 12.424,536.892 20.857,534.266C29.116,531.696 40.324,529.95 54.113,528.364C81.465,525.22 118.423,522.778 159.22,515.31C241.036,500.332 339.42,464.986 413.248,362.336L406.752,357.664C334.58,458.014 238.464,492.668 157.78,507.44C117.327,514.846 81.035,517.218 53.199,520.416C39.395,522.004 27.524,523.812 18.479,526.628C9.607,529.39 2.307,533.462 -0.677,540.424L6.677,543.576ZM413.248,362.336C449.894,311.382 476.552,264.458 498.768,222.578C521.044,180.583 538.684,144.013 557.536,113.213C576.33,82.513 596.066,58.016 622.198,40.295C648.294,22.598 681.084,11.448 726.306,7.988L725.694,0.012C679.416,3.552 645.206,15.027 617.708,33.674C590.246,52.296 569.796,77.862 550.714,109.037C531.692,140.112 513.768,177.229 491.7,218.828C469.574,260.542 443.106,307.118 406.752,357.664L413.248,362.336Z" fill="#FFFAF0"/>
</svg>
