<svg width="38" height="32" viewBox="0 0 38 32" fill="none" xmlns="http://www.w3.org/2000/svg" xmlns:xlink="http://www.w3.org/1999/xlink">
<path d="M36.843,1.493L20.942,31.031C20.808,31.278 20.583,31.481 20.3,31.608C20.017,31.734 19.693,31.777 19.378,31.731C19.063,31.684 18.775,31.549 18.56,31.348C18.344,31.147 18.213,30.891 18.187,30.62L16.842,16.889L0.714,15.745C0.395,15.722 0.094,15.61 -0.142,15.427C-0.378,15.243 -0.536,14.998 -0.591,14.73C-0.646,14.462 -0.595,14.186 -0.446,13.945C-0.297,13.704 -0.059,13.512 0.232,13.399L34.927,-0.139C35.195,-0.244 35.494,-0.276 35.785,-0.232C36.075,-0.187 36.342,-0.068 36.551,0.109C36.76,0.287 36.899,0.515 36.952,0.762C37.004,1.009 36.966,1.264 36.843,1.493L36.843,1.493Z" fill="#FA7436"/>
</svg>
