<svg width="22" height="18" viewBox="0 0 22 18" fill="none" xmlns="http://www.w3.org/2000/svg" xmlns:xlink="http://www.w3.org/1999/xlink">
<path d="M21.756,1.547C20.982,1.886 20.158,2.111 19.298,2.221C20.182,1.693 20.857,0.863 21.175,-0.138C20.35,0.354 19.44,0.701 18.469,0.895C17.686,0.061 16.57,-0.455 15.352,-0.455C12.99,-0.455 11.088,1.462 11.088,3.813C11.088,4.151 11.117,4.476 11.187,4.786C7.64,4.613 4.501,2.913 2.392,0.323C2.024,0.962 1.808,1.693 1.808,2.48C1.808,3.957 2.569,5.267 3.704,6.026C3.018,6.013 2.346,5.814 1.776,5.5C1.776,5.513 1.776,5.53 1.776,5.547C1.776,7.62 3.255,9.343 5.194,9.739C4.847,9.834 4.469,9.88 4.076,9.88C3.803,9.88 3.527,9.864 3.268,9.807C3.821,11.497 5.39,12.739 7.255,12.779C5.803,13.915 3.96,14.599 1.964,14.599C1.615,14.599 1.279,14.584 0.943,14.541C2.833,15.76 5.073,16.456 7.489,16.456C15.341,16.456 19.633,9.951 19.633,4.314C19.633,4.125 19.627,3.943 19.618,3.762C20.465,3.161 21.176,2.411 21.756,1.547Z" fill="#444444"/>
</svg>
