<svg width="38" height="38" viewBox="0 0 38 38" fill="none" xmlns="http://www.w3.org/2000/svg" xmlns:xlink="http://www.w3.org/1999/xlink">
<path d="M3.282,9.921C3.589,9.532 3.992,9.004 4.315,8.628C5.282,7.589 5.408,7.453 6.288,6.685C6.549,6.482 6.859,6.238 7.162,6.009C4.928,7.798 4.643,9.779 6.693,11.003C6.69,11.003 6.69,11.003 6.69,11.006C9.557,12.64 15.841,12.287 20.798,10.194C25.601,8.167 27.373,5.268 25.003,3.545C22.922,3.176 20.442,3.133 17.817,3.466L17.545,3.04L17.771,2.334C19.314,2.202 20.78,2.234 22.045,2.438C22.352,2.487 22.755,2.571 23.056,2.632C23.639,2.766 23.955,2.847 24.335,2.962C24.723,3.072 25.055,3.181 25.632,3.384C26.198,3.594 26.442,3.689 26.896,3.903C27.404,4.122 27.898,4.37 28.374,4.645C32.15,6.892 29.802,10.992 23.138,13.8C16.493,16.6 8.026,17.04 4.231,14.82C4.23,14.817 4.225,14.814 4.215,14.81L4.221,14.81C2.149,13.569 1.931,11.767 3.282,9.921ZM20.571,25.628L20.517,23.104L18.621,21.109C12.356,22.452 6.198,22.163 2.773,20.256C2.762,20.243 2.733,20.23 2.722,20.218C0.783,19.089 0.305,17.632 0.45,16.049C-0.003,18.365 -0.04,19.201 0.025,21.183C0.105,22.425 0.864,23.569 2.388,24.472L2.4,24.485C6.051,26.632 13.656,27.097 20.571,25.628ZM28.479,28.517C19.637,31.872 8.57,32.07 3.763,28.965C4.282,30.166 4.988,31.285 5.858,32.287C10.27,35.137 20.429,34.955 28.541,31.876C33.29,30.075 36.286,27.68 37.073,25.435L37.294,24.759C37.818,23.045 37.916,21.619 38,20.349C37.905,23.106 34.472,26.241 28.479,28.517ZM8.96,34.979C9.238,35.229 10.111,36.244 14.538,37.365C15.735,37.615 18.748,38.418 24.313,37.251L24.347,36.771L23.907,36.119C18.743,37.275 13.007,36.888 8.96,34.979ZM21.737,15.015L26.439,18.386C26.439,18.386 27.445,19.071 26.496,19.553C25.55,20.029 23.122,21.196 23.122,21.196L20.723,20.349L19.52,20.856L21.642,22.599L21.659,25.311L22.906,24.787L23.733,22.496C23.733,22.496 26.272,21.571 27.279,21.223C28.292,20.883 28.156,22.048 28.156,22.048L27.658,27.607L29.315,26.91L32.043,19.41C32.043,19.41 33.489,18.745 34.507,18.161C35.523,17.577 35.871,16.608 35.871,16.608C35.871,16.608 34.88,16.204 33.739,16.528C32.597,16.85 31.109,17.423 31.109,17.423L23.389,14.321L21.737,15.015ZM11.79,4.349L14.982,6.755L15.854,6.631L14.117,4.473C14.117,4.473 13.738,4.026 14.247,3.92C14.759,3.813 16.055,3.563 16.055,3.563L17.029,4.299L17.685,4.207L16.942,3.089L17.334,1.849L16.699,1.936L15.948,2.88C15.948,2.88 14.629,2.997 14.11,3.038C13.588,3.076 13.812,2.546 13.812,2.546L14.813,0L13.936,0.122L11.626,3.303C11.626,3.303 10.856,3.436 10.299,3.586C9.74,3.735 9.445,4.144 9.445,4.144C9.445,4.144 9.855,4.457 10.433,4.446C11.015,4.435 11.79,4.349 11.79,4.349ZM27.566,35.253L25.5,34.232L25.025,34.388L26.248,35.424C26.248,35.424 26.509,35.634 26.235,35.747C25.96,35.858 25.261,36.13 25.261,36.13L24.683,35.886L24.34,36.003L24.821,36.488L24.774,37.196L25.132,37.078L25.4,36.504C25.4,36.504 26.126,36.299 26.416,36.227C26.704,36.152 26.638,36.472 26.638,36.472L26.365,38L26.843,37.843L27.778,35.823C27.778,35.823 28.192,35.669 28.488,35.528C28.784,35.387 28.901,35.128 28.901,35.128C28.901,35.128 28.638,34.992 28.314,35.06C27.987,35.125 27.566,35.253 27.566,35.253Z" fill="#666666"/>
</svg>
